<svg width="16" height="16" viewBox="0 0 16 16" fill="none" xmlns="http://www.w3.org/2000/svg">
<path fill-rule="evenodd" clip-rule="evenodd" d="M1 8C1 4.13359 4.13359 1 8 1C11.8664 1 15 4.13359 15 8C15 11.8664 11.8664 15 8 15C4.13359 15 1 11.8664 1 8Z" fill="#1970F2"/>
<path fill-rule="evenodd" clip-rule="evenodd" d="M8.37217 4.59492C8.48749 4.53433 8.60549 4.50269 8.72618 4.5C8.84419 4.5 8.96219 4.53097 9.08019 4.5929C9.1982 4.65484 9.29073 4.7437 9.35777 4.85949C9.42482 4.97529 9.45835 5.09781 9.45835 5.22707C9.45566 5.35902 9.42214 5.48154 9.35777 5.59464C9.29341 5.70774 9.20423 5.79728 9.09025 5.86325C8.97627 5.92923 8.85491 5.96087 8.72618 5.95817C8.59477 5.95817 8.47341 5.92586 8.36211 5.86123C8.25081 5.7966 8.16298 5.70774 8.09861 5.59464C8.03425 5.48154 8.00139 5.35969 8.00005 5.22909C7.99871 5.09848 8.03156 4.97529 8.09861 4.85949C8.16566 4.7437 8.25685 4.65551 8.37217 4.59492ZM9.15326 10.267C8.68171 10.9562 8.20146 11.4878 7.39375 11.4878C6.84228 11.4006 6.61544 11.0161 6.73545 10.6247L7.77464 7.27535C7.79992 7.19316 7.7574 7.10541 7.68041 7.07915C7.60406 7.05288 7.4535 7.14956 7.32374 7.28818L6.69585 8.0238C6.68317 7.9337 6.68781 7.79977 6.6912 7.70206C6.69243 7.66643 6.6935 7.63562 6.6935 7.6135C7.1657 6.92431 7.94065 6.38046 8.46676 6.38046C8.96659 6.43016 9.20326 6.81862 9.11644 7.24625L8.06985 10.6119C8.05553 10.6879 8.09748 10.7651 8.16806 10.7896C8.24505 10.8159 8.40651 10.7187 8.53691 10.58L9.16416 9.84498C9.17623 9.92836 9.16692 10.0549 9.15967 10.1534C9.15623 10.2001 9.15326 10.2405 9.15326 10.267Z" fill="white"/>
</svg>
