<svg width="12" height="8" viewBox="0 0 12 8" fill="none" xmlns="http://www.w3.org/2000/svg">
<path fill-rule="evenodd" clip-rule="evenodd" d="M10.2408 0.349227C10.6002 -0.0700991 11.2315 -0.118661 11.6508 0.240762C12.0379 0.572536 12.1091 1.13597 11.835 1.5505L11.7593 1.65081L7.33093 6.81723C7.20886 6.95965 7.07371 7.09029 6.92725 7.20747C5.68322 8.20269 3.88992 8.04702 2.83368 6.88341L2.71055 6.73895L0.219168 3.62471C-0.125842 3.19345 -0.0559202 2.56416 0.375342 2.21915C0.77343 1.90068 1.34025 1.93576 1.69646 2.28224L1.78091 2.37532L4.27229 5.48955C4.6173 5.92082 5.24659 5.99074 5.67786 5.64573L5.74819 5.58384L5.81242 5.51565L10.2408 0.349227Z" fill="white"/>
</svg>
