<svg width="24" height="24" viewBox="0 0 24 24" fill="none" xmlns="http://www.w3.org/2000/svg">
<path fill-rule="evenodd" clip-rule="evenodd" d="M5 12C5 8.13401 8.13401 5 12 5C13.9068 5 15.6358 5.76183 16.8991 7H16C15.4477 7 15 7.44772 15 8C15 8.55228 15.4477 9 16 9H19C19.5523 9 20 8.55228 20 8V5C20 4.44772 19.5523 4 19 4C18.4477 4 18 4.44772 18 5V5.29184C16.4084 3.86743 14.3056 3 12 3C7.02944 3 3 7.02944 3 12C3 16.9706 7.02944 21 12 21C16.9706 21 21 16.9706 21 12C21 11.4477 20.5523 11 20 11C19.4477 11 19 11.4477 19 12C19 15.866 15.866 19 12 19C8.13401 19 5 15.866 5 12Z" fill="#B7BBBF"/>
</svg>
