<svg width="24" height="24" viewBox="0 0 24 24" fill="none" xmlns="http://www.w3.org/2000/svg">
<path fill-rule="evenodd" clip-rule="evenodd" d="M19 2C20.6569 2 22 3.34315 22 5V19C22 20.6569 20.6569 22 19 22H7C5.34315 22 4 20.6569 4 19V16.2495H3C2.44772 16.2495 2 15.8018 2 15.2495C2 14.6972 2.44772 14.2495 3 14.2495H4V9.74952H3C2.44772 9.74952 2 9.3018 2 8.74952C2 8.19723 2.44772 7.74952 3 7.74952H4V5C4 3.34315 5.34315 2 7 2H19ZM19 4H7C6.48716 4 6.06449 4.38604 6.00673 4.88338L6 5V19C6 19.5128 6.38604 19.9355 6.88338 19.9933L7 20H19C19.5128 20 19.9355 19.614 19.9933 19.1166L20 19V5C20 4.48716 19.614 4.06449 19.1166 4.00673L19 4ZM17.25 6.93513C17.8023 6.93513 18.25 7.38285 18.25 7.93513V15.9351C18.25 16.4874 17.8023 16.9351 17.25 16.9351C16.6977 16.9351 16.25 16.4874 16.25 15.9351V7.93513C16.25 7.38285 16.6977 6.93513 17.25 6.93513Z" fill="#1D2126"/>
</svg>
