<svg width="24" height="24" viewBox="0 0 24 24" fill="none" xmlns="http://www.w3.org/2000/svg">
<path fill-rule="evenodd" clip-rule="evenodd" d="M22.1569 7.17464L16.8536 1.87134C16.4631 1.48081 15.8299 1.48081 15.4394 1.87134L3.45788 13.8529C3.30809 13.9856 3.19562 14.1664 3.14856 14.3861C3.14347 14.4096 3.13923 14.4332 3.13583 14.4569L2.37447 19.3712C2.26718 20.0637 2.52896 20.7282 3.01344 21.1647C3.09197 21.6386 3.50375 22 3.99994 22L19.9999 22C20.5522 22 20.9999 21.5523 20.9999 21C20.9999 20.4477 20.5522 20 19.9999 20L10.7458 20L22.1569 8.58885C22.5475 8.19833 22.5475 7.56516 22.1569 7.17464ZM7.3282 19.216L4.81223 16.7L4.35089 19.6774L7.3282 19.216ZM9.42901 18.4883L17.2072 10.7102L15.9698 9.47273L8.19158 17.2509L9.42901 18.4883ZM6.77736 15.8367L14.5555 8.05852L13.3181 6.82108L5.53993 14.5993L6.77736 15.8367ZM18.6214 9.29596L20.0356 7.88174L16.1465 3.99266L14.7323 5.40687L18.6214 9.29596Z" fill="#1D2126"/>
</svg>
