<svg width="24" height="24" viewBox="0 0 24 24" fill="none" xmlns="http://www.w3.org/2000/svg">
<path fill-rule="evenodd" clip-rule="evenodd" d="M5 4C3.34315 4 2 5.34315 2 7V17C2 18.6569 3.34315 20 5 20H19C20.6569 20 22 18.6569 22 17V7C22 5.34315 20.6569 4 19 4H5ZM4.82551 6.01517C4.88218 6.0052 4.94048 6 5 6H19C19.0595 6 19.1178 6.0052 19.1745 6.01517L12 10.7982L4.82551 6.01517ZM4 7.86853V17C4 17.5523 4.44772 18 5 18H19C19.5523 18 20 17.5523 20 17V7.86855L12.5547 12.8321C12.2188 13.056 11.7812 13.056 11.4453 12.8321L4 7.86853Z" fill="black"/>
</svg>
