<svg width="24" height="24" viewBox="0 0 24 24" fill="none" xmlns="http://www.w3.org/2000/svg">
<path fill-rule="evenodd" clip-rule="evenodd" d="M15.5 2.5625C15.5 2.01022 15.0523 1.5625 14.5 1.5625H9.5L9.46885 1.56298C8.93098 1.57943 8.5 2.02064 8.5 2.5625C8.5 3.11478 8.94772 3.5625 9.5 3.5625V4.85177C8.7623 5.06464 8.06355 5.36934 7.41691 5.7527L5.16421 3.5C4.77369 3.10948 4.14052 3.10948 3.75 3.5C3.36778 3.88222 3.35965 4.49686 3.7256 4.88896L3.75 4.91421L5.80613 6.97035C4.07778 8.61035 3 10.9293 3 13.5C3 18.4706 7.02944 22.5 12 22.5C16.9706 22.5 21 18.4706 21 13.5C21 10.8944 19.8928 8.54746 18.1231 6.90395L20.0876 4.90869L20.1118 4.88325C20.4747 4.48831 20.4618 3.87375 20.0766 3.49452C19.683 3.10705 19.0499 3.11197 18.6624 3.50552L16.4986 5.70325C15.8757 5.34308 15.2057 5.0554 14.5 4.85177V3.5625L14.5311 3.56202C15.069 3.54557 15.5 3.10436 15.5 2.5625ZM12.5 3.625V4.51365C12.3345 4.50459 12.1678 4.5 12 4.5C11.8322 4.5 11.6655 4.50459 11.5 4.51365V3.625H12.5ZM12 6.5C15.866 6.5 19 9.63401 19 13.5C19 17.366 15.866 20.5 12 20.5C8.13401 20.5 5 17.366 5 13.5C5 9.63401 8.13401 6.5 12 6.5ZM12.9995 11.4689C12.9831 10.931 12.5419 10.5 12 10.5C11.4477 10.5 11 10.9477 11 11.5V14.5L11.0005 14.5311C11.0169 15.069 11.4581 15.5 12 15.5H15L15.0311 15.4995C15.569 15.4831 16 15.0419 16 14.5L15.9995 14.4689C15.9831 13.931 15.5419 13.5 15 13.5H13V11.5L12.9995 11.4689Z" fill="#1D2126"/>
</svg>
