<svg width="24" height="24" viewBox="0 0 24 24" fill="none" xmlns="http://www.w3.org/2000/svg">
<path fill-rule="evenodd" clip-rule="evenodd" d="M8.24344 7.81683L2.0823 8.71023L2.04821 8.71567C1.15742 8.87103 0.808968 9.97421 1.46344 10.6108L5.9215 14.947L4.86918 21.0699L4.86412 21.102C4.73524 21.9963 5.67982 22.6692 6.48939 22.2445L12 19.3537L17.5106 22.2445L17.5396 22.2592C18.3522 22.6579 19.2854 21.9694 19.1308 21.0699L18.0784 14.947L22.5366 10.6108L22.5609 10.5864C23.1901 9.93823 22.8222 8.84137 21.9177 8.71023L15.7564 7.81683L13.0013 2.24612C12.5917 1.41796 11.4083 1.41796 10.9987 2.24612L8.24344 7.81683ZM12.0001 5.25L14.0187 9.33205L14.0367 9.36698C14.2043 9.67784 14.5099 9.89214 14.8614 9.94312L19.375 10.5977L16.109 13.775L16.0803 13.8039C15.8365 14.059 15.7271 14.4148 15.7871 14.7637L16.5581 19.25L12.5209 17.1319L12.483 17.1129C12.165 16.9611 11.7927 16.9674 11.4792 17.1319L7.44191 19.25L8.21306 14.7637L8.21923 14.7234C8.26622 14.3741 8.14519 14.0221 7.89115 13.775L4.625 10.5977L9.1387 9.94312C9.50328 9.89026 9.81844 9.66174 9.98148 9.33205L12.0001 5.25Z" fill="#4E5359"/>
</svg>
