<svg width="24" height="24" viewBox="0 0 24 24" fill="none" xmlns="http://www.w3.org/2000/svg">
<path fill-rule="evenodd" clip-rule="evenodd" d="M5.5 2.5H18.5C20.1569 2.5 21.5 3.84315 21.5 5.5V8.5V18.5C21.5 20.1569 20.1569 21.5 18.5 21.5H5.5C3.84315 21.5 2.5 20.1569 2.5 18.5V8.5V5.5C2.5 3.84315 3.84315 2.5 5.5 2.5ZM19.5 5.5V7.5H4.5V5.5C4.5 4.94772 4.94772 4.5 5.5 4.5H18.5C19.0523 4.5 19.5 4.94772 19.5 5.5ZM19.5 9.5H4.5V18.5C4.5 19.0523 4.94772 19.5 5.5 19.5H18.5C19.0523 19.5 19.5 19.0523 19.5 18.5V9.5ZM14.4902 11.4531C14.8807 11.0626 15.5139 11.0626 15.9044 11.4531C16.2949 11.8436 16.2949 12.4768 15.9044 12.8673L11.6618 17.1099C11.2712 17.5005 10.6381 17.5005 10.2476 17.1099L8.12624 14.9886C7.73571 14.5981 7.73571 13.9649 8.12624 13.5744C8.51676 13.1839 9.14993 13.1839 9.54045 13.5744L10.9547 14.9886L14.4902 11.4531Z" fill="#1D2126"/>
</svg>
