<svg width="24" height="24" viewBox="0 0 24 24" fill="none" xmlns="http://www.w3.org/2000/svg">
<path fill-rule="evenodd" clip-rule="evenodd" d="M5.00011 3C4.44782 3 4.00011 3.44772 4.00011 4C4.00011 4.55228 4.44782 5 5.00011 5H10.5626L3.52336 12.0392L3.50167 12.0616C3.13298 12.4535 3.14021 13.0703 3.52336 13.4534L3.54572 13.4751C3.93769 13.8438 4.55442 13.8366 4.93758 13.4534L11.0001 7.39081V21C11.0001 21.5523 11.4478 22 12.0001 22C12.5524 22 13.0001 21.5523 13.0001 21V7.37387L19.0797 13.4534L19.1021 13.4751C19.494 13.8438 20.1108 13.8366 20.4939 13.4534C20.8844 13.0629 20.8844 12.4297 20.4939 12.0392L13.4547 5H19.0001C19.5524 5 20.0001 4.55228 20.0001 4C20.0001 3.44772 19.5524 3 19.0001 3H5.00011Z" fill="#4E5359"/>
</svg>
