<svg width="24" height="24" viewBox="0 0 24 24" fill="none" xmlns="http://www.w3.org/2000/svg">
<path fill-rule="evenodd" clip-rule="evenodd" d="M14 3H5C3.89543 3 3 3.89543 3 5V16C3 17.1046 3.89543 18 5 18H9V19C9 20.1046 9.89543 21 11 21H19C20.1046 21 21 20.1046 21 19V8C21 6.89543 20.1046 6 19 6H16V5C16 3.89543 15.1046 3 14 3ZM16 8V16C16 17.1046 15.1046 18 14 18H11V19H19V8H16ZM14 7V5H5V16H10H13.9999L14 7ZM11.5 7.5625C12.0523 7.5625 12.5 8.01022 12.5 8.5625C12.5 9.10436 12.069 9.54557 11.5311 9.56202L11.5 9.5625H7.5C6.94772 9.5625 6.5 9.11478 6.5 8.5625C6.5 8.02064 6.93098 7.57943 7.46885 7.56298L7.5 7.5625H11.5ZM11.5 12.5625C11.5 12.0102 11.0523 11.5625 10.5 11.5625H7.5L7.46885 11.563C6.93098 11.5794 6.5 12.0206 6.5 12.5625C6.5 13.1148 6.94772 13.5625 7.5 13.5625H10.5L10.5311 13.562C11.069 13.5456 11.5 13.1044 11.5 12.5625Z" fill="#4E5359"/>
</svg>
