<svg width="24" height="24" viewBox="0 0 24 24" fill="none" xmlns="http://www.w3.org/2000/svg">
<path fill-rule="evenodd" clip-rule="evenodd" d="M17.8158 2.5C19.8302 2.5 21.467 4.11665 21.4995 6.12329L21.5 6.18421V9.875C21.5 10.4273 21.0523 10.875 20.5 10.875C19.9581 10.875 19.5169 10.444 19.5005 9.90615L19.5 9.875V6.18421C19.5 5.26697 18.7668 4.52098 17.8544 4.50043L17.8158 4.5H6.18421C5.26697 4.5 4.52098 5.23325 4.50043 6.14556L4.5 6.18421V17.8158C4.5 18.733 5.23325 19.479 6.14556 19.4996L6.18421 19.5H10C10.5523 19.5 11 19.9477 11 20.5C11 21.0419 10.569 21.4831 10.0311 21.4995L10 21.5H6.18421C4.16982 21.5 2.53303 19.8833 2.50049 17.8767L2.5 17.8158V6.18421C2.5 4.16982 4.11665 2.53303 6.12329 2.50049L6.18421 2.5H17.8158ZM14.0429 14.0429C14.4251 13.6607 15.0397 13.6525 15.4319 14.0185L15.4571 14.0429L17.75 16.3358L20.0429 14.0429C20.4334 13.6524 21.0666 13.6524 21.4571 14.0429C21.8393 14.4251 21.8475 15.0397 21.4815 15.4319L21.4571 15.4571L19.1642 17.75L21.4571 20.0429C21.8476 20.4334 21.8476 21.0666 21.4571 21.4571C21.0749 21.8393 20.4603 21.8475 20.0681 21.4815L20.0429 21.4571L17.75 19.1642L15.4571 21.4571C15.0666 21.8476 14.4334 21.8476 14.0429 21.4571C13.6607 21.0749 13.6525 20.4603 14.0185 20.0681L14.0429 20.0429L16.3358 17.75L14.0429 15.4571C13.6524 15.0666 13.6524 14.4334 14.0429 14.0429Z" fill="#1D2126"/>
</svg>
