<svg width="24" height="24" viewBox="0 0 24 24" fill="none" xmlns="http://www.w3.org/2000/svg">
<path fill-rule="evenodd" clip-rule="evenodd" d="M8 3C8.55228 3 9 3.44772 9 4C9 4.51284 8.61396 4.93551 8.11662 4.99327L8 5H6C5.48716 5 5.06449 5.38604 5.00673 5.88338L5 6V8C5 8.55228 4.55228 9 4 9C3.48716 9 3.06449 8.61396 3.00673 8.11662L3 8V6C3 4.40232 4.24892 3.09634 5.82373 3.00509L6 3H8ZM8 21C8.55228 21 9 20.5523 9 20C9 19.4872 8.61396 19.0645 8.11662 19.0067L8 19H6C5.48716 19 5.06449 18.614 5.00673 18.1166L5 18V16C5 15.4477 4.55228 15 4 15C3.48716 15 3.06449 15.386 3.00673 15.8834L3 16V18C3 19.5977 4.24892 20.9037 5.82373 20.9949L6 21H8ZM15 4C15 3.44772 15.4477 3 16 3H18L18.1763 3.00509C19.7511 3.09634 21 4.40232 21 6V8L20.9933 8.11662C20.9355 8.61396 20.5128 9 20 9C19.4477 9 19 8.55228 19 8V6L18.9933 5.88338C18.9355 5.38604 18.5128 5 18 5H16L15.8834 4.99327C15.386 4.93551 15 4.51284 15 4ZM16 21C15.4477 21 15 20.5523 15 20C15 19.4872 15.386 19.0645 15.8834 19.0067L16 19H18C18.5128 19 18.9355 18.614 18.9933 18.1166L19 18V16C19 15.4477 19.4477 15 20 15C20.5128 15 20.9355 15.386 20.9933 15.8834L21 16V18C21 19.5977 19.7511 20.9037 18.1763 20.9949L18 21H16ZM21 12C21 11.4477 20.5523 11 20 11H4L3.88338 11.0067C3.38604 11.0645 3 11.4872 3 12C3 12.5523 3.44772 13 4 13H20L20.1166 12.9933C20.614 12.9355 21 12.5128 21 12Z" fill="#1D2126"/>
</svg>
