<svg width="21" height="20" viewBox="0 0 21 20" fill="none" xmlns="http://www.w3.org/2000/svg">
<path fill-rule="evenodd" clip-rule="evenodd" d="M16.6101 3.88959C16.2846 3.56415 15.757 3.56415 15.4316 3.88959L10.5 8.82116L5.5684 3.88959L5.54736 3.86925C5.2206 3.5643 4.7084 3.57107 4.38989 3.88959C4.06445 4.21502 4.06445 4.74266 4.38989 5.0681L9.32147 9.99967L4.38989 14.9313L4.36956 14.9523C4.0646 15.279 4.07138 15.7912 4.38989 16.1098C4.71533 16.4352 5.24296 16.4352 5.5684 16.1098L10.5 11.1782L15.4316 16.1098L15.4526 16.1301C15.7794 16.4351 16.2916 16.4283 16.6101 16.1098C16.9355 15.7843 16.9355 15.2567 16.6101 14.9313L11.6785 9.99967L16.6101 5.0681L16.6304 5.04705C16.9354 4.7203 16.9286 4.2081 16.6101 3.88959Z" fill="#4E5359"/>
</svg>
