<svg width="24" height="24" viewBox="0 0 24 24" fill="none" xmlns="http://www.w3.org/2000/svg">
<path fill-rule="evenodd" clip-rule="evenodd" d="M10.0625 1.875C6.99042 1.875 4.5 4.36542 4.5 7.4375C4.5 9.12833 5.25441 10.643 6.44499 11.6632C4.10904 12.8293 2.5 15.4068 2.5 18.375C2.5 18.9273 2.94772 19.375 3.5 19.375C4.05228 19.375 4.5 18.9273 4.5 18.375C4.5 15.3848 6.65098 13 9.25 13C9.33285 13 9.41335 12.9899 9.49033 12.9709C9.67844 12.9902 9.86932 13 10.0625 13C13.1346 13 15.625 10.5096 15.625 7.4375C15.625 4.36542 13.1346 1.875 10.0625 1.875ZM10.0625 3.875C12.03 3.875 13.625 5.46999 13.625 7.4375C13.625 9.40501 12.03 11 10.0625 11C8.09499 11 6.5 9.40501 6.5 7.4375C6.5 5.46999 8.09499 3.875 10.0625 3.875ZM14 15C13.4477 15 13 15.4477 13 16C13 16.5523 13.4477 17 14 17H16V19.1875C16 19.7398 16.4477 20.1875 17 20.1875C17.5523 20.1875 18 19.7398 18 19.1875V17H20C20.5523 17 21 16.5523 21 16C21 15.4477 20.5523 15 20 15H18V13.1875C18 12.6352 17.5523 12.1875 17 12.1875C16.4477 12.1875 16 12.6352 16 13.1875V15H14Z" fill="#1D2126"/>
</svg>
