<svg width="24" height="24" viewBox="0 0 24 24" fill="none" xmlns="http://www.w3.org/2000/svg">
<path fill-rule="evenodd" clip-rule="evenodd" d="M5.03194 2.75C4.47457 2.75 4.13986 2.81464 3.78998 3.00175C3.45275 3.18211 3.18211 3.45275 3.00175 3.78998C2.82132 4.12736 2.75477 4.45064 2.75025 4.97307L2.75 8.46806C2.75 9.02543 2.81464 9.36014 3.00175 9.71002C3.18211 10.0473 3.45275 10.3179 3.78998 10.4982C4.13986 10.6854 4.47457 10.75 5.03194 10.75H8.46806C9.02543 10.75 9.36014 10.6854 9.71002 10.4982C10.0473 10.3179 10.3179 10.0473 10.4982 9.71002C10.6854 9.36014 10.75 9.02543 10.75 8.46806V5.03194C10.75 4.47457 10.6854 4.13986 10.4982 3.78998C10.3179 3.45275 10.0473 3.18211 9.71002 3.00175C9.37264 2.82132 9.04936 2.75477 8.52693 2.75025L5.03194 2.75ZM4.99886 4.7501H8.50114L8.56783 4.75102C8.62992 4.75239 8.67839 4.75507 8.71501 4.75859L8.73875 4.76113L8.74277 4.80027C8.74672 4.84805 8.74936 4.91322 8.7499 4.99886V8.50114L8.74898 8.56783C8.74761 8.62992 8.74493 8.67839 8.74141 8.71501L8.73875 8.73875L8.69973 8.74277C8.65195 8.74672 8.58678 8.74936 8.50114 8.7499H4.99886L4.93217 8.74898C4.87008 8.74761 4.82161 8.74493 4.78499 8.74141L4.76113 8.73875L4.76042 8.73235C4.75474 8.68325 4.75078 8.60819 4.7501 8.50114V4.99886L4.75102 4.93217C4.75239 4.87008 4.75507 4.82161 4.75859 4.78499L4.76113 4.76113L4.76765 4.76042C4.81675 4.75474 4.89181 4.75078 4.99886 4.7501ZM14.625 21.125C15.1773 21.125 15.625 20.6773 15.625 20.125C15.625 19.5727 15.1773 19.125 14.625 19.125C14.0727 19.125 13.625 19.5727 13.625 20.125C13.625 20.6773 14.0727 21.125 14.625 21.125ZM3.78998 13.5018C4.13986 13.3146 4.47457 13.25 5.03194 13.25L8.52693 13.2502C9.04936 13.2548 9.37264 13.3213 9.71002 13.5018C10.0473 13.6821 10.3179 13.9527 10.4982 14.29C10.6854 14.6399 10.75 14.9746 10.75 15.5319V18.9681C10.75 19.5254 10.6854 19.8601 10.4982 20.21C10.3179 20.5473 10.0473 20.8179 9.71002 20.9982C9.36014 21.1854 9.02543 21.25 8.46806 21.25H5.03194C4.47457 21.25 4.13986 21.1854 3.78998 20.9982C3.45275 20.8179 3.18211 20.5473 3.00175 20.21C2.81464 19.8601 2.75 19.5254 2.75 18.9681L2.75025 15.4731C2.75477 14.9506 2.82132 14.6274 3.00175 14.29C3.18211 13.9527 3.45275 13.6821 3.78998 13.5018ZM8.50114 15.2501H4.99886C4.89181 15.2508 4.81675 15.2547 4.76765 15.2604L4.76113 15.2611L4.75859 15.285C4.75507 15.3216 4.75239 15.3701 4.75102 15.4322L4.7501 15.4989V19.0011C4.75078 19.1082 4.75474 19.1833 4.76042 19.2323L4.76113 19.2388L4.78499 19.2414C4.82161 19.2449 4.87008 19.2476 4.93217 19.249L4.99886 19.2499H8.50114C8.58678 19.2494 8.65195 19.2467 8.69973 19.2428L8.73875 19.2388L8.74141 19.215C8.74493 19.1784 8.74761 19.1299 8.74898 19.0678L8.7499 19.0011V15.4989C8.74936 15.4132 8.74672 15.3481 8.74277 15.3003L8.73875 15.2611L8.71501 15.2586C8.67839 15.2551 8.62992 15.2524 8.56783 15.251L8.50114 15.2501ZM15.5319 2.75C14.9746 2.75 14.6399 2.81464 14.29 3.00175C13.9527 3.18211 13.6821 3.45275 13.5018 3.78998C13.3213 4.12736 13.2548 4.45064 13.2502 4.97307L13.25 8.46806C13.25 9.02543 13.3146 9.36014 13.5018 9.71002C13.6821 10.0473 13.9527 10.3179 14.29 10.4982C14.6399 10.6854 14.9746 10.75 15.5319 10.75H18.9681C19.5254 10.75 19.8601 10.6854 20.21 10.4982C20.5473 10.3179 20.8179 10.0473 20.9982 9.71002C21.1854 9.36014 21.25 9.02543 21.25 8.46806V5.03194C21.25 4.47457 21.1854 4.13986 20.9982 3.78998C20.8179 3.45275 20.5473 3.18211 20.21 3.00175C19.8726 2.82132 19.5494 2.75477 19.0269 2.75025L15.5319 2.75ZM15.4989 4.7501H19.0011L19.0678 4.75102C19.1299 4.75239 19.1784 4.75507 19.215 4.75859L19.2388 4.76113L19.2428 4.80027C19.2467 4.84805 19.2494 4.91322 19.2499 4.99886V8.50114L19.249 8.56783C19.2476 8.62992 19.2449 8.67839 19.2414 8.71501L19.2388 8.73875L19.1997 8.74277C19.1519 8.74672 19.0868 8.74936 19.0011 8.7499H15.4989L15.4322 8.74898C15.3701 8.74761 15.3216 8.74493 15.285 8.74141L15.2611 8.73875L15.2604 8.73235C15.2547 8.68325 15.2508 8.60819 15.2501 8.50114V4.99886L15.251 4.93217C15.2524 4.87008 15.2551 4.82161 15.2586 4.78499L15.2611 4.76113L15.2677 4.76042C15.3167 4.75474 15.3918 4.75078 15.4989 4.7501ZM14.625 13.125C15.1669 13.125 15.6081 13.556 15.6245 14.0939L15.625 14.125V17.125C15.625 17.6773 15.1773 18.125 14.625 18.125C14.0831 18.125 13.6419 17.694 13.6255 17.1561L13.625 17.125V14.125C13.625 13.5727 14.0727 13.125 14.625 13.125ZM20.8745 14.0939C20.8581 13.556 20.4169 13.125 19.875 13.125C19.3227 13.125 18.875 13.5727 18.875 14.125V20.125L18.8755 20.1561C18.8919 20.694 19.3331 21.125 19.875 21.125C20.4273 21.125 20.875 20.6773 20.875 20.125V14.125L20.8745 14.0939Z" fill="#1D2126"/>
</svg>
