<svg width="24" height="24" viewBox="0 0 24 24" fill="none" xmlns="http://www.w3.org/2000/svg">
<path fill-rule="evenodd" clip-rule="evenodd" d="M12 2.125C13.3663 2.125 14.4767 3.22109 14.4996 4.58194L14.5 4.625V5.5H20.625C21.1773 5.5 21.625 5.94772 21.625 6.5C21.625 7.04186 21.194 7.48307 20.6561 7.49952L20.625 7.5H19.5V18.0611C19.5 19.0249 19.4008 19.5384 19.1147 20.0734C18.8472 20.5736 18.4486 20.9722 17.9484 21.2397C17.4383 21.5125 16.9477 21.6154 16.0677 21.6243L15.9361 21.625H8.06389C7.1001 21.625 6.58664 21.5258 6.05156 21.2397C5.55136 20.9722 5.15283 20.5736 4.88532 20.0734C4.59916 19.5384 4.5 19.0249 4.5 18.0611V7.5H3.5C2.94772 7.5 2.5 7.05228 2.5 6.5C2.5 5.95814 2.93098 5.51693 3.46885 5.50048L3.5 5.5H9.5V4.625C9.5 3.24429 10.6193 2.125 12 2.125ZM11.5 5.5V4.625L11.5006 4.60004C11.5136 4.3355 11.7322 4.125 12 4.125C12.2761 4.125 12.5 4.34886 12.5 4.625V5.5H11.5ZM6.5 7.625L6.50007 18.1099C6.50194 18.7171 6.53966 18.9193 6.64083 19.1148L6.64895 19.1302C6.73005 19.2819 6.8431 19.3949 6.99475 19.4761C7.20048 19.5861 7.40203 19.625 8.06389 19.625L15.9849 19.6249C16.5761 19.6231 16.7834 19.5873 16.9744 19.492L17.0052 19.4761C17.1569 19.3949 17.2699 19.2819 17.3511 19.1302C17.4611 18.9245 17.5 18.723 17.5 18.0611V7.625H6.5ZM10.0625 10.125C10.6044 10.125 11.0456 10.556 11.062 11.0939L11.0625 11.125V16.125C11.0625 16.6773 10.6148 17.125 10.0625 17.125C9.52064 17.125 9.07943 16.694 9.06298 16.1561L9.0625 16.125V11.125C9.0625 10.5727 9.51022 10.125 10.0625 10.125ZM15.062 11.0939C15.0456 10.556 14.6044 10.125 14.0625 10.125C13.5102 10.125 13.0625 10.5727 13.0625 11.125V16.125L13.063 16.1561C13.0794 16.694 13.5206 17.125 14.0625 17.125C14.6148 17.125 15.0625 16.6773 15.0625 16.125V11.125L15.062 11.0939Z" fill="#1D2126"/>
</svg>
