<svg width="24" height="24" viewBox="0 0 24 24" fill="none" xmlns="http://www.w3.org/2000/svg">
<path fill-rule="evenodd" clip-rule="evenodd" d="M13.0563 1.99224C13.6085 1.99224 14.0563 2.43995 14.0563 2.99224C14.0563 3.50507 13.6702 3.92775 13.1729 3.98551L13.0563 3.99224H6.99329C5.93892 3.99224 5.07512 4.80812 4.99877 5.84298L4.99329 5.99224V17.9922C4.99329 19.0466 5.80916 19.9104 6.84402 19.9868L6.99329 19.9922H15.9933C17.0476 19.9922 17.9115 19.1764 17.9878 18.1415L17.9933 17.9922V11.8244C17.9933 11.2721 18.441 10.8244 18.9933 10.8244C19.5061 10.8244 19.9288 11.2104 19.9866 11.7078L19.9933 11.8244V17.9922C19.9933 20.1344 18.3093 21.8833 16.1929 21.9873L15.9933 21.9922H6.99329C4.85109 21.9922 3.10221 20.3083 2.99818 18.1919L2.99329 17.9922V5.99224C2.99329 3.85004 4.67725 2.10116 6.79365 1.99713L6.99329 1.99224H13.0563ZM13.9964 15.9884C14.5483 15.9884 14.9957 16.4358 14.9957 16.9877C14.9957 17.5396 14.5483 17.9871 13.9964 17.9871H8.99509C8.44317 17.9871 7.99574 17.5396 7.99574 16.9877C7.99574 16.4358 8.44317 15.9884 8.99509 15.9884H13.9964ZM18.9878 1C19.5397 1 19.9872 1.44744 19.9872 1.99939L19.9863 3.998L21.986 3.99806C22.5379 3.99806 22.9853 4.44549 22.9853 4.99741C22.9853 5.54934 22.5379 5.99677 21.986 5.99677L19.9863 5.996L19.9872 7.99544C19.9872 8.54739 19.5397 8.99483 18.9878 8.99483C18.4358 8.99483 17.9884 8.54739 17.9884 7.99544L17.9883 5.996L15.9896 5.99677C15.4376 5.99677 14.9902 5.54934 14.9902 4.99741C14.9902 4.44549 15.4376 3.99806 15.9896 3.99806L17.9883 3.998L17.9884 1.99939C17.9884 1.44744 18.4358 1 18.9878 1Z" fill="#1D2126"/>
</svg>
