<svg width="24" height="24" viewBox="0 0 24 24" fill="none" xmlns="http://www.w3.org/2000/svg">
<path fill-rule="evenodd" clip-rule="evenodd" d="M22.2493 9.91732C22.2052 7.19403 19.9838 5 17.25 5H12.75L12.6673 5.00067C9.94403 5.04482 7.75 7.26619 7.75 10V10.6346L7.75058 10.7068C7.78913 13.0844 9.72856 15 12.1154 15C12.6677 15 13.1154 14.5523 13.1154 14C13.1154 13.4477 12.6677 13 12.1154 13L12.0729 12.9996C10.7861 12.9769 9.75 11.9268 9.75 10.6346V10L9.7504 9.95039C9.77689 8.31642 11.1097 7 12.75 7H17.25L17.2996 7.0004C18.9336 7.02689 20.25 8.35971 20.25 10V10.6346L20.2496 10.6771C20.2269 11.9639 19.1768 13 17.8846 13L17.8535 13.0005C17.3156 13.0169 16.8846 13.4581 16.8846 14C16.8846 14.5523 17.3323 15 17.8846 15C20.2956 15 22.25 13.0456 22.25 10.6346V10L22.2493 9.91732ZM16.2493 14.0827C16.2052 16.806 13.9838 19 11.25 19H6.75L6.66732 18.9993C3.94403 18.9552 1.75 16.7338 1.75 14V13.3654L1.75058 13.2932C1.78913 10.9156 3.72856 9 6.11538 9C6.66767 9 7.11538 9.44771 7.11538 10C7.11538 10.5523 6.66767 11 6.11538 11L6.07287 11.0004C4.78612 11.0231 3.75 12.0732 3.75 13.3654V14L3.7504 14.0496C3.77689 15.6836 5.10971 17 6.75 17H11.25L11.2996 16.9996C12.9336 16.9731 14.25 15.6403 14.25 14V13.3654L14.2496 13.3229C14.2269 12.0361 13.1768 11 11.8846 11L11.8535 10.9995C11.3156 10.9831 10.8846 10.5419 10.8846 10C10.8846 9.44771 11.3323 9 11.8846 9C14.2956 9 16.25 10.9544 16.25 13.3654V14L16.2493 14.0827Z" fill="#1D2126"/>
</svg>
