<svg width="24" height="24" viewBox="0 0 24 24" fill="none" xmlns="http://www.w3.org/2000/svg">
<path fill-rule="evenodd" clip-rule="evenodd" d="M5.00002 2H11C11.5523 2 12 2.44771 12 3L12 4.5C12 4.93043 11.7246 5.31257 11.3163 5.44868L6.00003 7.22076L6.00003 8.98471L10.619 6.58967C11.4849 6.14068 12.5151 6.14068 13.381 6.58967L20.381 10.2193C21.3756 10.7351 22 11.7621 22 12.8826V19.0001C22 20.6569 20.6569 22.0001 19 22.0001H5C3.34315 22.0001 2 20.6569 2 19.0001V12.8826C2 11.7621 2.62437 10.7351 3.61905 10.2193L4.00027 10.0216C4.00011 10.0144 4.00003 10.0072 4.00003 9.99996L4.00003 6.52309C3.99966 6.50757 3.99967 6.49207 4.00003 6.47662L4.00002 3C4.00002 2.44772 4.44774 2 5.00002 2ZM6.00003 5.11257L9.33775 4H6.00002L6.00003 5.11257ZM10 16C9.44772 16 9 16.4477 9 17V20.0001H15V17C15 16.4477 14.5523 16 14 16H10ZM17 20.0001V17C17 15.3431 15.6569 14 14 14H10C8.34315 14 7 15.3431 7 17V20.0001H5C4.44772 20.0001 4 19.5523 4 19.0001V12.8826C4 12.5091 4.20812 12.1667 4.53968 11.9948L11.5397 8.36518C11.8283 8.21551 12.1717 8.21551 12.4603 8.36518L19.4603 11.9948C19.7919 12.1667 20 12.5091 20 12.8826V19.0001C20 19.5523 19.5523 20.0001 19 20.0001H17Z" fill="black"/>
</svg>
