<svg width="24" height="24" viewBox="0 0 24 24" fill="none" xmlns="http://www.w3.org/2000/svg">
<path fill-rule="evenodd" clip-rule="evenodd" d="M22.0516 8.34443C22.6374 8.93021 22.6374 9.87996 22.0516 10.4657C21.9032 10.6142 21.7253 10.7298 21.5294 10.8051L19.0875 11.7443L15.1984 15.6334L15.4302 19.9436C15.4746 20.7708 14.8401 21.4775 14.0129 21.522C13.5877 21.5448 13.1728 21.3859 12.8717 21.0848L8.56925 16.7824L3.88473 21.467C3.4942 21.8575 2.86104 21.8575 2.47051 21.467C2.08736 21.0839 2.08013 20.4671 2.44882 20.0752L2.47051 20.0528L7.15504 15.3682L2.85273 11.0659C2.26695 10.4801 2.26695 9.53033 2.85273 8.94454C3.15383 8.64344 3.56872 8.4845 3.99392 8.50736L8.30414 8.73909L12.1932 4.85001L13.0738 2.39373C13.3533 1.6139 14.2122 1.20836 14.992 1.48792C15.2005 1.56266 15.3898 1.68265 15.5464 1.83927L22.0516 8.34443Z" fill="#1D2126"/>
</svg>
