<svg width="24" height="24" viewBox="0 0 24 24" fill="none" xmlns="http://www.w3.org/2000/svg">
<path fill-rule="evenodd" clip-rule="evenodd" d="M2.50124 11.472C2.58292 6.43395 6.69245 2.375 11.75 2.375C16.8586 2.375 21 6.51637 21 11.625C21 16.7336 16.8586 20.875 11.75 20.875H4.5L4.46064 20.8746C3.37424 20.8537 2.5 19.9664 2.5 18.875V11.625L2.50124 11.472ZM19 11.625C19 7.62094 15.7541 4.375 11.75 4.375C7.74594 4.375 4.5 7.62094 4.5 11.625V18.875H11.75L11.8699 18.874C15.8187 18.81 19 15.589 19 11.625ZM8.75 9.0625C8.19771 9.0625 7.75 9.51022 7.75 10.0625C7.75 10.6044 8.18098 11.0456 8.71885 11.062L8.75 11.0625H14.75C15.3023 11.0625 15.75 10.6148 15.75 10.0625C15.75 9.52064 15.319 9.07943 14.7811 9.06298L14.75 9.0625H8.75ZM8.75 14.0625C8.75 13.5102 9.19771 13.0625 9.75 13.0625H13.75L13.7811 13.063C14.319 13.0794 14.75 13.5206 14.75 14.0625C14.75 14.6148 14.3023 15.0625 13.75 15.0625H9.75L9.71885 15.062C9.18098 15.0456 8.75 14.6044 8.75 14.0625Z" fill="#1D2126"/>
</svg>
