<svg width="24" height="24" viewBox="0 0 24 24" fill="none" xmlns="http://www.w3.org/2000/svg">
<path fill-rule="evenodd" clip-rule="evenodd" d="M11.5 2.5C10.9477 2.5 10.5 2.94772 10.5 3.5C10.5 4.05228 10.9477 4.5 11.5 4.5H13.5V6.5H2.125C1.50368 6.5 1 7.00368 1 7.625V16.375C1 16.9963 1.50368 17.5 2.125 17.5H13.5V19.5H11.5C10.9477 19.5 10.5 19.9477 10.5 20.5C10.5 21.0523 10.9477 21.5 11.5 21.5H17.5C18.0523 21.5 18.5 21.0523 18.5 20.5C18.5 19.9477 18.0523 19.5 17.5 19.5H15.5V17.5H21.875C22.4963 17.5 23 16.9963 23 16.375V7.625C23 7.00368 22.4963 6.5 21.875 6.5H15.5V4.5H17.5C18.0523 4.5 18.5 4.05228 18.5 3.5C18.5 2.94772 18.0523 2.5 17.5 2.5H11.5ZM13.5 8.5H3V15.5H13.5V8.5ZM15.5 15.5V8.5H21V15.5H15.5Z" fill="#1D2126"/>
</svg>
