<svg width="24" height="24" viewBox="0 0 24 24" fill="none" xmlns="http://www.w3.org/2000/svg">
<path fill-rule="evenodd" clip-rule="evenodd" d="M9.22955 2.81606C8.85182 2.41315 8.21898 2.39274 7.81607 2.77047L5.15276 5.26713L4.16897 4.38171L4.14303 4.35914C3.73223 4.0138 3.11848 4.05408 2.75671 4.45604C2.38726 4.86655 2.42053 5.49884 2.83104 5.8683L4.49771 7.3683L4.52374 7.39094C4.90983 7.71535 5.48009 7.70191 5.85062 7.35454L9.18395 4.22954L9.20863 4.2056C9.58754 3.82554 9.59941 3.21058 9.22955 2.81606ZM13 4C12.4477 4 12 4.44772 12 5C12 5.55229 12.4477 6 13 6H20.5C21.0523 6 21.5 5.55229 21.5 5C21.5 4.44772 21.0523 4 20.5 4H13ZM13 11C12.4477 11 12 11.4477 12 12C12 12.5523 12.4477 13 13 13H20.5C21.0523 13 21.5 12.5523 21.5 12C21.5 11.4477 21.0523 11 20.5 11H13ZM12 19C12 18.4477 12.4477 18 13 18H20.5C21.0523 18 21.5 18.4477 21.5 19C21.5 19.5523 21.0523 20 20.5 20H13C12.4477 20 12 19.5523 12 19ZM9.22955 9.56606C8.85182 9.16315 8.21898 9.14274 7.81607 9.52047L5.15276 12.0171L4.16897 11.1317L4.14303 11.1091C3.73223 10.7638 3.11848 10.8041 2.75671 11.206C2.38726 11.6165 2.42053 12.2488 2.83104 12.6183L4.49771 14.1183L4.52374 14.1409C4.90983 14.4653 5.48009 14.4519 5.85062 14.1045L9.18395 10.9795L9.20863 10.9556C9.58754 10.5755 9.59941 9.96058 9.22955 9.56606ZM7.81607 16.6455C8.21898 16.2677 8.85182 16.2881 9.22955 16.6911C9.59941 17.0856 9.58754 17.7005 9.20863 18.0806L9.18395 18.1045L5.85062 21.2295C5.48009 21.5769 4.90983 21.5903 4.52374 21.2659L4.49771 21.2433L2.83104 19.7433C2.42053 19.3738 2.38726 18.7415 2.75671 18.331C3.11848 17.9291 3.73223 17.8888 4.14303 18.2341L4.16897 18.2567L5.15276 19.1421L7.81607 16.6455Z" fill="#1D2126"/>
</svg>
