<svg width="24" height="24" viewBox="0 0 24 24" fill="none" xmlns="http://www.w3.org/2000/svg">
<path fill-rule="evenodd" clip-rule="evenodd" d="M5 12C5 8.13401 8.13401 5 12 5C13.6564 5 15.1759 5.57405 16.3745 6.53488C16.8054 6.88031 17.4348 6.81102 17.7802 6.3801C18.1257 5.94918 18.0564 5.31982 17.6255 4.97438C16.0849 3.73938 14.1274 3 12 3C7.02944 3 3 7.02944 3 12C3 16.9706 7.02944 21 12 21C15.7786 21 19.011 18.6717 20.3454 15.3752C20.5526 14.8633 20.3056 14.2803 19.7937 14.0731C19.2818 13.8658 18.6988 14.1129 18.4915 14.6248C17.4524 17.192 14.9361 19 12 19C8.13401 19 5 15.866 5 12ZM22.7115 5.42235C22.3235 5.02938 21.6903 5.0254 21.2974 5.41346L12.7115 13.892L12.6862 13.9161C12.2936 14.2781 11.6823 14.2681 11.3018 13.8875L7.70711 10.2929L7.68185 10.2685C7.28975 9.90255 6.67511 9.91068 6.29289 10.2929C5.90237 10.6834 5.90237 11.3166 6.29289 11.7071L9.88755 15.3018L9.92423 15.3378C11.0932 16.4681 12.9554 16.462 14.1168 15.3151L22.7026 6.83654L22.7272 6.81144C23.0956 6.42165 23.0913 5.80697 22.7115 5.42235Z" fill="#1D2126"/>
</svg>
