<svg width="24" height="24" viewBox="0 0 24 24" fill="none" xmlns="http://www.w3.org/2000/svg">
<path fill-rule="evenodd" clip-rule="evenodd" d="M20.7822 5.80374C21.1667 5.40732 21.7998 5.39768 22.1963 5.78221C22.5844 6.15873 22.6018 6.77356 22.2413 7.17118L22.2178 7.19626L11.5195 18.2255C11.5026 18.2429 11.4855 18.26 11.4682 18.277C10.2983 19.426 8.42581 19.4211 7.26189 18.275L7.22575 18.2388L1.78655 12.7007C1.39956 12.3067 1.40527 11.6735 1.79929 11.2866C2.18494 10.9078 2.79962 10.9052 3.18842 11.2747L3.21345 11.2993L8.65265 16.8374C9.03964 17.2314 9.67278 17.2371 10.0668 16.8501L10.0839 16.8329L20.7822 5.80374Z" fill="#1D2126"/>
</svg>
