<svg width="24" height="24" viewBox="0 0 24 24" fill="none" xmlns="http://www.w3.org/2000/svg">
<path fill-rule="evenodd" clip-rule="evenodd" d="M8.45711 3.04289C8.06658 2.65237 7.43342 2.65237 7.04289 3.04289L3.04289 7.04289L3.0185 7.06815C2.65255 7.46025 2.66068 8.07489 3.04289 8.45711L7.04289 12.4571L7.06815 12.4815C7.46025 12.8475 8.07489 12.8393 8.45711 12.4571L8.4815 12.4319C8.84745 12.0397 8.83932 11.4251 8.45711 11.0429L6.21389 8.79965H14.4158L14.4943 8.80028C17.0815 8.84223 19.1658 10.9525 19.1658 13.5496C19.1658 16.173 17.0391 18.2996 14.4158 18.2996H4.39756L4.36641 18.3001C3.82854 18.3166 3.39756 18.7578 3.39756 19.2996C3.39756 19.8519 3.84527 20.2996 4.39756 20.2996H14.4158L14.5274 20.2987C18.2038 20.2391 21.1658 17.2403 21.1658 13.5496C21.1658 9.82172 18.1437 6.79965 14.4158 6.79965H6.11445L8.45711 4.45711L8.4815 4.43185C8.84745 4.03975 8.83932 3.42511 8.45711 3.04289Z" fill="#1D2126"/>
</svg>
