<svg width="24" height="24" viewBox="0 0 24 24" fill="none" xmlns="http://www.w3.org/2000/svg">
<path fill-rule="evenodd" clip-rule="evenodd" d="M10.6958 2.08442C5.74466 2.72993 2 6.96297 2 12C2 17.5229 6.47715 22 12 22C17.0372 22 21.2702 18.2551 21.9147 13.3042C22.0187 12.5049 21.1829 11.9173 20.466 12.2857C19.5565 12.753 18.5471 13 17.5 13C13.9101 13 11 10.0899 11 6.50003C11 5.55764 11.2001 4.64563 11.581 3.8089L11.7146 3.53284C12.0828 2.81586 11.495 1.98021 10.6958 2.08442ZM9.02685 4.56969L9.23865 4.48788C9.08091 5.14429 9 5.81662 9 6.50003C9 11.1944 12.8056 15 17.5 15L17.8407 14.9933C18.4069 14.9709 18.9642 14.8929 19.5107 14.7599L19.4297 14.9734C18.2447 17.9369 15.3435 20 12 20C7.58172 20 4 16.4183 4 12C4 8.65659 6.0631 5.75533 9.02685 4.56969Z" fill="#1D2126"/>
</svg>
