<svg width="24" height="24" viewBox="0 0 24 24" fill="none" xmlns="http://www.w3.org/2000/svg">
<path fill-rule="evenodd" clip-rule="evenodd" d="M10.5 1.5C5.52944 1.5 1.5 5.52944 1.5 10.5C1.5 15.4706 5.52944 19.5 10.5 19.5C12.6522 19.5 14.6279 18.7446 16.1765 17.4845L19.7827 21.1968L19.8071 21.221C20.1938 21.5931 20.8089 21.5941 21.1968 21.2173C21.5929 20.8325 21.6021 20.1994 21.2173 19.8032L17.5792 16.0581C18.7823 14.5278 19.5 12.5977 19.5 10.5C19.5 5.52944 15.4706 1.5 10.5 1.5ZM10.5 3.5C14.366 3.5 17.5 6.63401 17.5 10.5C17.5 14.366 14.366 17.5 10.5 17.5C6.63401 17.5 3.5 14.366 3.5 10.5C3.5 6.63401 6.63401 3.5 10.5 3.5Z" fill="#1D2126"/>
</svg>
