<svg width="24" height="24" viewBox="0 0 24 24" fill="none" xmlns="http://www.w3.org/2000/svg">
<path fill-rule="evenodd" clip-rule="evenodd" d="M15.9599 5.43159C15.6839 3.49166 14.0162 2 12 2C9.98383 2 8.31605 3.49166 8.04008 5.43159C7.8826 5.49662 7.72884 5.57002 7.57471 5.65245C6.74859 6.09427 6.09427 6.74859 5.65245 7.57471C5.17431 8.46876 5 9.35021 5 11.0184V18.4361C5 19.3999 5.09916 19.9134 5.38532 20.4484C5.65283 20.9486 6.05136 21.3472 6.55156 21.6147C7.08664 21.9008 7.6001 22 8.56389 22H15.4361C16.3999 22 16.9134 21.9008 17.4484 21.6147C17.9486 21.3472 18.3472 20.9486 18.6147 20.4484C18.9008 19.9134 19 19.3999 19 18.4361V11.0184C19 9.35021 18.8257 8.46876 18.3475 7.57471C17.9057 6.74859 17.2514 6.09427 16.4253 5.65245C16.2712 5.57002 16.1174 5.49662 15.9599 5.43159ZM13.7408 5.01457C13.3971 4.40874 12.7463 4 12 4C11.2537 4 10.6029 4.40874 10.2592 5.01457C10.4936 5.00467 10.7454 5 11.0184 5H12.9816C13.2546 5 13.5064 5.00467 13.7408 5.01457ZM3 13C3.51284 13 3.93551 13.386 3.99327 13.8834L4 14V18C4 18.5523 3.55228 19 3 19C2.48716 19 2.06449 18.614 2.00673 18.1166L2 18V14C2 13.4477 2.44772 13 3 13ZM21 13C21.5128 13 21.9355 13.386 21.9933 13.8834L22 14V18C22 18.5523 21.5523 19 21 19C20.4872 19 20.0645 18.614 20.0067 18.1166L20 18V14C20 13.4477 20.4477 13 21 13ZM13.5 16C14.0523 16 14.5 16.4477 14.5 17C14.5 17.5128 14.114 17.9355 13.6166 17.9933L13.5 18H10.5C9.94772 18 9.5 17.5523 9.5 17C9.5 16.4872 9.88604 16.0645 10.3834 16.0067L10.5 16H13.5ZM12.9816 7C14.3466 7 14.9138 7.11216 15.4821 7.41608C15.9597 7.67149 16.3285 8.04032 16.5839 8.51791C16.8498 9.01515 16.969 9.51156 16.9946 10.5424L17 11.0184L16.999 18.6056L16.9907 18.8843C16.9885 18.9248 16.986 18.9626 16.983 18.9979L16.96 19.1837C16.9364 19.3191 16.9011 19.4117 16.8511 19.5052C16.7699 19.6569 16.6569 19.7699 16.5052 19.8511C16.4117 19.9011 16.3191 19.9364 16.1837 19.96L15.9979 19.983C15.9626 19.986 15.9248 19.9885 15.8843 19.9907L15.6056 19.999H8.39444L8.11566 19.9907C8.07518 19.9885 8.03745 19.986 8.00213 19.983L7.81632 19.96C7.68092 19.9364 7.58827 19.9011 7.49475 19.8511C7.3431 19.7699 7.23005 19.6569 7.14895 19.5052C7.07115 19.3598 7.0289 19.2164 7.01083 18.9109L7.00099 18.6056L7 11.0184C7 9.65337 7.11216 9.08618 7.41608 8.51791C7.67149 8.04032 8.04032 7.67149 8.51791 7.41608C9.05067 7.13116 9.58247 7.01477 10.7716 7.00133L12.9816 7Z" fill="#1D2126"/>
</svg>
