<svg width="24" height="24" viewBox="0 0 24 24" fill="none" xmlns="http://www.w3.org/2000/svg">
<path fill-rule="evenodd" clip-rule="evenodd" d="M14.2638 5.2097C13.8806 4.91177 13.3305 4.9313 12.9692 5.26828L12.9437 5.29289L12.8606 5.3871C12.5626 5.77027 12.5822 6.32033 12.9191 6.68163L12.9437 6.70711L18.2367 12L12.9437 17.2929L12.8606 17.3871C12.5555 17.7794 12.5833 18.3466 12.9437 18.7071C13.326 19.0893 13.9406 19.0975 14.3327 18.7315L14.358 18.7071L20.358 12.7071L20.4412 12.6129C20.7391 12.2297 20.7196 11.6797 20.3826 11.3184L20.358 11.2929L14.358 5.29289L14.2638 5.2097ZM4.9879 5.2097C4.60473 4.91177 4.05467 4.9313 3.69337 5.26828L3.66789 5.29289L3.5847 5.3871C3.28677 5.77027 3.3063 6.32033 3.64328 6.68163L3.66789 6.70711L8.96086 12L3.66789 17.2929L3.5847 17.3871C3.27968 17.7794 3.30741 18.3466 3.66789 18.7071C4.05011 19.0893 4.66475 19.0975 5.05685 18.7315L5.08211 18.7071L11.0821 12.7071L11.1653 12.6129C11.4632 12.2297 11.4437 11.6797 11.1067 11.3184L11.0821 11.2929L5.08211 5.29289L4.9879 5.2097Z" fill="#1D2126"/>
</svg>
