<svg width="24" height="24" viewBox="0 0 24 24" fill="none" xmlns="http://www.w3.org/2000/svg">
<path fill-rule="evenodd" clip-rule="evenodd" d="M12.0088 1.50046C11.0087 1.5178 10.1012 2.01894 9.54844 2.81303L9.54025 2.82487L9.51545 2.83194C5.92047 3.86733 3.375 7.17566 3.375 11V16.5C3.375 18.1569 4.71815 19.5 6.375 19.5H9.00063C9.03391 21.1625 10.392 22.5 12.0625 22.5C13.733 22.5 15.0911 21.1625 15.1244 19.5H17.625C19.2819 19.5 20.625 18.1569 20.625 16.5V11L20.6242 10.8825C20.5734 7.16526 18.118 3.95024 14.6344 2.87673L14.616 2.87112L14.6071 2.85774C14.0485 2.02418 13.1032 1.5 12.0625 1.5L12.0088 1.50046ZM12.0625 20.5C11.4967 20.5 11.0342 20.0577 11.0018 19.5H13.1232C13.0908 20.0577 12.6283 20.5 12.0625 20.5ZM12.0625 3.5C12.4738 3.5 12.8417 3.73546 13.0182 4.09716L13.0337 4.13038C13.159 4.41116 13.4065 4.61869 13.7048 4.69313C16.5747 5.40926 18.625 7.99963 18.625 11V16.5C18.625 17.0523 18.1773 17.5 17.625 17.5H6.375C5.82272 17.5 5.375 17.0523 5.375 16.5V11C5.375 7.95386 7.48773 5.33493 10.4167 4.66399C10.7049 4.59798 10.9485 4.40805 11.083 4.14619L11.0992 4.11309C11.2729 3.74186 11.6456 3.5 12.0625 3.5ZM17.5 12C17.5 8.96243 15.0376 6.5 12 6.5C11.4477 6.5 11 6.94772 11 7.5C11 8.05228 11.4477 8.5 12 8.5C13.933 8.5 15.5 10.067 15.5 12L15.5005 12.0311C15.5169 12.569 15.9581 13 16.5 13C17.0523 13 17.5 12.5523 17.5 12Z" fill="#1D2126"/>
</svg>
