<svg width="24" height="24" viewBox="0 0 24 24" fill="none" xmlns="http://www.w3.org/2000/svg">
<path fill-rule="evenodd" clip-rule="evenodd" d="M3.5 14.5C2.94772 14.5 2.5 14.0523 2.5 13.5V4.98701L2.50042 4.94701C2.52413 3.81734 3.55071 3 4.72321 3H19.4018L19.4431 3.00034C20.6121 3.0195 21.625 3.85006 21.625 4.98701V13.5L21.6245 13.5311C21.6081 14.069 21.1669 14.5 20.625 14.5L20.5939 14.4995C20.056 14.4831 19.625 14.0419 19.625 13.5L19.625 5.0572C19.5759 5.02424 19.4963 5 19.4018 5H4.72321L4.69533 5.00071C4.61311 5.00494 4.5442 5.02754 4.50003 5.0572L4.5 13.5L4.49952 13.5311C4.48307 14.069 4.04186 14.5 3.5 14.5ZM12 20.9534C12.5419 20.9534 12.9831 20.5224 12.9995 19.9845L13 19.9534V11.4141L14.1213 12.5355C14.5045 12.9186 15.1212 12.9259 15.5132 12.5572L15.5355 12.5355C15.9187 12.1523 15.9259 11.5356 15.5572 11.1436L15.5355 11.1213L12.7071 8.29284C12.3239 7.90968 11.7072 7.90245 11.3153 8.27115L11.2929 8.29284L8.46446 11.1213C8.07394 11.5118 8.07394 12.145 8.46446 12.5355C8.84762 12.9186 9.46435 12.9259 9.85632 12.5572L9.87868 12.5355L11 11.4142V19.9534C11 20.5057 11.4477 20.9534 12 20.9534Z" fill="#1D2126"/>
</svg>
