<svg width="24" height="24" viewBox="0 0 24 24" fill="none" xmlns="http://www.w3.org/2000/svg">
<path fill-rule="evenodd" clip-rule="evenodd" d="M5.55468 4.16793C5.09516 3.86158 4.47429 3.98576 4.16793 4.44528C3.86158 4.90481 3.98576 5.52568 4.44528 5.83203L7.44528 7.83203C7.90481 8.13839 8.52568 8.01421 8.83203 7.55468C9.13839 7.09516 9.01421 6.47429 8.55468 6.16793L5.55468 4.16793ZM10.5 4C9.94772 4 9.5 4.44772 9.5 5C9.5 5.55228 9.94772 6 10.5 6H16V17.8827L12.6104 17.5061C12.0615 17.4451 11.5671 17.8407 11.5061 18.3896C11.4451 18.9385 11.8407 19.4329 12.3896 19.4939L16.8896 19.9939C17.1723 20.0253 17.455 19.9348 17.6669 19.7451C17.8789 19.5554 18 19.2844 18 19V6H20C20.5523 6 21 5.55228 21 5C21 4.44772 20.5523 4 20 4H10.5ZM3 9C2.44772 9 2 9.44772 2 10C2 10.5523 2.44772 11 3 11H5V18C5 19.6481 6.88153 20.5889 8.2 19.6L10.6 17.8C11.0418 17.4686 11.1314 16.8418 10.8 16.4C10.4686 15.9582 9.84183 15.8686 9.4 16.2L7 18V10C7 9.44772 6.55228 9 6 9H3Z" fill="black"/>
</svg>
