<svg width="24" height="24" viewBox="0 0 24 24" fill="none" xmlns="http://www.w3.org/2000/svg">
<path fill-rule="evenodd" clip-rule="evenodd" d="M6 11C6 8.97723 6.59135 7.21627 7.61364 5.98059C8.62011 4.76404 10.0869 4 12 4C13.9131 4 15.3799 4.76404 16.3864 5.98059C17.4087 7.21627 18 8.97723 18 11C18 11.6932 17.7743 12.5447 17.3483 13.509C16.927 14.4626 16.3383 15.4633 15.6804 16.4369C14.3862 18.3521 12.876 20.0865 12 21.0424C11.124 20.0865 9.61382 18.3521 8.31963 16.4369C7.66167 15.4633 7.07301 14.4626 6.65175 13.509C6.22574 12.5447 6 11.6932 6 11ZM12 2C9.49484 2 7.46161 3.02682 6.07265 4.7057C4.69952 6.36545 4 8.60449 4 11C4 12.086 4.3418 13.2295 4.82233 14.3172C5.3076 15.4157 5.96449 16.5238 6.66252 17.5567C8.05843 19.6224 9.67284 21.4661 10.5715 22.4438C11.3445 23.2848 12.6555 23.2848 13.4285 22.4438C14.3272 21.4661 15.9416 19.6224 17.3375 17.5567C18.0355 16.5238 18.6924 15.4157 19.1777 14.3172C19.6582 13.2295 20 12.086 20 11C20 8.60449 19.3005 6.36545 17.9274 4.7057C16.5384 3.02682 14.5052 2 12 2ZM11 10C11 9.44772 11.4477 9 12 9C12.5523 9 13 9.44772 13 10C13 10.5523 12.5523 11 12 11C11.4477 11 11 10.5523 11 10ZM12 7C10.3431 7 9 8.34315 9 10C9 11.6569 10.3431 13 12 13C13.6569 13 15 11.6569 15 10C15 8.34315 13.6569 7 12 7Z" fill="#1D2126"/>
</svg>
