<svg width="24" height="24" viewBox="0 0 24 24" fill="none" xmlns="http://www.w3.org/2000/svg">
<path fill-rule="evenodd" clip-rule="evenodd" d="M12 4.25C8.10823 4.25 4.65569 6.70312 1.65395 11.4669C1.44868 11.7927 1.44868 12.2073 1.65395 12.5331C4.65569 17.2969 8.10823 19.75 12 19.75C15.8918 19.75 19.3443 17.2969 22.346 12.5331C22.5513 12.2073 22.5513 11.7927 22.346 11.4669C19.3443 6.70312 15.8918 4.25 12 4.25ZM12.093 6.25061C15.0065 6.28911 17.7229 8.13748 20.252 11.9141L20.309 11.9999L20.252 12.0859C17.696 15.9027 14.9486 17.75 12 17.75L11.907 17.7494C8.99354 17.7109 6.2771 15.8625 3.74803 12.0859L3.69088 11.9999L3.74803 11.9141C6.30401 8.09731 9.05135 6.25 12 6.25L12.093 6.25061ZM12 8.5C10.067 8.5 8.5 10.067 8.5 12C8.5 13.933 10.067 15.5 12 15.5C13.933 15.5 15.5 13.933 15.5 12C15.5 10.067 13.933 8.5 12 8.5ZM12 10.5C12.8284 10.5 13.5 11.1716 13.5 12C13.5 12.8284 12.8284 13.5 12 13.5C11.1716 13.5 10.5 12.8284 10.5 12C10.5 11.1716 11.1716 10.5 12 10.5Z" fill="#1D2126"/>
</svg>
