<svg width="24" height="24" viewBox="0 0 24 24" fill="none" xmlns="http://www.w3.org/2000/svg">
<path fill-rule="evenodd" clip-rule="evenodd" d="M15.625 4.875C15.625 4.32272 15.1773 3.875 14.625 3.875H6L5.96064 3.87538C4.87424 3.89635 4 4.78358 4 5.875V17.875L4.00038 17.9144C4.02135 19.0008 4.90858 19.875 6 19.875H14.625L14.6561 19.8745C15.194 19.8581 15.625 19.4169 15.625 18.875C15.625 18.3227 15.1773 17.875 14.625 17.875H6V5.875H14.625L14.6561 5.87452C15.194 5.85807 15.625 5.41686 15.625 4.875ZM20.1808 11.1645C20.2677 11.255 20.3343 11.3578 20.3804 11.4672C20.4298 11.5842 20.4559 11.7086 20.4588 11.8334L20.459 11.8435C20.4608 11.9813 20.4346 12.113 20.3857 12.2332C20.3406 12.3444 20.2747 12.4491 20.1879 12.5414L20.1875 12.5418C20.1842 12.5453 20.1808 12.5488 20.1774 12.5523C20.1734 12.5565 20.1693 12.5607 20.1651 12.5648L17.3378 15.3922C16.9472 15.7827 16.3141 15.7827 15.9235 15.3922C15.5404 15.009 15.5332 14.3923 15.9019 14.0003L15.9235 13.9779L17.0126 12.8889L8.57003 12.9999C8.01779 13.0072 7.56423 12.5654 7.55697 12.0132C7.54984 11.4713 7.97498 11.0245 8.51259 11.001L8.54373 11.0001L17.0762 10.8879L15.9235 9.7353C15.5404 9.35215 15.5332 8.73542 15.9019 8.34345L15.9235 8.32109C16.3067 7.93793 16.9234 7.9307 17.3154 8.2994L17.3378 8.32109L20.1652 11.1485L20.1808 11.1645Z" fill="#1D2126"/>
</svg>
