<svg width="24" height="24" viewBox="0 0 24 24" fill="none" xmlns="http://www.w3.org/2000/svg">
<path fill-rule="evenodd" clip-rule="evenodd" d="M12 2C17.5228 2 22 6.47715 22 12C22 17.5228 17.5228 22 12 22C6.47715 22 2 17.5228 2 12C2 6.47715 6.47715 2 12 2ZM12 4C7.58172 4 4 7.58172 4 12C4 16.4183 7.58172 20 12 20C16.4183 20 20 16.4183 20 12C20 7.58172 16.4183 4 12 4ZM17.4936 9.58132C17.1242 9.17067 16.492 9.13715 16.0813 9.50645L10.9766 14.097L8.4841 11.4024L8.46033 11.3775C8.08282 10.9961 7.46795 10.9801 7.07096 11.3473C6.66553 11.7223 6.64087 12.355 7.0159 12.7604L10.1781 16.179L10.2021 16.2042C10.5759 16.5815 11.1829 16.6014 11.5808 16.2436L17.4187 10.9936L17.4439 10.9701C17.8306 10.598 17.8552 9.98342 17.4936 9.58132Z" fill="#1D2126"/>
</svg>
