<svg width="24" height="24" viewBox="0 0 24 24" fill="none" xmlns="http://www.w3.org/2000/svg">
<path fill-rule="evenodd" clip-rule="evenodd" d="M12 4C8.68629 4 6 6.68629 6 10C6 13.3137 8.68629 16 12 16C15.3137 16 18 13.3137 18 10C18 6.68629 15.3137 4 12 4ZM4 10C4 5.58172 7.58172 2 12 2C16.4183 2 20 5.58172 20 10C20 11.4109 19.6348 12.7364 18.9937 13.8873C18.9979 13.9243 19 13.9619 19 14V19.382C19 20.8687 17.4354 21.8357 16.1056 21.1708L12 19.118L7.89443 21.1708C6.56463 21.8357 5 20.8687 5 19.382V14C5 13.9619 5.00213 13.9243 5.00628 13.8873C4.36522 12.7364 4 11.4109 4 10ZM13.8201 17.792C15.0022 17.517 16.0837 16.9799 17 16.2454V19.382L13.8201 17.792ZM7 16.2454C7.91634 16.9799 8.99781 17.517 10.1799 17.792L7 19.382V16.2454ZM12.269 7.5451C12.159 7.32212 11.841 7.32213 11.731 7.5451L11.1881 8.64504C11.1444 8.73359 11.06 8.79496 10.9623 8.80916L9.7484 8.98554C9.50233 9.0213 9.40408 9.32369 9.58214 9.49725L10.4605 10.3534C10.5312 10.4224 10.5635 10.5217 10.5468 10.619L10.3394 11.8279C10.2974 12.073 10.5546 12.2599 10.7747 12.1442L11.8604 11.5734C11.9478 11.5274 12.0522 11.5274 12.1396 11.5734L13.2253 12.1442C13.4454 12.2599 13.7027 12.073 13.6606 11.8279L13.4533 10.619C13.4366 10.5217 13.4688 10.4224 13.5395 10.3534L14.4179 9.49725C14.596 9.32369 14.4977 9.0213 14.2516 8.98554L13.0378 8.80916C12.9401 8.79496 12.8556 8.73359 12.8119 8.64504L12.269 7.5451Z" fill="#1D2126"/>
</svg>
