<svg width="24" height="24" viewBox="0 0 24 24" fill="none" xmlns="http://www.w3.org/2000/svg">
<path fill-rule="evenodd" clip-rule="evenodd" d="M10.0625 1.875C6.99042 1.875 4.5 4.36542 4.5 7.4375C4.5 9.12833 5.25441 10.643 6.44499 11.6632C4.10904 12.8293 2.5 15.4068 2.5 18.375C2.5 18.9273 2.94772 19.375 3.5 19.375C4.05228 19.375 4.5 18.9273 4.5 18.375C4.5 15.3848 6.65098 13 9.25 13C9.33285 13 9.41335 12.9899 9.49033 12.9709C9.67844 12.9902 9.86932 13 10.0625 13C13.1346 13 15.625 10.5096 15.625 7.4375C15.625 4.36542 13.1346 1.875 10.0625 1.875ZM10.0625 3.875C12.03 3.875 13.625 5.46999 13.625 7.4375C13.625 9.40501 12.03 11 10.0625 11C8.09499 11 6.5 9.40501 6.5 7.4375C6.5 5.46999 8.09499 3.875 10.0625 3.875ZM14.125 14C13.5727 14 13.125 14.4477 13.125 15C13.125 15.5523 13.5727 16 14.125 16H20.5C21.0523 16 21.5 15.5523 21.5 15C21.5 14.4477 21.0523 14 20.5 14H14.125ZM13.125 19C13.125 18.4477 13.5727 18 14.125 18H20.5C21.0523 18 21.5 18.4477 21.5 19C21.5 19.5523 21.0523 20 20.5 20H14.125C13.5727 20 13.125 19.5523 13.125 19Z" fill="#1D2126"/>
</svg>
