<svg width="24" height="24" viewBox="0 0 24 24" fill="none" xmlns="http://www.w3.org/2000/svg">
<path fill-rule="evenodd" clip-rule="evenodd" d="M8.24344 7.81683L2.0823 8.71023L2.04821 8.71567C1.15742 8.87103 0.808968 9.97421 1.46344 10.6108L5.9215 14.947L4.86918 21.0699L4.86412 21.102C4.73524 21.9963 5.67982 22.6692 6.48939 22.2445L12 19.3537L17.5106 22.2445L17.5396 22.2592C18.3522 22.6579 19.2854 21.9694 19.1308 21.0699L18.0784 14.947L22.5366 10.6108L22.5609 10.5864C23.1901 9.93823 22.8222 8.84137 21.9177 8.71023L15.7564 7.81683L13.0013 2.24612C12.5917 1.41796 11.4083 1.41796 10.9987 2.24612L8.24344 7.81683Z" fill="#FFD630"/>
</svg>
