<svg width="24" height="24" viewBox="0 0 24 24" fill="none" xmlns="http://www.w3.org/2000/svg">
<path fill-rule="evenodd" clip-rule="evenodd" d="M19.3321 4.66789C18.9416 4.27737 18.3084 4.27737 17.9179 4.66789L12 10.5858L6.08211 4.66789L6.05685 4.6435C5.66475 4.27755 5.05011 4.28568 4.66789 4.66789C4.27737 5.05842 4.27737 5.69158 4.66789 6.08211L10.5858 12L4.66789 17.9179L4.6435 17.9431C4.27755 18.3353 4.28568 18.9499 4.66789 19.3321C5.05842 19.7226 5.69158 19.7226 6.08211 19.3321L12 13.4142L17.9179 19.3321L17.9431 19.3565C18.3353 19.7225 18.9499 19.7143 19.3321 19.3321C19.7226 18.9416 19.7226 18.3084 19.3321 17.9179L13.4142 12L19.3321 6.08211L19.3565 6.05685C19.7225 5.66475 19.7143 5.05011 19.3321 4.66789Z" fill="#1D2126"/>
</svg>
