<svg width="24" height="24" viewBox="0 0 24 24" fill="none" xmlns="http://www.w3.org/2000/svg">
<path fill-rule="evenodd" clip-rule="evenodd" d="M16.25 5.875C16.25 3.52779 14.3472 1.625 12 1.625C9.65279 1.625 7.75 3.52779 7.75 5.875C7.75 6.09615 7.76703 6.31458 7.80019 6.52877C7.63616 6.45121 7.46622 6.38357 7.29112 6.32668C5.05879 5.60135 2.66114 6.82302 1.93581 9.05535C1.21258 11.2812 2.4251 13.6715 4.64515 14.4043C4.56098 14.5007 4.48072 14.6012 4.40472 14.7058C3.02506 16.6048 3.44602 19.2626 5.34495 20.6422C7.24389 22.0219 9.90171 21.6009 11.2814 19.702C11.6359 19.214 11.876 18.6679 11.9985 18.0997C12.1235 18.6685 12.3652 19.2155 12.7186 19.702C14.0983 21.6009 16.7561 22.0219 18.655 20.6422C20.554 19.2626 20.9749 16.6048 19.5953 14.7058C19.5192 14.6011 19.4389 14.5006 19.3548 14.4043C21.5749 13.6715 22.7874 11.2812 22.0642 9.05535C21.3389 6.82302 18.9412 5.60135 16.7089 6.32668C16.5336 6.38364 16.3637 6.45128 16.2 6.5288C16.233 6.31426 16.25 6.09576 16.25 5.875ZM7.97665 12.375C7.97665 10.1659 9.76752 8.375 11.9767 8.375C14.1858 8.375 15.9767 10.1659 15.9767 12.375C15.9767 14.5841 14.1858 16.375 11.9767 16.375C9.76752 16.375 7.97665 14.5841 7.97665 12.375Z" fill="#FF6666"/>
</svg>
