<svg width="24" height="24" viewBox="0 0 24 24" fill="none" xmlns="http://www.w3.org/2000/svg">
<path fill-rule="evenodd" clip-rule="evenodd" d="M6.5 1.375H17.5C19.1569 1.375 20.5 2.71815 20.5 4.375V15.875C20.5 19.5339 17.5339 22.5 13.875 22.5H6.5C4.84315 22.5 3.5 21.1569 3.5 19.5V4.375C3.5 2.71815 4.84315 1.375 6.5 1.375ZM17.5 3.375H6.5C5.94772 3.375 5.5 3.82272 5.5 4.375V19.5C5.5 20.0523 5.94772 20.5 6.5 20.5H13.625V18.5C13.625 16.8597 14.9414 15.5269 16.5754 15.5004L16.625 15.5H18.5V4.375C18.5 3.82272 18.0523 3.375 17.5 3.375ZM18.2065 17.5H16.625C16.0831 17.5 15.6419 17.931 15.6255 18.4689L15.625 18.5V20.1575C16.8132 19.6714 17.7541 18.7052 18.2065 17.5ZM7.875 6.875C7.875 6.32272 8.32272 5.875 8.875 5.875H14.875C15.4273 5.875 15.875 6.32272 15.875 6.875C15.875 7.42728 15.4273 7.875 14.875 7.875H8.875C8.32272 7.875 7.875 7.42728 7.875 6.875ZM8.875 9.875C8.32272 9.875 7.875 10.3227 7.875 10.875C7.875 11.4273 8.32272 11.875 8.875 11.875H14.875C15.4273 11.875 15.875 11.4273 15.875 10.875C15.875 10.3227 15.4273 9.875 14.875 9.875H8.875ZM7.875 14.875C7.875 14.3227 8.32272 13.875 8.875 13.875H11.875C12.4273 13.875 12.875 14.3227 12.875 14.875C12.875 15.4273 12.4273 15.875 11.875 15.875H8.875C8.32272 15.875 7.875 15.4273 7.875 14.875Z" fill="#1D2126"/>
</svg>
