<svg width="24" height="24" viewBox="0 0 24 24" fill="none" xmlns="http://www.w3.org/2000/svg">
<path fill-rule="evenodd" clip-rule="evenodd" d="M14.0312 3.75C14.0312 3.19772 13.5835 2.75 13.0312 2.75H4.78125L4.74175 2.75038C3.63815 2.77143 2.75 3.67262 2.75 4.78125V19.2188L2.75038 19.2583C2.77143 20.3619 3.67262 21.25 4.78125 21.25H19.2188L19.2583 21.2496C20.3619 21.2286 21.25 20.3274 21.25 19.2188V10.9043L21.2495 10.8731C21.2331 10.3353 20.7919 9.9043 20.25 9.9043C19.6977 9.9043 19.25 10.352 19.25 10.9043V19.2188L19.2492 19.2259C19.2459 19.2397 19.2335 19.25 19.2188 19.25H4.78125L4.77408 19.2492C4.76028 19.2459 4.75 19.2335 4.75 19.2188V4.78125L4.75083 4.77408C4.75406 4.76028 4.76646 4.75 4.78125 4.75H13.0312L13.0624 4.74952C13.6003 4.73307 14.0312 4.29186 14.0312 3.75ZM20.4323 5.17325C20.8717 4.73391 20.8717 4.0216 20.4323 3.58226C19.993 3.14292 19.2807 3.14292 18.8414 3.58226L10.1261 12.2975C10.075 12.3486 10.029 12.4045 9.9886 12.4644C9.30502 13.4794 10.5142 14.696 11.5407 14.0299C11.6069 13.987 11.6685 13.9371 11.7242 13.8814L20.4323 5.17325Z" fill="#1D2126"/>
</svg>
