<svg width="24" height="24" viewBox="0 0 24 24" fill="none" xmlns="http://www.w3.org/2000/svg">
<path fill-rule="evenodd" clip-rule="evenodd" d="M19 12C19 8.13401 15.866 5 12 5C10.0932 5 8.36422 5.76183 7.10088 7H8C8.55228 7 9 7.44772 9 8C9 8.55228 8.55228 9 8 9H5C4.44772 9 4 8.55228 4 8V5C4 4.44772 4.44772 4 5 4C5.55228 4 6 4.44772 6 5V5.29184C7.59163 3.86743 9.69443 3 12 3C16.9706 3 21 7.02944 21 12C21 16.9706 16.9706 21 12 21C7.02944 21 3 16.9706 3 12C3 11.4477 3.44772 11 4 11C4.55229 11 5 11.4477 5 12C5 15.866 8.13401 19 12 19C15.866 19 19 15.866 19 12Z" fill="black"/>
</svg>
