<svg width="24" height="24" viewBox="0 0 24 24" fill="none" xmlns="http://www.w3.org/2000/svg">
<path fill-rule="evenodd" clip-rule="evenodd" d="M12 1C7.30558 1 3.5 4.80558 3.5 9.5C3.5 12.4028 4.95506 14.9657 7.1756 16.4992L7.93959 20.427L7.95072 20.4818C8.2091 21.7033 9.11581 22.6876 10.3156 23.0435C11.4149 23.3695 12.5851 23.3695 13.6844 23.0435C14.9021 22.6823 15.8179 21.6738 16.0604 20.427L16.8244 16.4992C19.0449 14.9657 20.5 12.4028 20.5 9.5C20.5 4.80558 16.6944 1 12 1ZM14.572 17.6039C13.7607 17.8612 12.8965 18 12 18C11.1035 18 10.2393 17.8612 9.42796 17.6039L9.76407 19.3319C9.84232 18.8696 10.2378 18.5152 10.7189 18.5005L10.75 18.5H13.25C13.745 18.5 14.156 18.8597 14.2359 19.3319L14.572 17.6039ZM9.9028 20.0451L9.89894 20.0253C10.0752 20.3102 10.3904 20.5 10.75 20.5H13.25L13.2811 20.4995C13.6277 20.4889 13.9299 20.302 14.1011 20.0253L14.0972 20.0451L14.0892 20.0836C13.978 20.5809 13.6061 20.9805 13.1156 21.126C12.3876 21.342 11.6124 21.342 10.8844 21.126C10.3813 20.9768 10.003 20.5602 9.9028 20.0451ZM12 3C15.5899 3 18.5 5.91015 18.5 9.5C18.5 13.0899 15.5899 16 12 16C8.41015 16 5.5 13.0899 5.5 9.5C5.5 5.91015 8.41015 3 12 3ZM13 6C13 5.44772 12.5523 5 12 5C9.51472 5 7.5 7.01472 7.5 9.5C7.5 10.0523 7.94772 10.5 8.5 10.5C9.05228 10.5 9.5 10.0523 9.5 9.5C9.5 8.11929 10.6193 7 12 7C12.5523 7 13 6.55228 13 6Z" fill="#1D2126"/>
</svg>
