<svg width="24" height="24" viewBox="0 0 24 24" fill="none" xmlns="http://www.w3.org/2000/svg">
<path fill-rule="evenodd" clip-rule="evenodd" d="M14.9064 18.5005C14.3685 18.5169 13.9375 18.9581 13.9375 19.5C13.9375 20.0523 14.3852 20.5 14.9375 20.5H19.4375L19.4686 20.4995C20.0065 20.4831 20.4375 20.0419 20.4375 19.5V15L20.437 14.9689C20.4206 14.431 19.9794 14 19.4375 14L19.4064 14.0005C18.8685 14.0169 18.4375 14.4581 18.4375 15V18.5H14.9375L14.9064 18.5005ZM9.09365 5.49952C9.63152 5.48307 10.0625 5.04186 10.0625 4.5C10.0625 3.94772 9.61479 3.5 9.0625 3.5H4.5625L4.53135 3.50048C3.99348 3.51693 3.5625 3.95814 3.5625 4.5V9L3.56298 9.03115C3.57943 9.56902 4.02064 10 4.5625 10L4.59365 9.99952C5.13152 9.98307 5.5625 9.54186 5.5625 9V5.5H9.0625L9.09365 5.49952ZM4.5 13.875C5.04186 13.875 5.48307 14.306 5.49952 14.8439L5.5 14.875V18.375H9C9.54186 18.375 9.98307 18.806 9.99952 19.3439L10 19.375C10 19.9169 9.56902 20.3581 9.03115 20.3745L9 20.375H4.5C3.95814 20.375 3.51693 19.944 3.50048 19.4061L3.5 19.375V14.875C3.5 14.3227 3.94772 13.875 4.5 13.875ZM18.5005 9.03115C18.5169 9.56902 18.9581 10 19.5 10C20.0523 10 20.5 9.55228 20.5 9V4.5L20.4995 4.46885C20.4831 3.93098 20.0419 3.5 19.5 3.5H15L14.9689 3.50048C14.431 3.51693 14 3.95814 14 4.5L14.0005 4.53115C14.0169 5.06902 14.4581 5.5 15 5.5H18.5V9L18.5005 9.03115Z" fill="#1D2126"/>
</svg>
