<svg width="24" height="24" viewBox="0 0 24 24" fill="none" xmlns="http://www.w3.org/2000/svg">
<path fill-rule="evenodd" clip-rule="evenodd" d="M12 2.5C16.8818 2.5 20.8558 6.38681 20.9962 11.2346L21 11.5V20C21 20.5523 20.5523 21 20 21C19.4872 21 19.0645 20.614 19.0067 20.1166L19 20V11.5C19 7.63401 15.866 4.5 12 4.5C8.21455 4.5 5.1309 7.50478 5.00406 11.2593L5 11.5V20C5 20.5523 4.55228 21 4 21C3.48716 21 3.06449 20.614 3.00673 20.1166L3 20V11.5C3 6.52944 7.02944 2.5 12 2.5ZM7 13C7.51284 13 7.93551 13.386 7.99327 13.8834L8 14V20C8 20.5523 7.55228 21 7 21C6.48716 21 6.06449 20.614 6.00673 20.1166L6 20V14C6 13.4477 6.44772 13 7 13ZM17.9933 13.8834C17.9355 13.386 17.5128 13 17 13C16.4477 13 16 13.4477 16 14V20L16.0067 20.1166C16.0645 20.614 16.4872 21 17 21C17.5523 21 18 20.5523 18 20V14L17.9933 13.8834Z" fill="#1D2126"/>
</svg>
