<svg width="24" height="24" viewBox="0 0 24 24" fill="none" xmlns="http://www.w3.org/2000/svg">
<path fill-rule="evenodd" clip-rule="evenodd" d="M18.5005 11.0311C18.5169 11.569 18.9581 12 19.5 12C20.0523 12 20.5 11.5523 20.5 11V4.5L20.4995 4.46885C20.4831 3.93098 20.0419 3.5 19.5 3.5H13L12.9689 3.50048C12.431 3.51693 12 3.95814 12 4.5L12.0005 4.53115C12.0169 5.06902 12.4581 5.5 13 5.5H18.5V11L18.5005 11.0311ZM5.49952 12.8439C5.48307 12.306 5.04186 11.875 4.5 11.875C3.94772 11.875 3.5 12.3227 3.5 12.875V19.375L3.50048 19.4061C3.51693 19.944 3.95814 20.375 4.5 20.375H11L11.0311 20.3745C11.569 20.3581 12 19.9169 12 19.375L11.9995 19.3439C11.9831 18.806 11.5419 18.375 11 18.375H5.5V12.875L5.49952 12.8439Z" fill="#1D2126"/>
</svg>
