<svg width="24" height="24" viewBox="0 0 24 24" fill="none" xmlns="http://www.w3.org/2000/svg">
<path fill-rule="evenodd" clip-rule="evenodd" d="M16.2943 8.49996H19.6036C19.7836 8.49996 19.9632 8.51616 20.1402 8.54835C21.7704 8.84474 22.8516 10.4065 22.5552 12.0366L21.2825 19.0366C21.0231 20.4631 19.7807 21.5 18.3308 21.5H5C3.34315 21.5 2 20.1568 2 18.5V11.5C2 9.84311 3.34315 8.49996 5 8.49996H9C9.73469 8.49996 10.4907 7.44676 11.0809 5.05353L11.1912 4.59246C11.5985 3.06496 13.118 2.09842 14.6843 2.39209C14.7506 2.40452 14.8164 2.41926 14.8817 2.43629C16.4301 2.84023 17.3579 4.42292 16.954 5.97134L16.2943 8.49996ZM13.1142 5.14643L13.0246 5.52433C12.2994 8.45986 11.1731 10.1793 9.5 10.4593V19.5H18.3308C18.8141 19.5 19.2283 19.1543 19.3147 18.6788L20.5874 11.6788C20.6862 11.1355 20.3258 10.6149 19.7825 10.5161C19.7234 10.5054 19.6636 10.5 19.6036 10.5H15C14.3452 10.5 13.8671 9.88112 14.0324 9.24754L15.0187 5.4665C15.1376 5.01086 14.8842 4.54564 14.4473 4.39299L14.3769 4.37153L14.3157 4.35784C13.7684 4.25521 13.2378 4.60345 13.1142 5.14643ZM7.5 19.5V10.5H5C4.44772 10.5 4 10.9477 4 11.5V18.5C4 19.0522 4.44772 19.5 5 19.5H7.5Z" fill="#1D2126"/>
</svg>
