<svg width="24" height="24" viewBox="0 0 24 24" fill="none" xmlns="http://www.w3.org/2000/svg">
<path fill-rule="evenodd" clip-rule="evenodd" d="M12.9995 3.71885C12.9831 3.18098 12.5419 2.75 12 2.75C11.4477 2.75 11 3.19772 11 3.75V12.2845L9.83211 11.1167L9.80975 11.095C9.41778 10.7263 8.80105 10.7335 8.41789 11.1167C8.02737 11.5072 8.02737 12.1404 8.41789 12.5309L11.2463 15.3593L11.2687 15.381C11.6607 15.7497 12.2774 15.7425 12.6605 15.3593L15.489 12.5309L15.5106 12.5085C15.8793 12.1165 15.8721 11.4998 15.489 11.1167L15.4666 11.095C15.0746 10.7263 14.4579 10.7335 14.0747 11.1167L13 12.1914V3.75L12.9995 3.71885ZM2.4375 10.0625C2.4375 9.51022 2.88522 9.0625 3.4375 9.0625C3.97936 9.0625 4.42057 9.49348 4.43702 10.0314L4.4375 10.0625L4.43753 18.5053C4.4817 18.535 4.55061 18.5576 4.63283 18.5618L4.66071 18.5625H19.3393C19.4338 18.5625 19.5134 18.5383 19.5625 18.5053L19.5625 10.0625C19.5625 9.52064 19.9935 9.07943 20.5314 9.06298L20.5625 9.0625C21.1044 9.0625 21.5456 9.49348 21.562 10.0314L21.5625 10.0625V18.5755C21.5625 19.7124 20.5496 20.543 19.3806 20.5622L19.3393 20.5625H4.66071C3.48821 20.5625 2.46163 19.7452 2.43792 18.6155L2.4375 18.5755V10.0625Z" fill="#FF8C00"/>
</svg>
