<svg width="24" height="24" viewBox="0 0 24 24" fill="none" xmlns="http://www.w3.org/2000/svg">
<path fill-rule="evenodd" clip-rule="evenodd" d="M13.6059 2.99258C13.9552 2.56478 14.5851 2.50114 15.0129 2.85043C17.9268 5.22957 19.625 8.58265 19.625 12.1857C19.625 15.7908 17.9248 19.1456 15.008 21.5249C14.58 21.874 13.9501 21.8101 13.601 21.3821C13.2519 20.9542 13.3158 20.3242 13.7438 19.9751C16.2088 17.9644 17.625 15.1699 17.625 12.1857C17.625 9.20313 16.2105 6.41021 13.748 4.39963C13.3202 4.05034 13.2566 3.42039 13.6059 2.99258ZM8.875 12.125C8.875 13.2296 7.97957 14.125 6.875 14.125C5.77043 14.125 4.875 13.2296 4.875 12.125C4.875 11.0205 5.77043 10.125 6.875 10.125C7.97957 10.125 8.875 11.0205 8.875 12.125ZM10.8004 5.79534C10.3422 5.48704 9.72077 5.60858 9.41247 6.0668C9.10416 6.52502 9.2257 7.14642 9.68392 7.45472C11.3779 8.59444 12.375 10.3279 12.375 12.19C12.375 14.0497 11.3805 15.7811 9.69038 16.921C9.2325 17.2298 9.11165 17.8513 9.42046 18.3092C9.72927 18.7671 10.3508 18.8879 10.8087 18.5791C13.0311 17.0802 14.375 14.7405 14.375 12.19C14.375 9.63619 13.0276 7.29388 10.8004 5.79534Z" fill="#1D2126"/>
</svg>
