<svg width="24" height="24" viewBox="0 0 24 24" fill="none" xmlns="http://www.w3.org/2000/svg">
<path fill-rule="evenodd" clip-rule="evenodd" d="M12 2C17.5228 2 22 6.47715 22 12C22 17.5228 17.5228 22 12 22C6.47715 22 2 17.5228 2 12C2 6.47715 6.47715 2 12 2ZM12 4C7.58172 4 4 7.58172 4 12C4 16.4183 7.58172 20 12 20C16.4183 20 20 16.4183 20 12C20 7.58172 16.4183 4 12 4ZM17.0626 7.00479H10.4378L10.3129 7.01038C10.1512 7.02535 10.0093 7.07058 9.88953 7.14875C9.70204 7.27111 9.61782 7.48406 9.61782 7.75851C9.61782 8.00143 9.70002 8.20258 9.86814 8.33971C9.99145 8.4403 10.1417 8.49961 10.3129 8.51848L10.4246 8.5248L12.999 8.52499V13.294L10.1845 13.2949L10.0596 13.3005C9.89787 13.3154 9.75598 13.3607 9.63619 13.4388C9.4487 13.5612 9.36448 13.7741 9.36448 14.0486C9.36448 14.2915 9.44668 14.4926 9.6148 14.6298C9.73811 14.7304 9.88835 14.7897 10.0596 14.8086L10.1713 14.8149L12.999 14.815L12.9999 18.2075L13.0057 18.3299C13.0251 18.5268 13.0937 18.6878 13.2193 18.8042C13.3601 18.9347 13.5394 19 13.7439 19C13.9576 19 14.1408 18.9345 14.2791 18.8002C14.3961 18.6865 14.4614 18.5303 14.4812 18.3411L14.4876 18.2199L14.487 14.815L17.4427 14.8152L17.5736 14.8078C17.7428 14.788 17.89 14.7284 18.0099 14.6266C18.1717 14.489 18.25 14.2895 18.25 14.0486C18.25 13.7758 18.1699 13.5647 17.9885 13.4414C17.8769 13.3655 17.7434 13.3202 17.5911 13.3029L17.4561 13.2952L15.856 13.294L15.9264 13.2508C16.0745 13.139 16.1897 12.9544 16.2836 12.7021C16.3172 12.6165 16.3493 12.5336 16.3799 12.4535L16.5446 12.0075C16.6174 11.8022 16.6859 11.5969 16.7502 11.3915C16.8145 11.1861 16.8787 10.9657 16.9428 10.7303L16.9921 10.5458L17.1538 9.89599C17.2318 9.5681 17.242 9.3129 17.1706 9.11881C17.0917 8.90425 16.9275 8.75773 16.7001 8.69333C16.4644 8.63316 16.2592 8.64926 16.0898 8.7529C15.9122 8.8616 15.7998 9.08226 15.7178 9.4168L15.5347 10.1379C15.4809 10.3488 15.423 10.5533 15.361 10.7514C15.2986 10.9508 15.2299 11.1568 15.1549 11.3692C15.0804 11.5803 14.989 11.8175 14.8807 12.0807C14.7802 12.347 14.7419 12.5783 14.7691 12.7834C14.8001 13.0176 14.9273 13.1968 15.1341 13.2956L14.487 13.294V8.52499L17.0626 8.52515L17.1936 8.51775C17.3628 8.49797 17.51 8.43833 17.6299 8.3365C17.7917 8.19897 17.87 7.99945 17.87 7.75851C17.87 7.48573 17.7898 7.27462 17.6085 7.15136C17.4969 7.07546 17.3634 7.03009 17.2111 7.01284L17.0626 7.00479ZM8.91696 10.4233C8.69589 10.2179 8.38279 10.1293 7.99043 10.1455L7.83512 10.157L6.51202 10.2866L6.38659 10.3012C6.18628 10.3323 6.02992 10.3978 5.92092 10.5089C5.78238 10.6502 5.73181 10.8461 5.75573 11.0778C5.77769 11.3244 5.85204 11.5139 5.99838 11.6333C6.12746 11.7386 6.30857 11.7738 6.54616 11.7628L6.66973 11.7534L7.778 11.63L7.45224 16.9652L7.44637 17.1249C7.44606 17.3322 7.47603 17.5169 7.5383 17.6778C7.61952 17.8876 7.74209 18.0504 7.90673 18.1583C8.03469 18.2422 8.17842 18.2865 8.33267 18.29L8.46457 18.2827L8.59149 18.258C8.75826 18.216 8.91615 18.1374 9.07571 18.0235C9.3551 17.8188 9.60655 17.6154 9.8326 17.4115C10.0572 17.2089 10.2815 16.989 10.5056 16.7518C10.711 16.5424 10.8268 16.3379 10.8334 16.1295C10.8403 15.9108 10.7329 15.7151 10.5353 15.5491C10.1782 15.2629 9.78484 15.3459 9.45077 15.732L9.33418 15.8625L9.20961 15.9915L9.07692 16.1193L8.962 16.222L9.24335 11.5838L9.24822 11.4114C9.24824 10.9658 9.14392 10.6342 8.91696 10.4233ZM11.1917 8.62435C11.0211 8.54283 10.8408 8.53159 10.6636 8.5886L10.5626 8.62866L10.4706 8.6773C10.2969 8.78354 10.1877 8.94296 10.1587 9.14358C10.1306 9.33895 10.1734 9.57518 10.2795 9.86057L10.5338 10.5346C10.6077 10.7272 10.6733 10.9176 10.7307 11.1057C10.7889 11.2965 10.8451 11.4937 10.8992 11.6975C10.9173 11.7656 10.9357 11.8361 10.9542 11.909L11.1045 12.5192C11.1808 12.7933 11.2849 12.9863 11.4335 13.0986C11.6159 13.2363 11.8404 13.2636 12.0817 13.1898C12.35 13.1186 12.5369 12.9604 12.5886 12.719C12.628 12.5354 12.6056 12.302 12.5291 12.0092L12.4111 11.5195L12.3513 11.2906C12.291 11.0668 12.2264 10.8495 12.1575 10.6386C12.0895 10.4305 12.0172 10.2161 11.9408 9.99515L11.8594 9.76584C11.8023 9.6087 11.7396 9.44302 11.6713 9.26879C11.5515 8.94287 11.3989 8.72339 11.1917 8.62435ZM7.95807 6.811C7.75253 6.62236 7.55512 6.51463 7.35718 6.50161C7.15016 6.48799 6.96737 6.56108 6.83116 6.71386C6.49343 7.09385 6.52077 7.51194 6.90486 7.84425C7.21657 8.12875 7.50154 8.4066 7.75483 8.67333L8.2538 9.20497L8.49272 9.46431C8.86516 9.86642 9.27189 9.94936 9.60849 9.63255C9.80224 9.44663 9.90346 9.24987 9.88925 9.0397C9.87613 8.84574 9.76533 8.65085 9.56939 8.44055L9.36074 8.2056C9.216 8.04555 9.06025 7.87898 8.89511 7.7077C8.84526 7.65599 8.79288 7.60267 8.73799 7.54774L8.37835 7.19879C8.24837 7.07601 8.10828 6.94676 7.95807 6.811Z" fill="#1D2126"/>
</svg>
