<svg width="24" height="24" viewBox="0 0 24 24" fill="none" xmlns="http://www.w3.org/2000/svg">
<path fill-rule="evenodd" clip-rule="evenodd" d="M14.9995 3.46885C14.9831 2.93098 14.5419 2.5 14 2.5C13.4477 2.5 13 2.94772 13 3.5V10L13.0005 10.0311C13.0169 10.569 13.4581 11 14 11H20.5L20.5311 10.9995C21.069 10.9831 21.5 10.5419 21.5 10L21.4995 9.96885C21.4831 9.43098 21.0419 9 20.5 9H15V3.5L14.9995 3.46885ZM9.00048 20.5311C9.01693 21.069 9.45814 21.5 10 21.5C10.5523 21.5 11 21.0523 11 20.5V14L10.9995 13.9689C10.9831 13.431 10.5419 13 10 13H3.5L3.46885 13.0005C2.93098 13.0169 2.5 13.4581 2.5 14L2.50048 14.0311C2.51693 14.569 2.95814 15 3.5 15H9V20.5L9.00048 20.5311Z" fill="#1D2126"/>
</svg>
