<svg width="24" height="24" viewBox="0 0 24 24" fill="none" xmlns="http://www.w3.org/2000/svg">
<path fill-rule="evenodd" clip-rule="evenodd" d="M18.75 4.5C19.5784 4.5 20.25 5.17157 20.25 6V18C20.25 18.8284 19.5784 19.5 18.75 19.5C17.9216 19.5 17.25 18.8284 17.25 18V6C17.25 5.17157 17.9216 4.5 18.75 4.5ZM4.2 6.15C4.91169 5.20107 6.22905 4.97437 7.21196 5.60419L7.35 5.7L13.35 10.2C13.5206 10.3279 13.6721 10.4794 13.8 10.65C14.5117 11.5989 14.3605 12.9271 13.4806 13.6943L13.35 13.8L7.35 18.3C6.96053 18.5921 6.48683 18.75 6 18.75C4.80914 18.75 3.83436 17.8248 3.75519 16.654L3.75 16.5V7.5C3.75 7.01317 3.9079 6.53947 4.2 6.15Z" fill="#1D2126"/>
</svg>
