<svg width="24" height="24" viewBox="0 0 24 24" fill="none" xmlns="http://www.w3.org/2000/svg">
<path fill-rule="evenodd" clip-rule="evenodd" d="M5 4C3.34315 4 2 5.34315 2 7V17C2 18.6569 3.34315 20 5 20H19C20.6569 20 22 18.6569 22 17V7C22 5.34315 20.6569 4 19 4H5ZM4 7C4 6.44772 4.44772 6 5 6H19C19.5523 6 20 6.44772 20 7V17C20 17.5523 19.5523 18 19 18H5C4.44772 18 4 17.5523 4 17V7ZM15.1455 13.6379L11.9483 15.7694C11.6198 15.9884 11.2337 16.1053 10.8389 16.1053C9.73432 16.1053 8.83889 15.2099 8.83889 14.1053V9.84234C8.83889 9.44749 8.95576 9.06148 9.17479 8.73294C9.78749 7.81388 11.0292 7.56554 11.9483 8.17824L15.1455 10.3097C15.3652 10.4562 15.5537 10.6447 15.7002 10.8644C16.3129 11.7835 16.0646 13.0252 15.1455 13.6379ZM10.8389 14.1053L14.0361 11.9738L10.8389 9.84234V14.1053Z" fill="#1D2126"/>
</svg>
