<svg width="24" height="24" viewBox="0 0 24 24" fill="none" xmlns="http://www.w3.org/2000/svg">
<path fill-rule="evenodd" clip-rule="evenodd" d="M19.9206 21.2098C20.3126 21.5988 20.9457 21.5964 21.3348 21.2044C21.7155 20.8208 21.7214 20.2061 21.3539 19.8154L21.3294 19.7902L18.5935 17.0749C19.9137 15.9246 21.1648 14.4078 22.346 12.5331C22.5513 12.2073 22.5513 11.7927 22.346 11.4669C19.3443 6.70312 15.8918 4.25 12 4.25C10.2821 4.25 8.64975 4.728 7.104 5.67175L4.70443 3.29023C4.31244 2.90118 3.67928 2.90357 3.29023 3.29557C2.90946 3.67922 2.90365 4.29389 3.27107 4.68461L3.29557 4.70977L5.47118 6.86903C4.12715 8.02596 2.8545 9.56162 1.65395 11.4669C1.44868 11.7927 1.44868 12.2073 1.65395 12.5331C4.65569 17.2969 8.10823 19.75 12 19.75C13.7457 19.75 15.4029 19.2564 16.9708 18.2822L19.9206 21.2098ZM17.1706 15.6627C18.2273 14.7657 19.2542 13.5759 20.252 12.0859L20.309 11.9999L20.252 11.9141C17.7229 8.13748 15.0065 6.28911 12.093 6.25061L12 6.25C10.8275 6.25 9.68679 6.5421 8.57731 7.13398L10.3626 8.90585C10.8512 8.64676 11.4084 8.5 12 8.5C13.933 8.5 15.5 10.067 15.5 12C15.5 12.5821 15.3579 13.1311 15.1064 13.614L17.1706 15.6627ZM6.89497 8.28211L8.9357 10.3075C8.65806 10.8091 8.5 11.3861 8.5 12C8.5 13.933 10.067 15.5 12 15.5C12.6233 15.5 13.2086 15.337 13.7156 15.0514L15.5012 16.8236C14.367 17.4439 13.2002 17.75 12 17.75L11.907 17.7494C8.99354 17.7109 6.2771 15.8625 3.74803 12.0859L3.69088 11.9999L3.74803 11.9141C4.76642 10.3933 5.81519 9.18526 6.89497 8.28211ZM13.5 12L13.4999 12.0195L11.9691 10.5003C11.9794 10.5001 11.9897 10.5 12 10.5C12.8284 10.5 13.5 11.1716 13.5 12ZM10.5 12C10.5 11.9548 10.502 11.9101 10.5059 11.8659L12.1454 13.493C12.0975 13.4976 12.049 13.5 12 13.5C11.1716 13.5 10.5 12.8284 10.5 12Z" fill="#1D2126"/>
</svg>
