<svg width="24" height="24" viewBox="0 0 24 24" fill="none" xmlns="http://www.w3.org/2000/svg">
<path fill-rule="evenodd" clip-rule="evenodd" d="M9.54844 2.81303C10.1012 2.01894 11.0087 1.5178 12.0088 1.50046L12.0625 1.5C13.1032 1.5 14.0485 2.02418 14.6071 2.85774L14.616 2.87112L14.6344 2.87673C18.118 3.95024 20.5734 7.16526 20.6242 10.8825L20.625 11V16.5C20.625 16.8852 20.5524 17.2534 20.4202 17.5917L18.625 15.7966V11C18.625 7.99963 16.5747 5.40926 13.7048 4.69313C13.4065 4.61869 13.159 4.41116 13.0337 4.13038L13.0182 4.09716C12.8417 3.73546 12.4738 3.5 12.0625 3.5C11.6456 3.5 11.2729 3.74186 11.0992 4.11309L11.083 4.14619C10.9485 4.40805 10.7049 4.59798 10.4167 4.66399C9.67075 4.83487 8.9777 5.13212 8.35903 5.5306L6.91991 4.09149C7.69401 3.53529 8.5683 3.10473 9.51545 2.83194L9.54025 2.82487L9.54844 2.81303ZM14.6716 17.5L16.6716 19.5H15.1244C15.0911 21.1625 13.733 22.5 12.0625 22.5C10.392 22.5 9.03391 21.1625 9.00063 19.5H6.375C4.71815 19.5 3.375 18.1569 3.375 16.5V11C3.375 9.61564 3.70854 8.29889 4.30467 7.1331L5.81602 8.64444C5.53065 9.37788 5.375 10.1732 5.375 11V16.5C5.375 17.0523 5.82272 17.5 6.375 17.5H14.6716ZM11.0018 19.5C11.0342 20.0577 11.4967 20.5 12.0625 20.5C12.6283 20.5 13.0908 20.0577 13.1232 19.5H11.0018ZM4.24435 2.831C3.85225 2.46505 3.23761 2.47318 2.85539 2.85539C2.46487 3.24592 2.46487 3.87908 2.85539 4.26961L19.6679 21.0821L19.6931 21.1065C20.0853 21.4725 20.6999 21.4643 21.0821 21.0821C21.4726 20.6916 21.4726 20.0584 21.0821 19.6679L4.26961 2.85539L4.24435 2.831Z" fill="#1D2126"/>
</svg>
