<svg width="24" height="24" viewBox="0 0 24 24" fill="none" xmlns="http://www.w3.org/2000/svg">
<path fill-rule="evenodd" clip-rule="evenodd" d="M12.9995 5.09385C12.9831 4.55598 12.5419 4.125 12 4.125C11.4477 4.125 11 4.57272 11 5.125V11H5.125L5.09385 11.0005C4.55598 11.0169 4.125 11.4581 4.125 12C4.125 12.5523 4.57272 13 5.125 13H11V18.875L11.0005 18.9061C11.0169 19.444 11.4581 19.875 12 19.875C12.5523 19.875 13 19.4273 13 18.875V13H18.875L18.9061 12.9995C19.444 12.9831 19.875 12.5419 19.875 12C19.875 11.4477 19.4273 11 18.875 11H13V5.125L12.9995 5.09385Z" fill="#1D2126"/>
</svg>
