<svg width="24" height="24" viewBox="0 0 24 24" fill="none" xmlns="http://www.w3.org/2000/svg">
<path fill-rule="evenodd" clip-rule="evenodd" d="M2.51889 6.30287C1.68405 4.87172 2.16746 3.03477 3.59862 2.19992C4.47324 1.68973 5.54621 1.65515 6.45187 2.10798L20.8695 9.31677C22.3514 10.0577 22.9521 11.8598 22.2111 13.3417C21.9208 13.9223 21.45 14.393 20.8695 14.6833L6.45187 21.8921C4.96993 22.6331 3.16792 22.0324 2.42695 20.5505C1.97412 19.6448 2.0087 18.5719 2.51889 17.6972L5.54832 12.5039C5.72995 12.1926 5.72995 11.8075 5.54832 11.4962L2.51889 6.30287ZM19.975 11.1056L5.55744 3.89683C5.25556 3.74589 4.8979 3.75742 4.60636 3.92748C4.12931 4.20576 3.96817 4.81808 4.24645 5.29513L7.27588 10.4884C7.37183 10.6529 7.45089 10.8243 7.51305 11.0001H12C12.5522 11.0001 13 11.4478 13 12.0001C13 12.5419 12.569 12.9831 12.0311 12.9996L12 13.0001H7.51305C7.45089 13.1758 7.37183 13.3472 7.27588 13.5117L4.24645 18.705C4.07639 18.9965 4.06486 19.3542 4.2158 19.6561C4.46279 20.15 5.06346 20.3503 5.55744 20.1033L19.975 12.8945C20.1686 12.7977 20.3255 12.6408 20.4222 12.4473C20.6692 11.9533 20.469 11.3526 19.975 11.1056Z" fill="#1D2126"/>
</svg>
