<svg width="24" height="24" viewBox="0 0 24 24" fill="none" xmlns="http://www.w3.org/2000/svg">
<path fill-rule="evenodd" clip-rule="evenodd" d="M2 7C2 5.34315 3.34315 4 5 4H19C20.6569 4 22 5.34315 22 7V17C22 18.6569 20.6569 20 19 20H5C3.34315 20 2 18.6569 2 17V7ZM5 6C4.44772 6 4 6.44772 4 7V16.3992L6.00817 13.889C7.02041 12.6237 8.85448 12.3909 10.1508 13.3631L11.2123 14.1592C11.6104 14.4578 12.1675 14.4182 12.5194 14.0664L14.8787 11.7071C16.0503 10.5355 17.9497 10.5355 19.1213 11.7071L20 12.5858V7C20 6.44772 19.5523 6 19 6H5ZM20 15.4142L17.7071 13.1213C17.3166 12.7308 16.6834 12.7308 16.2929 13.1213L13.9336 15.4806C12.878 16.5362 11.2067 16.655 10.0123 15.7592L8.95078 14.9631C8.51868 14.639 7.90732 14.7166 7.56991 15.1384L5.28062 18H19C19.5523 18 20 17.5523 20 17V15.4142ZM12 9.5C12 10.3284 11.3284 11 10.5 11C9.67157 11 9 10.3284 9 9.5C9 8.67157 9.67157 8 10.5 8C11.3284 8 12 8.67157 12 9.5Z" fill="#1D2126"/>
</svg>
