<svg width="24" height="24" viewBox="0 0 24 24" fill="none" xmlns="http://www.w3.org/2000/svg">
<path fill-rule="evenodd" clip-rule="evenodd" d="M9.7621 5.2097C10.1544 4.90468 10.7216 4.93241 11.0821 5.29289L11.1653 5.3871C11.4703 5.77939 11.4426 6.34662 11.0821 6.70711L5.78914 12L11.0821 17.2929L11.1653 17.3871C11.4703 17.7794 11.4426 18.3466 11.0821 18.7071C10.6916 19.0976 10.0584 19.0976 9.66789 18.7071L3.66789 12.7071L3.5847 12.6129C3.27968 12.2206 3.30741 11.6534 3.66789 11.2929L9.66789 5.29289L9.7621 5.2097ZM19.038 5.2097C19.4302 4.90468 19.9975 4.93241 20.358 5.29289L20.4412 5.3871C20.7462 5.77939 20.7184 6.34662 20.358 6.70711L15.065 12L20.358 17.2929L20.4412 17.3871C20.7462 17.7794 20.7184 18.3466 20.358 18.7071C19.9674 19.0976 19.3343 19.0976 18.9437 18.7071L12.9437 12.7071L12.8606 12.6129C12.5555 12.2206 12.5833 11.6534 12.9437 11.2929L18.9437 5.29289L19.038 5.2097Z" fill="#1D2126"/>
</svg>
