<svg width="24" height="24" viewBox="0 0 24 24" fill="none" xmlns="http://www.w3.org/2000/svg">
<path fill-rule="evenodd" clip-rule="evenodd" d="M4.5 8.5C4.5 5.46243 6.96243 3 10 3C11.3056 3 12.5049 3.45491 13.4482 4.21488C13.4947 4.17697 13.5454 4.14273 13.5999 4.11284C14.3299 3.71283 15.1507 3.5 16 3.5C18.7614 3.5 21 5.73858 21 8.5C21 10.0783 20.2619 11.5171 19.0754 12.4433L18.881 12.587L19.0418 12.7149C19.1258 12.7848 19.2091 12.8574 19.2917 12.9327L19.5373 13.1674C21.0849 14.7139 22 16.9612 22 20C22 20.5523 21.5523 21 21 21C20.4477 21 20 20.5523 20 20C20 17.4875 19.2927 15.7503 18.1236 14.5821C17.7109 14.1697 17.2729 13.8621 16.8221 13.6289C16.7274 13.5799 16.6467 13.5412 16.5556 13.5004L16.1855 13.3379L16.1406 13.3084L16.0169 13.1978L15.8617 13.0506L15.7653 12.876C15.6302 12.6186 15.6238 12.5041 15.7709 12.1468L15.9454 11.7492L16.2137 11.5691C16.2981 11.5149 16.3449 11.4905 16.3898 11.4772L16.4601 11.4633C16.4731 11.4616 16.4871 11.46 16.5026 11.4582L16.5026 11.4582C16.6843 11.4277 16.8618 11.3805 17.0334 11.3176C18.2049 10.8877 19 9.7689 19 8.5C19 6.84315 17.6569 5.5 16 5.5C15.5692 5.5 15.153 5.59033 14.7712 5.76211C15.2348 6.56835 15.5 7.50321 15.5 8.5C15.5 10.1522 14.7714 11.6343 13.6181 12.6425C16.4198 13.7753 18 16.3572 18 20C18 20.5523 17.5523 21 17 21C16.4477 21 16 20.5523 16 20C16 16.102 13.9159 14 10 14C6.08406 14 4 16.102 4 20C4 20.5523 3.55228 21 3 21C2.44772 21 2 20.5523 2 20C2 16.3572 3.58022 13.7753 6.38193 12.6425C5.22855 11.6343 4.5 10.1522 4.5 8.5ZM10 12C11.933 12 13.5 10.433 13.5 8.5C13.5 6.567 11.933 5 10 5C8.067 5 6.5 6.567 6.5 8.5C6.5 10.433 8.067 12 10 12Z" fill="#1D2126"/>
</svg>
