<svg width="24" height="24" viewBox="0 0 24 24" fill="none" xmlns="http://www.w3.org/2000/svg">
<path fill-rule="evenodd" clip-rule="evenodd" d="M8.5 2.5C7.94772 2.5 7.5 2.94772 7.5 3.5V5.00011L6.64366 5.00012L6.50258 5.00131C5.46562 5.01496 4.89795 5.13625 4.30734 5.4521C3.72567 5.76319 3.26319 6.22567 2.9521 6.80734C2.61641 7.43503 2.5 8.03787 2.5 9.20486V17.2951L2.50061 17.4381C2.51008 18.5124 2.6304 19.0911 2.9521 19.6927C3.26319 20.2743 3.72567 20.7368 4.30734 21.0479C4.93503 21.3836 5.53787 21.5 6.70486 21.5H17.2951L17.4381 21.4994C18.5124 21.4899 19.0911 21.3696 19.6927 21.0479C20.2743 20.7368 20.7368 20.2743 21.0479 19.6927C21.3836 19.065 21.5 18.4621 21.5 17.2951V9.20486L21.4994 9.06188C21.4899 7.98759 21.3696 7.40887 21.0479 6.80734C20.7368 6.22567 20.2743 5.76319 19.6927 5.4521C19.065 5.11641 18.4621 5 17.2951 5L16.5 5.00001V3.5C16.5 2.94772 16.0523 2.5 15.5 2.5C14.9477 2.5 14.5 2.94772 14.5 3.5V5.00003L9.5 5.00009V3.5C9.5 2.94772 9.05228 2.5 8.5 2.5ZM14.5 7.00003L9.5 7.00008V7.5C9.5 8.05228 9.05228 8.5 8.5 8.5C7.94772 8.5 7.5 8.05228 7.5 7.5V7.0001L6.64762 7.00011C5.86083 7.00321 5.56923 7.05437 5.28954 7.19545L5.25054 7.21573C5.0174 7.34041 4.84041 7.5174 4.71573 7.75054C4.55618 8.04887 4.5 8.3398 4.5 9.20486L4.50008 17.3496C4.50233 18.136 4.55461 18.4311 4.69549 18.7105L4.71573 18.7495C4.84041 18.9826 5.0174 19.1596 5.25054 19.2843C5.54887 19.4438 5.8398 19.5 6.70486 19.5L17.3496 19.4999C18.1368 19.4977 18.4317 19.4453 18.7114 19.3041L18.7495 19.2843C18.9826 19.1596 19.1596 18.9826 19.2843 18.7495C19.4438 18.4511 19.5 18.1602 19.5 17.2951L19.4999 9.15041C19.4977 8.3632 19.4453 8.06831 19.3041 7.78863L19.2843 7.75054C19.1596 7.5174 18.9826 7.34041 18.7495 7.21573C18.4511 7.05618 18.1602 7 17.2952 7L16.5 7.00001V7.5C16.5 8.05228 16.0523 8.5 15.5 8.5C14.9477 8.5 14.5 8.05228 14.5 7.5V7.00003ZM7 12C7 11.4477 7.44772 11 8 11H16C16.5523 11 17 11.4477 17 12C17 12.5523 16.5523 13 16 13H8C7.44772 13 7 12.5523 7 12Z" fill="#1D2126"/>
</svg>
