<svg width="24" height="24" viewBox="0 0 24 24" fill="none" xmlns="http://www.w3.org/2000/svg">
<path fill-rule="evenodd" clip-rule="evenodd" d="M20.9988 11.472C20.9171 6.43395 16.8075 2.375 11.75 2.375C6.64137 2.375 2.5 6.51637 2.5 11.625C2.5 16.7336 6.64137 20.875 11.75 20.875H19L19.0394 20.8746C20.1258 20.8537 21 19.9664 21 18.875V11.625L20.9988 11.472ZM4.5 11.625C4.5 7.62094 7.74594 4.375 11.75 4.375C15.7541 4.375 19 7.62094 19 11.625V18.875H11.75L11.6301 18.874C7.68134 18.81 4.5 15.589 4.5 11.625ZM14.75 9.0625C15.3023 9.0625 15.75 9.51022 15.75 10.0625C15.75 10.6044 15.319 11.0456 14.7811 11.062L14.75 11.0625H8.75C8.19772 11.0625 7.75 10.6148 7.75 10.0625C7.75 9.52064 8.18098 9.07943 8.71885 9.06298L8.75 9.0625H14.75ZM14.75 14.0625C14.75 13.5102 14.3023 13.0625 13.75 13.0625H9.75L9.71885 13.063C9.18098 13.0794 8.75 13.5206 8.75 14.0625C8.75 14.6148 9.19772 15.0625 9.75 15.0625H13.75L13.7811 15.062C14.319 15.0456 14.75 14.6044 14.75 14.0625Z" fill="#1D2126"/>
</svg>
