<svg width="24" height="24" viewBox="0 0 24 24" fill="none" xmlns="http://www.w3.org/2000/svg">
<path fill-rule="evenodd" clip-rule="evenodd" d="M17.25 3.75H6.75C5.09315 3.75 3.75 5.09315 3.75 6.75V17.25C3.75 18.9069 5.09315 20.25 6.75 20.25H17.25C18.9069 20.25 20.25 18.9069 20.25 17.25V6.75C20.25 5.09315 18.9069 3.75 17.25 3.75ZM6.75 5.75H17.25C17.8023 5.75 18.25 6.19772 18.25 6.75V17.25C18.25 17.8023 17.8023 18.25 17.25 18.25H6.75C6.19772 18.25 5.75 17.8023 5.75 17.25V6.75C5.75 6.19772 6.19772 5.75 6.75 5.75Z" fill="#1D2126"/>
</svg>
