<svg width="24" height="24" viewBox="0 0 24 24" fill="none" xmlns="http://www.w3.org/2000/svg">
<path fill-rule="evenodd" clip-rule="evenodd" d="M11.5625 1.875C8.49042 1.875 6 4.36542 6 7.4375C6 9.12833 6.75441 10.643 7.94499 11.6632C5.60904 12.8293 4 15.4068 4 18.375C4 18.9273 4.44772 19.375 5 19.375C5.55228 19.375 6 18.9273 6 18.375C6 15.3848 8.15098 13 10.75 13C10.8329 13 10.9133 12.9899 10.9903 12.9709C11.1784 12.9902 11.3693 13 11.5625 13C14.6346 13 17.125 10.5096 17.125 7.4375C17.125 4.36542 14.6346 1.875 11.5625 1.875ZM11.5625 3.875C13.53 3.875 15.125 5.46999 15.125 7.4375C15.125 9.40501 13.53 11 11.5625 11C9.59499 11 8 9.40501 8 7.4375C8 5.46999 9.59499 3.875 11.5625 3.875ZM19.2929 13.2929C19.6834 12.9024 20.3166 12.9024 20.7071 13.2929C21.0676 13.6534 21.0953 14.2206 20.7903 14.6129L20.7071 14.7071L18.9142 16.5L20.7071 18.2929C21.0976 18.6834 21.0976 19.3166 20.7071 19.7071C20.3466 20.0676 19.7794 20.0953 19.3871 19.7903L19.2929 19.7071L17.5 17.9142L15.7071 19.7071C15.3166 20.0976 14.6834 20.0976 14.2929 19.7071C13.9324 19.3466 13.9047 18.7794 14.2097 18.3871L14.2929 18.2929L16.0858 16.5L14.2929 14.7071C13.9024 14.3166 13.9024 13.6834 14.2929 13.2929C14.6534 12.9324 15.2206 12.9047 15.6129 13.2097L15.7071 13.2929L17.5 15.0858L19.2929 13.2929Z" fill="#1D2126"/>
</svg>
