<svg width="24" height="24" viewBox="0 0 24 24" fill="none" xmlns="http://www.w3.org/2000/svg">
<path fill-rule="evenodd" clip-rule="evenodd" d="M3.79729 11.4718C1.38092 13.8881 1.38092 17.8058 3.79729 20.2222C6.18949 22.6144 10.0532 22.6383 12.4748 20.294L12.5477 20.2222L16.481 16.2889C16.8715 15.8984 16.8715 15.2652 16.481 14.8747C16.0979 14.4916 15.4811 14.4843 15.0892 14.853L15.0668 14.8747L11.1335 18.808C9.4982 20.4433 6.84682 20.4433 5.2115 18.808C3.59253 17.189 3.57634 14.5742 5.16293 12.9353L5.2115 12.886L14.1829 3.91455C15.1592 2.93824 16.7421 2.93824 17.7185 3.91455C18.6846 4.88069 18.6947 6.44086 17.7486 7.41938L17.7185 7.45009L9.32156 15.847C9.02866 16.1399 8.55379 16.1399 8.2609 15.847C7.97466 15.5607 7.96815 15.1007 8.24138 14.8066L8.2609 14.7863L14.7132 8.33397C15.1038 7.94345 15.1038 7.31028 14.7132 6.91976C14.3301 6.5366 13.7134 6.52937 13.3214 6.89807L13.299 6.91976L6.84668 13.3721C5.77274 14.446 5.77274 16.1873 6.84668 17.2612C7.90989 18.3244 9.62707 18.335 10.7034 17.2931L10.7358 17.2612L19.1327 8.8643C20.89 7.10694 20.89 4.2577 19.1327 2.50034C17.3929 0.760554 14.5829 0.743156 12.8217 2.44815L12.7687 2.50034L3.79729 11.4718Z" fill="#1D2126"/>
</svg>
