<svg width="24" height="24" viewBox="0 0 24 24" fill="none" xmlns="http://www.w3.org/2000/svg">
<path fill-rule="evenodd" clip-rule="evenodd" d="M19 3.25H5C3.34315 3.25 2 4.59315 2 6.25V16.25C2 17.9069 3.34315 19.25 5 19.25H7.80827C8.03234 19.25 8.24991 19.3253 8.4261 19.4637L10.1465 20.8155C11.2344 21.6702 12.7656 21.6702 13.8535 20.8155L15.5739 19.4637C15.7501 19.3253 15.9677 19.25 16.1917 19.25H19C20.6569 19.25 22 17.9069 22 16.25V6.25C22 4.59315 20.6569 3.25 19 3.25ZM5 5.25H19C19.5523 5.25 20 5.69772 20 6.25V16.25C20 16.8023 19.5523 17.25 19 17.25H16.1917C15.5195 17.25 14.8668 17.4757 14.3383 17.891L12.6178 19.2428C12.2552 19.5277 11.7448 19.5277 11.3822 19.2428L9.66174 17.891C9.13318 17.4757 8.48047 17.25 7.80827 17.25H5C4.44772 17.25 4 16.8023 4 16.25V6.25C4 5.69772 4.44772 5.25 5 5.25ZM15 8.25C15.5523 8.25 16 8.69772 16 9.25C16 9.79186 15.569 10.2331 15.0311 10.2495L15 10.25H9C8.44772 10.25 8 9.80228 8 9.25C8 8.70814 8.43098 8.26693 8.96885 8.25048L9 8.25H15ZM14 12.25C14.5523 12.25 15 12.6977 15 13.25C15 13.7919 14.569 14.2331 14.0311 14.2495L14 14.25H10C9.44771 14.25 9 13.8023 9 13.25C9 12.7081 9.43098 12.2669 9.96885 12.2505L10 12.25H14Z" fill="#1D2126"/>
</svg>
