<svg width="24" height="24" viewBox="0 0 24 24" fill="none" xmlns="http://www.w3.org/2000/svg">
<path fill-rule="evenodd" clip-rule="evenodd" d="M22 6C22 3.79086 20.2091 2 18 2H6C3.79086 2 2 3.79086 2 6V18C2 20.2091 3.79086 22 6 22H18C20.2091 22 22 20.2091 22 18V6ZM6 4H18L18.1493 4.00549C19.1841 4.08183 20 4.94564 20 6V18L19.9945 18.1493C19.9182 19.1841 19.0544 20 18 20H6L5.85074 19.9945C4.81588 19.9182 4 19.0544 4 18V6L4.00549 5.85074C4.08183 4.81588 4.94564 4 6 4ZM16.7465 7.00183C17.1233 6.97067 17.6371 7.34428 17.6714 7.53102C17.6714 7.58955 17.5908 7.62361 17.5138 7.6562C17.4678 7.67565 17.4231 7.69457 17.3974 7.71785C17.8427 7.78012 17.9455 8.21598 17.9797 8.5584C18.1852 10.2085 16.815 12.6056 14.5541 12.9792C13.6976 13.1349 13.1152 12.3877 13.0124 11.6717C12.9177 10.7807 13.3773 9.75724 13.9336 8.99295L14.0745 8.80751C14.7939 7.87358 16.1641 7.0641 16.7465 7.00183ZM16.8836 8.15367C16.7428 8.17198 16.6138 8.29759 16.5105 8.3982C16.4379 8.46897 16.3779 8.52738 16.3354 8.52738C16.267 8.52738 16.2328 8.43404 16.2326 8.37172C14.6569 9.43022 14.0403 10.7066 14.1088 11.6095C14.1088 11.7651 14.2116 12.2632 14.4856 12.2322C14.7597 12.201 15.3079 11.7962 15.5133 11.6095L16.3356 10.7378C16.6781 10.2708 17.3632 9.18115 17.2947 8.62082C17.2947 8.43394 17.1576 8.12263 16.8836 8.15367ZM12.6737 7.53372C12.6396 7.34604 12.1292 6.97051 11.7549 7.00185C11.1426 7.06443 9.78147 7.87798 9.06714 8.78546C8.45475 9.56766 7.91027 10.694 8.0124 11.6642C8.14838 12.4152 8.72684 13.1349 9.61151 12.9784C11.823 12.6341 13.1841 10.1935 12.9798 8.56634C12.9457 8.22213 12.8436 7.78409 12.4014 7.72141C12.4269 7.69802 12.4713 7.67902 12.517 7.65949C12.5936 7.62676 12.6737 7.59254 12.6737 7.53372ZM11.5205 8.4054C11.6231 8.30428 11.7512 8.17798 11.8911 8.1596C12.1633 8.12828 12.2995 8.44127 12.2995 8.62901C12.3674 9.19218 11.6871 10.2873 11.3468 10.7569L10.5302 11.633C10.326 11.8206 9.78166 12.2275 9.50948 12.2587C9.23731 12.29 9.13518 11.7893 9.13518 11.633C9.06712 10.7255 9.67964 9.41129 11.2447 8.37872C11.2447 8.44126 11.2787 8.53509 11.3468 8.53509C11.3889 8.53509 11.4484 8.47646 11.5205 8.4054ZM6.00942 12.2887C5.94315 11.8557 6.24135 10.8659 6.44012 10.464C6.97016 9.38142 7.59962 8.39175 7.83148 8.05157H7.79839L6.97016 8.45363C6.93708 8.48455 6.7714 8.57736 6.73823 8.57736C6.63899 8.57736 6.63899 8.45371 6.63899 8.39185C6.63899 8.17306 6.76834 8.07521 6.93562 7.94867C6.95761 7.93203 6.98026 7.9149 7.00335 7.89694L7.03891 7.87201C7.34509 7.65724 8.23986 7.02964 8.49413 7C8.72607 7 8.9911 7.43297 8.9911 7.55664L8.99137 7.55871C8.99477 7.58401 8.99778 7.60644 8.99917 7.62897C9.0101 7.8053 8.9223 7.98774 8.1475 9.59773C8.0619 9.77559 7.96792 9.97088 7.86476 10.1855C7.59975 10.7113 7.00335 12.0102 7.06969 12.5669C7.06969 12.6332 7.08871 12.6906 7.10638 12.7439C7.12168 12.7901 7.13595 12.8331 7.13595 12.8762C7.16903 12.938 7.10287 12.9999 7.03652 12.9999L7.03641 13C7.00333 13 6.87072 12.9691 6.83765 12.9072C6.76218 12.8752 6.6853 12.8485 6.61024 12.8224C6.3228 12.7226 6.06203 12.632 6.00942 12.2887ZM7.99289 16.5914L8.0985 16.54L8.11872 16.5773C10.5877 15.7532 13.1876 15.3591 15.8776 15.4112L16.1924 15.4141C17.5614 15.4109 17.5286 15.1718 16.0941 14.6969L15.7653 14.5916L15.0411 14.5448L15.035 14.4756C9.90157 14.0922 7.26548 15.6173 7.15331 15.6904L7.11612 15.7168C7.0181 15.7935 6.93417 15.9245 6.98142 16.2311C7.02128 16.4898 7.12089 16.6005 7.21384 16.6708L7.3021 16.7318C7.34607 16.7501 7.38903 16.757 7.43097 16.7523L7.55127 16.7454C7.70944 16.7283 7.85828 16.6792 7.99289 16.5914Z" fill="#1D2126"/>
</svg>
