<svg width="24" height="24" viewBox="0 0 24 24" fill="none" xmlns="http://www.w3.org/2000/svg">
<path fill-rule="evenodd" clip-rule="evenodd" d="M12.6605 2.7072C12.2774 2.32404 11.6607 2.31681 11.2687 2.68551L11.2463 2.7072L8.41789 5.53563C8.02737 5.92615 8.02737 6.55932 8.41789 6.94984C8.80105 7.333 9.41778 7.34023 9.80975 6.97153L9.83211 6.94984L11 5.78199V14.5001L11.0005 14.5312C11.0169 15.0691 11.4581 15.5001 12 15.5001C12.5523 15.5001 13 15.0523 13 14.5001V5.87508L14.0747 6.94984C14.4579 7.333 15.0746 7.34023 15.4666 6.97153L15.489 6.94984C15.8721 6.56668 15.8793 5.94996 15.5106 5.55799L15.489 5.53563L12.6605 2.7072ZM2.4375 10.0626C2.4375 9.51027 2.88522 9.06256 3.4375 9.06256C3.97936 9.06256 4.42057 9.49354 4.43702 10.0314L4.4375 10.0626L4.43753 18.5054C4.4817 18.535 4.55061 18.5576 4.63283 18.5618L4.66071 18.5626H19.3393C19.4338 18.5626 19.5134 18.5383 19.5625 18.5054L19.5625 10.0626C19.5625 9.52069 19.9935 9.07949 20.5314 9.06303L20.5625 9.06256C21.1044 9.06256 21.5456 9.49354 21.562 10.0314L21.5625 10.0626V18.5755C21.5625 19.7125 20.5496 20.5431 19.3806 20.5622L19.3393 20.5626H4.66071C3.48821 20.5626 2.46163 19.7452 2.43792 18.6155L2.4375 18.5755V10.0626Z" fill="#1D2126"/>
</svg>
