<svg width="24" height="24" viewBox="0 0 24 24" fill="none" xmlns="http://www.w3.org/2000/svg">
<path fill-rule="evenodd" clip-rule="evenodd" d="M19 3.25H5C3.34315 3.25 2 4.59315 2 6.25V16.25C2 17.9069 3.34315 19.25 5 19.25H7.80827C8.03234 19.25 8.24991 19.3253 8.4261 19.4637L10.1465 20.8155C11.2344 21.6702 12.7656 21.6702 13.8535 20.8155L15.5739 19.4637C15.7501 19.3253 15.9677 19.25 16.1917 19.25H19C20.6569 19.25 22 17.9069 22 16.25V6.25C22 4.59315 20.6569 3.25 19 3.25ZM5 5.25H19C19.5523 5.25 20 5.69772 20 6.25V16.25C20 16.8023 19.5523 17.25 19 17.25H16.1917C15.5195 17.25 14.8668 17.4757 14.3383 17.891L12.6178 19.2428C12.2552 19.5277 11.7448 19.5277 11.3822 19.2428L9.66174 17.891C9.13318 17.4757 8.48047 17.25 7.80827 17.25H5C4.44772 17.25 4 16.8023 4 16.25V6.25C4 5.69772 4.44772 5.25 5 5.25ZM10.5207 16.681C10.3411 16.659 10.1926 16.5307 10.0752 16.296L10.0962 16.328L10.0972 16.329C9.98722 16.153 9.95788 15.9788 10.0092 15.8065C10.0606 15.6342 10.2109 15.4637 10.4602 15.295C10.9882 14.9357 11.4136 14.547 11.7362 14.129C12.0589 13.711 12.3156 13.227 12.5062 12.677H11.2742C11.0176 12.677 10.8526 12.6312 10.7792 12.5395C10.7059 12.4478 10.6692 12.2737 10.6692 12.017C10.6692 11.7897 10.7151 11.6283 10.8067 11.533C10.8984 11.4377 11.0542 11.39 11.2742 11.39H12.8252C12.8546 11.2433 12.8784 11.0875 12.8967 10.9225C12.9151 10.7575 12.9316 10.5907 12.9462 10.422C12.9609 10.2313 12.9719 10.0168 12.9792 9.7785C12.9866 9.54017 12.9939 9.267 13.0012 8.959H11.6592C11.4099 8.959 11.2486 8.915 11.1752 8.827C11.1019 8.739 11.0652 8.57033 11.0652 8.321C11.0652 8.101 11.1 7.93783 11.1697 7.8315C11.2394 7.72517 11.4026 7.672 11.6592 7.672H13.0012V6.781C13.0012 6.50233 13.0452 6.3025 13.1332 6.1815C13.2212 6.0605 13.3972 6 13.6612 6C13.9399 6 14.1177 6.0605 14.1947 6.1815C14.2717 6.3025 14.3102 6.50233 14.3102 6.781V7.672H15.5312C15.7879 7.672 15.9987 7.68483 16.1637 7.7105C16.3287 7.73617 16.4571 7.78933 16.5487 7.87C16.6404 7.95067 16.7046 8.068 16.7412 8.222C16.7779 8.376 16.7962 8.58133 16.7962 8.838V11.39H17.0272C17.2619 11.39 17.4269 11.4303 17.5222 11.511C17.6176 11.5917 17.6652 11.7603 17.6652 12.017C17.6652 12.2517 17.6176 12.4203 17.5222 12.523C17.4269 12.6257 17.2619 12.677 17.0272 12.677H14.7172C14.9079 12.985 15.0967 13.2673 15.2837 13.524C15.4707 13.7807 15.6632 14.0135 15.8612 14.2225C16.0592 14.4315 16.2682 14.6222 16.4882 14.7945C16.7082 14.9668 16.9466 15.1263 17.2032 15.273C17.3939 15.3757 17.5259 15.504 17.5992 15.658C17.6726 15.812 17.6359 16.0173 17.4892 16.274C17.3572 16.4793 17.2179 16.5857 17.0712 16.593C16.9246 16.6003 16.7156 16.5233 16.4442 16.362C15.9089 16.0613 15.4267 15.6617 14.9977 15.163C14.5687 14.6643 14.1342 14.0337 13.6942 13.271C13.4669 13.8943 13.1607 14.4608 12.7757 14.9705C12.3907 15.4802 11.8866 15.955 11.2632 16.395H11.2522C10.9442 16.6077 10.7004 16.703 10.5207 16.681ZM14.1342 11.39H15.5092V9.168C15.5092 9.08733 15.4964 9.03233 15.4707 9.003C15.4451 8.97367 15.3919 8.959 15.3112 8.959H14.2992C14.2846 9.45767 14.2626 9.96367 14.2332 10.477C14.2112 10.7997 14.1782 11.104 14.1342 11.39ZM8.58592 8.35297C8.5402 8.11074 8.4243 7.98642 8.23822 7.98C7.98155 7.97267 7.81105 8.02033 7.72672 8.123C7.64238 8.22567 7.58555 8.42733 7.55622 8.728C7.54155 8.948 7.51772 9.201 7.48472 9.487C7.45172 9.773 7.41322 10.0663 7.36922 10.367C7.32522 10.6677 7.27755 10.9647 7.22622 11.258C7.17488 11.5513 7.11988 11.8227 7.06122 12.072C7.00255 12.3507 6.98605 12.5762 7.01172 12.7485C7.03738 12.9208 7.14922 13.04 7.34722 13.106C7.55988 13.1647 7.72305 13.1353 7.83672 13.018C7.95038 12.9007 8.04755 12.6843 8.12822 12.369C8.17222 12.2077 8.21622 11.9877 8.26022 11.709C8.30422 11.4303 8.34822 11.137 8.39222 10.829C8.43622 10.521 8.47655 10.2185 8.51322 9.9215C8.54988 9.6245 8.57922 9.377 8.60122 9.179V9.184V15.988C8.60122 16.1699 8.63172 16.3107 8.69274 16.4104L8.74422 16.4775C8.83955 16.5765 8.99355 16.626 9.20622 16.626C9.39688 16.626 9.54538 16.5765 9.65172 16.4775C9.75805 16.3785 9.81122 16.2153 9.81122 15.988L9.83322 8.871C9.85522 8.959 9.87905 9.08 9.90472 9.234C9.93038 9.388 9.95788 9.55483 9.98722 9.7345C10.0166 9.91417 10.0459 10.0993 10.0752 10.29C10.1046 10.4807 10.1302 10.653 10.1522 10.807C10.1889 11.027 10.2457 11.1938 10.3227 11.3075C10.3997 11.4212 10.5556 11.4523 10.7902 11.401C10.9809 11.335 11.1019 11.2452 11.1532 11.1315C11.2046 11.0178 11.2046 10.829 11.1532 10.565C11.1166 10.3523 11.0854 10.1672 11.0597 10.0095C11.034 9.85183 11.0084 9.707 10.9827 9.575C10.9571 9.443 10.9314 9.30917 10.9057 9.1735C10.8801 9.03783 10.8526 8.88567 10.8232 8.717C10.7646 8.40167 10.6656 8.2 10.5262 8.112C10.3869 8.024 10.2329 7.99833 10.0642 8.035C9.96155 8.057 9.87722 8.14867 9.81122 8.31V6.649C9.81122 6.42167 9.75805 6.2585 9.65172 6.1595C9.54538 6.0605 9.39688 6.011 9.20622 6.011C8.99355 6.011 8.83955 6.0605 8.74422 6.1595C8.64888 6.2585 8.60122 6.42167 8.60122 6.649V8.461L8.58592 8.35297Z" fill="#1D2126"/>
</svg>
