<svg width="24" height="24" viewBox="0 0 24 24" fill="none" xmlns="http://www.w3.org/2000/svg">
<path fill-rule="evenodd" clip-rule="evenodd" d="M12 2C17.5228 2 22 6.47715 22 12C22 17.5228 17.5228 22 12 22C6.47715 22 2 17.5228 2 12C2 6.47715 6.47715 2 12 2ZM12 4C7.58172 4 4 7.58172 4 12C4 16.4183 7.58172 20 12 20C16.4183 20 20 16.4183 20 12C20 7.58172 16.4183 4 12 4ZM9 11.125C9.55228 11.125 10 10.6773 10 10.125C10 9.57272 9.55228 9.125 9 9.125C8.44772 9.125 8 9.57272 8 10.125C8 10.6773 8.44772 11.125 9 11.125ZM16 10.125C16 10.6773 15.5523 11.125 15 11.125C14.4477 11.125 14 10.6773 14 10.125C14 9.57272 14.4477 9.125 15 9.125C15.5523 9.125 16 9.57272 16 10.125ZM9.08853 13.9434C8.78138 13.4844 8.16029 13.3613 7.7013 13.6684C7.2423 13.9756 7.11921 14.5967 7.42637 15.0557C8.44015 16.5706 10.142 17.5 12 17.5C13.8458 17.5 15.538 16.5828 16.5545 15.0841C16.8645 14.627 16.7452 14.0052 16.2882 13.6952C15.8311 13.3852 15.2093 13.5044 14.8993 13.9615L14.8665 14.009C14.2153 14.9363 13.1561 15.5 12 15.5C10.8166 15.5 9.73492 14.9093 9.08853 13.9434Z" fill="#1D2126"/>
</svg>
