<svg width="24" height="24" viewBox="0 0 24 24" fill="none" xmlns="http://www.w3.org/2000/svg">
<path d="M16.5133 1.14178C16.8915 1.36796 17.077 1.81504 16.9702 2.24255L15.1819 9.39572L19.3714 11.0715C19.6914 11.1995 19.9229 11.4832 19.9841 11.8223C20.0453 12.1614 19.9277 12.5082 19.6727 12.74L8.67269 22.74C8.34662 23.0364 7.86495 23.0844 7.48676 22.8582C7.10856 22.6321 6.923 22.185 7.02988 21.7575L8.81817 14.6043L4.62863 12.9285C4.30868 12.8005 4.07717 12.5168 4.01593 12.1777C3.9547 11.8386 4.07237 11.4919 4.32735 11.2601L15.3273 1.26007C15.6534 0.963648 16.1351 0.915603 16.5133 1.14178Z" fill="#1D2126"/>
</svg>
