<svg width="24" height="24" viewBox="0 0 24 24" fill="none" xmlns="http://www.w3.org/2000/svg">
<path fill-rule="evenodd" clip-rule="evenodd" d="M11.5 1.88397C11.7983 1.71172 12.1635 1.70557 12.4666 1.86552L12.5 1.88397L20.5107 6.50897C20.8098 6.68165 20.9979 6.99589 21.0101 7.33937L21.0107 7.375V16.625C21.0107 16.9704 20.8326 17.2904 20.5413 17.4727L20.5107 17.491L12.5 22.116C12.2016 22.2883 11.8365 22.2944 11.5334 22.1345L11.5 22.116L3.48926 17.491C3.19017 17.3183 3.0021 17.0041 2.98989 16.6606L2.98926 16.625V7.375C2.98926 7.02964 3.16736 6.70965 3.45872 6.52734L3.48926 6.50897L11.5 1.88397ZM12 3.90462L4.98924 7.95237V16.0475L12 20.0952L19.0106 16.0475V7.95237L12 3.90462ZM12 8.5C13.933 8.5 15.5 10.067 15.5 12C15.5 13.933 13.933 15.5 12 15.5C10.067 15.5 8.49999 13.933 8.49999 12C8.49999 10.067 10.067 8.5 12 8.5ZM12 10.5C11.1716 10.5 10.5 11.1716 10.5 12C10.5 12.8284 11.1716 13.5 12 13.5C12.8284 13.5 13.5 12.8284 13.5 12C13.5 11.1716 12.8284 10.5 12 10.5Z" fill="#1D2126"/>
</svg>
