<svg width="24" height="24" viewBox="0 0 24 24" fill="none" xmlns="http://www.w3.org/2000/svg">
<path fill-rule="evenodd" clip-rule="evenodd" d="M2 12C2 6.47715 6.47715 2 12 2C17.5228 2 22 6.47715 22 12C22 17.5228 17.5228 22 12 22C6.47715 22 2 17.5228 2 12ZM20 12C20 7.58172 16.4183 4 12 4C7.58172 4 4 7.58172 4 12C4 16.4183 7.58172 20 12 20C16.4183 20 20 16.4183 20 12ZM13 17.5C13 18.0523 12.5523 18.5 12 18.5C11.4477 18.5 11 18.0523 11 17.5C11 16.9477 11.4477 16.5 12 16.5C12.5523 16.5 13 16.9477 13 17.5ZM16 10.2244C16 8.02746 14.2072 6.25001 12 6.25001C10.5673 6.25001 9.26447 7.00575 8.55072 8.21095C8.19216 8.81639 8 9.50757 8 10.2244C8 10.7767 8.44772 11.2244 9 11.2244C9.55228 11.2244 10 10.7767 10 10.2244L10.0008 10.1684C10.0102 9.83321 10.1037 9.51348 10.2716 9.23009C10.6282 8.62798 11.2797 8.25001 12 8.25001C13.1065 8.25001 14 9.13589 14 10.2244C14 11.1409 12.9366 11.7001 12.302 12.0338C12.183 12.0964 12.079 12.1511 12 12.1987C11.5 12.5 11 13.2532 11 14C10.9984 14.177 10.9977 14.3541 11.0005 14.5312C11.0169 15.069 11.4581 15.5 12 15.5L12.0311 15.4995C12.569 15.4831 13 15.0419 13 14.5V14C13 13.6249 13.4221 13.3905 13.9496 13.0976C14.8285 12.6095 16 11.9589 16 10.2244Z" fill="#1D2126"/>
</svg>
