<svg width="24" height="24" viewBox="0 0 24 24" fill="none" xmlns="http://www.w3.org/2000/svg">
<path fill-rule="evenodd" clip-rule="evenodd" d="M14 3C15.8805 3 17.4579 4.29763 17.8856 6.0463L19.9689 7.25C21.8241 8.3211 22.4967 10.6539 21.5286 12.5388L21.433 12.7141L17.933 18.7763C17.4654 19.5862 16.7574 20.1707 15.9511 20.4917C15.4463 20.7752 14.8736 20.9517 14.2636 20.9914L14 21H6C3.8578 21 2.10892 19.316 2.0049 17.1996L2 17V7C2 4.8578 3.68397 3.10892 5.80036 3.0049L6 3H14ZM14 5H6C4.94564 5 4.08183 5.81588 4.00549 6.85074L4 7V17C4 18.0544 4.81588 18.9182 5.85074 18.9945L6 19H14C15.0544 19 15.9182 18.1841 15.9945 17.1493L16 17V7C16 5.94564 15.1841 5.08183 14.1493 5.00549L14 5ZM11 13.5C11.5523 13.5 12 13.9477 12 14.5C12 15.0128 11.614 15.4355 11.1166 15.4933L11 15.5H7C6.44772 15.5 6 15.0523 6 14.5C6 13.9872 6.38604 13.5645 6.88338 13.5067L7 13.5H11ZM18 8.423V14.658L19.701 11.7141C20.2281 10.801 19.9535 9.64498 19.0954 9.06143L18.9689 8.98205L18 8.423ZM13 8.5C13.5523 8.5 14 8.94772 14 9.5C14 10.0128 13.614 10.4355 13.1166 10.4933L13 10.5H7C6.44772 10.5 6 10.0523 6 9.5C6 8.98716 6.38604 8.56449 6.88338 8.50673L7 8.5H13Z" fill="#1D2126"/>
</svg>
