<svg width="24" height="24" viewBox="0 0 24 24" fill="none" xmlns="http://www.w3.org/2000/svg">
<path fill-rule="evenodd" clip-rule="evenodd" d="M5.375 4.625C4.54657 4.625 3.875 5.29657 3.875 6.125V18C3.875 18.8284 4.54657 19.5 5.375 19.5C6.20343 19.5 6.875 18.8284 6.875 18V6.125C6.875 5.29657 6.20343 4.625 5.375 4.625ZM19.9304 6.27225C19.2225 5.32048 17.9061 5.08849 16.9207 5.71436L16.7822 5.80962L10.8024 10.2571C10.6265 10.3879 10.4706 10.5438 10.3398 10.7197C9.63192 11.6715 9.78847 12.999 10.6714 13.7627L10.8024 13.8679L16.7822 18.3154C17.1704 18.6041 17.6413 18.76 18.125 18.76C19.3159 18.76 20.2906 17.8348 20.3698 16.664L20.375 16.51V7.61502C20.375 7.13128 20.2191 6.66041 19.9304 6.27225Z" fill="#1D2126"/>
</svg>
