<svg width="24" height="24" viewBox="0 0 24 24" fill="none" xmlns="http://www.w3.org/2000/svg">
<path fill-rule="evenodd" clip-rule="evenodd" d="M7.89445 3C8.41269 3 8.92078 3.13422 9.36985 3.38787L9.55855 3.50385L10.5547 4.16795C11.0142 4.4743 11.1384 5.09517 10.8321 5.5547C10.5476 5.98141 9.99192 6.11895 9.54607 5.89114L9.4453 5.83205L8.44915 5.16795C8.31774 5.08034 8.16793 5.02542 8.01218 5.00695L7.89445 5H6C5.48716 5 5.06449 5.38604 5.00673 5.88338L5 6V17C5 17.5128 5.38604 17.9355 5.88338 17.9933L6 18H9.33333C9.91032 18 10.4735 18.1663 10.9562 18.4768L11.1333 18.6L12 19.25L12.8667 18.6C13.3283 18.2538 13.8786 18.049 14.4511 18.0078L14.6667 18H18C18.5128 18 18.9355 17.614 18.9933 17.1166L19 17V6C19 5.48716 18.614 5.06449 18.1166 5.00673L18 5H15C14.4872 5 14.0645 5.38604 14.0067 5.88338L14 6V15C14 15.5523 13.5523 16 13 16C12.4872 16 12.0645 15.614 12.0067 15.1166L12 15V6C12 4.40232 13.2489 3.09634 14.8237 3.00509L15 3H18C19.5977 3 20.9037 4.24892 20.9949 5.82373L21 6V17C21 18.5977 19.7511 19.9037 18.1763 19.9949L18 20H14.6667C14.4936 20 14.3242 20.0449 14.1748 20.1293L14.0667 20.2L12.6 21.3C12.28 21.54 11.852 21.564 11.5104 21.372L11.4 21.3L9.93333 20.2C9.79486 20.0961 9.63242 20.0305 9.4622 20.0083L9.33333 20H6C4.40232 20 3.09634 18.7511 3.00509 17.1763L3 17V6C3 4.40232 4.24892 3.09634 5.82373 3.00509L6 3H7.89445ZM9 8.5C9.55228 8.5 10 8.94772 10 9.5C10 10.0128 9.61396 10.4355 9.11662 10.4933L9 10.5H7C6.44772 10.5 6 10.0523 6 9.5C6 8.98716 6.38604 8.56449 6.88338 8.50673L7 8.5H9ZM10 13C10 12.4477 9.55228 12 9 12H8L7.88338 12.0067C7.38604 12.0645 7 12.4872 7 13C7 13.5523 7.44772 14 8 14H9L9.11662 13.9933C9.61396 13.9355 10 13.5128 10 13Z" fill="#1D2126"/>
</svg>
