<svg width="24" height="24" viewBox="0 0 24 24" fill="none" xmlns="http://www.w3.org/2000/svg">
<path fill-rule="evenodd" clip-rule="evenodd" d="M17.9786 1.92945L12 2.98446L6.02136 1.92945C5.84923 1.89908 5.67478 1.8838 5.5 1.8838C3.84315 1.8838 2.5 3.22695 2.5 4.8838V17.822C2.5 19.2777 3.54507 20.5234 4.97864 20.7763L12 22.0154L19.0214 20.7763C20.4549 20.5234 21.5 19.2777 21.5 17.822V4.8838C21.5 4.70902 21.4847 4.53457 21.4544 4.36245C21.1664 2.7308 19.6103 1.64152 17.9786 1.92945ZM19.4848 4.71002C19.4949 4.76739 19.5 4.82554 19.5 4.8838V17.822L19.4995 17.8542C19.4845 18.3255 19.141 18.7243 18.6738 18.8068L13 19.808V4.83894L18.3262 3.89902C18.8598 3.80485 19.3692 4.1526 19.4789 4.67943L19.4848 4.71002ZM11 4.83894L5.67379 3.89902C5.61641 3.88889 5.55826 3.8838 5.5 3.8838C4.94772 3.8838 4.5 4.33152 4.5 4.8838V17.822C4.5 18.3072 4.84836 18.7225 5.32621 18.8068L11 19.808V4.83894ZM5.1662 8.46587C5.32008 7.94652 5.8583 7.64597 6.37851 7.78262L6.40909 7.79116L9.78409 8.79116C10.3136 8.94806 10.6157 9.50452 10.4588 10.034C10.3049 10.5534 9.7667 10.854 9.24649 10.7173L9.21591 10.7088L5.84091 9.70876C5.31138 9.55186 5.0093 8.9954 5.1662 8.46587ZM6.37851 12.7826C5.8583 12.646 5.32008 12.9465 5.1662 13.4659C5.0093 13.9954 5.31138 14.5519 5.84091 14.7088L9.21591 15.7088L9.24649 15.7173C9.7667 15.854 10.3049 15.5534 10.4588 15.034C10.6157 14.5045 10.3136 13.9481 9.78409 13.7912L6.40909 12.7912L6.37851 12.7826ZM18.9588 8.46587C18.8049 7.94652 18.2667 7.64597 17.7465 7.78262L17.7159 7.79116L14.3409 8.79116C13.8114 8.94806 13.5093 9.50452 13.6662 10.034C13.8201 10.5534 14.3583 10.854 14.8785 10.7173L14.9091 10.7088L18.2841 9.70876C18.8136 9.55186 19.1157 8.9954 18.9588 8.46587ZM17.7465 12.7826C18.2667 12.646 18.8049 12.9465 18.9588 13.4659C19.1157 13.9954 18.8136 14.5519 18.2841 14.7088L14.9091 15.7088L14.8785 15.7173C14.3583 15.854 13.8201 15.5534 13.6662 15.034C13.5093 14.5045 13.8114 13.9481 14.3409 13.7912L17.7159 12.7912L17.7465 12.7826Z" fill="#1D2126"/>
</svg>
