<svg width="24" height="24" viewBox="0 0 24 24" fill="none" xmlns="http://www.w3.org/2000/svg">
<path fill-rule="evenodd" clip-rule="evenodd" d="M3.5 9.5C3.5 4.80558 7.30558 1 12 1C16.6944 1 20.5 4.80558 20.5 9.5C20.5 12.4028 19.0449 14.9657 16.8244 16.4992L16.0604 20.427C15.8179 21.6738 14.9021 22.6823 13.6844 23.0435C12.5851 23.3695 11.4149 23.3695 10.3156 23.0435C9.11581 22.6876 8.2091 21.7033 7.95072 20.4818L7.93959 20.427L7.1756 16.4992C4.95506 14.9657 3.5 12.4028 3.5 9.5ZM12 18C12.8965 18 13.7607 17.8612 14.572 17.6039L14.2359 19.3319C14.156 18.8597 13.745 18.5 13.25 18.5H10.75L10.7189 18.5005C10.2378 18.5152 9.84232 18.8696 9.76407 19.3319L9.42796 17.6039C10.2393 17.8612 11.1035 18 12 18ZM9.89894 20.0253L9.9028 20.0451C10.003 20.5602 10.3813 20.9768 10.8844 21.126C11.6124 21.342 12.3876 21.342 13.1156 21.126C13.6061 20.9805 13.978 20.5809 14.0892 20.0836L14.0972 20.0451L14.1011 20.0253C13.9299 20.302 13.6277 20.4889 13.2811 20.4995L13.25 20.5H10.75C10.3904 20.5 10.0752 20.3102 9.89894 20.0253ZM13 6C13 5.44772 12.5523 5 12 5C9.51472 5 7.5 7.01472 7.5 9.5C7.5 10.0523 7.94772 10.5 8.5 10.5C9.05228 10.5 9.5 10.0523 9.5 9.5C9.5 8.11929 10.6193 7 12 7C12.5523 7 13 6.55228 13 6Z" fill="#FFD630"/>
</svg>
