<svg width="24" height="24" viewBox="0 0 24 24" fill="none" xmlns="http://www.w3.org/2000/svg">
<path fill-rule="evenodd" clip-rule="evenodd" d="M19.0208 3H4.97925C4.46452 3 3.96729 3.18683 3.57992 3.52577L3.54591 3.55617C2.69452 4.33339 2.61723 5.65257 3.38002 6.52432L9.50001 12.3757V19.625C9.50001 20.0261 9.7397 20.3884 10.1089 20.5453C10.1089 20.5453 11.4712 22.0018 13.1089 22.6703C13.1202 22.675 13.138 22.6822 13.138 22.6822C13.7898 22.9363 14.5 22.4561 14.5 21.75V12.3756L20.62 6.52432C20.9589 6.13695 21.1458 5.63972 21.1458 5.125C21.1458 3.95139 20.1944 3 19.0208 3Z" fill="#1D2126"/>
</svg>
