<svg width="24" height="24" viewBox="0 0 24 24" fill="none" xmlns="http://www.w3.org/2000/svg">
<path fill-rule="evenodd" clip-rule="evenodd" d="M12 2C6.47715 2 2 6.47715 2 12C2 17.5228 6.47715 22 12 22C17.5228 22 22 17.5228 22 12C22 6.47715 17.5228 2 12 2ZM12 4C16.4183 4 20 7.58172 20 12C20 16.4183 16.4183 20 12 20C7.58172 20 4 16.4183 4 12C4 7.58172 7.58172 4 12 4ZM12.9995 6.96885C12.9831 6.43098 12.5419 6 12 6L11.9689 6.00048C11.431 6.01693 11 6.45814 11 7V12.8358L8.54289 15.2929L8.5185 15.3181C8.15255 15.7103 8.16068 16.3249 8.54289 16.7071C8.93342 17.0976 9.56658 17.0976 9.95711 16.7071L12.7071 13.9571L12.7333 13.9299C12.9044 13.7453 13 13.5026 13 13.25V7L12.9995 6.96885Z" fill="#1D2126"/>
</svg>
