<svg width="24" height="24" viewBox="0 0 24 24" fill="none" xmlns="http://www.w3.org/2000/svg">
<path fill-rule="evenodd" clip-rule="evenodd" d="M19.0208 3H4.97925C4.46452 3 3.96729 3.18683 3.57992 3.52577L3.54591 3.55617C2.69452 4.33339 2.61723 5.65257 3.38002 6.52432L8.50001 12.3757V19.625C8.50001 20.0261 8.7397 20.3884 9.10887 20.5453L14.1089 22.6703L14.138 22.6822C14.7898 22.9363 15.5 22.4561 15.5 21.75V12.3756L20.62 6.52432C20.9589 6.13695 21.1458 5.63972 21.1458 5.125C21.1458 3.95139 20.1944 3 19.0208 3ZM4.97925 5H19.0208C19.0898 5 19.1458 5.05596 19.1458 5.125C19.1458 5.15528 19.1348 5.18453 19.1148 5.20731L13.7474 11.3415L13.7215 11.3723C13.5784 11.5498 13.5 11.7712 13.5 12V20.2384L10.5 18.9634V12C10.5 11.7578 10.4121 11.5238 10.2526 11.3415L4.88517 5.20731C4.83971 5.15536 4.84498 5.07639 4.89693 5.03093C4.91972 5.01099 4.94897 5 4.97925 5Z" fill="#1D2126"/>
</svg>
