<svg width="24" height="24" viewBox="0 0 24 24" fill="none" xmlns="http://www.w3.org/2000/svg">
<path fill-rule="evenodd" clip-rule="evenodd" d="M22 12C22 6.47715 17.5228 2 12 2C6.47715 2 2 6.47715 2 12C2 17.5228 6.47715 22 12 22C17.5228 22 22 17.5228 22 12ZM4 12C4 7.58172 7.58172 4 12 4C16.4183 4 20 7.58172 20 12C20 16.4183 16.4183 20 12 20C7.58172 20 4 16.4183 4 12ZM13.25 16.75C13.25 17.4404 12.6904 18 12 18C11.3096 18 10.75 17.4404 10.75 16.75C10.75 16.0596 11.3096 15.5 12 15.5C12.6904 15.5 13.25 16.0596 13.25 16.75ZM13.2495 6.16503C13.2331 5.65704 12.5419 5.25 12 5.25C11.4477 5.25 10.75 5.67284 10.75 6.19444L11 12.8056L11.0005 12.835C11.0169 13.343 11.4581 13.75 12 13.75C12.5523 13.75 13 13.3272 13 12.8056L13.2495 6.16503Z" fill="#1D2126"/>
</svg>
