<svg width="24" height="24" viewBox="0 0 24 24" fill="none" xmlns="http://www.w3.org/2000/svg">
<path fill-rule="evenodd" clip-rule="evenodd" d="M9 3.75C9.55228 3.75 10 4.19772 10 4.75C10 5.29186 9.56902 5.73307 9.03115 5.74952L9 5.75H5.75V18.25H18.25V15.125C18.25 14.5727 18.6977 14.125 19.25 14.125C19.7919 14.125 20.2331 14.556 20.2495 15.0939L20.25 15.125V18.25C20.25 19.3414 19.3758 20.2287 18.2894 20.2496L18.25 20.25H5.75C4.65858 20.25 3.77135 19.3758 3.75038 18.2894L3.75 18.25V5.75C3.75 4.65858 4.62424 3.77135 5.71064 3.75038L5.75 3.75H9ZM19.25 3.75C19.7919 3.75 20.2331 4.18098 20.2495 4.71885L20.25 4.75V8.75C20.25 9.30228 19.8023 9.75 19.25 9.75C18.7081 9.75 18.2669 9.31902 18.2505 8.78115L18.25 8.75V7.00541L9.53675 15.7358C9.18821 16.0851 8.61966 16.0885 8.26687 15.7434C7.92158 15.4058 7.91093 14.8595 8.2374 14.509L8.25917 14.4864L16.9784 5.75H15.25C14.7081 5.75 14.2669 5.31902 14.2505 4.78115L14.25 4.75C14.25 4.20814 14.681 3.76693 15.2189 3.75048L15.25 3.75H19.25Z" fill="#1D2126"/>
</svg>
