<svg width="24" height="24" viewBox="0 0 24 24" fill="none" xmlns="http://www.w3.org/2000/svg">
<path fill-rule="evenodd" clip-rule="evenodd" d="M5.636 18.3639C4.46443 17.1924 4.46443 15.2929 5.636 14.1213L7.75732 12C8.14785 11.6094 8.14785 10.9763 7.75732 10.5858C7.3668 10.1952 6.73363 10.1952 6.34311 10.5858L4.22179 12.7071C2.26917 14.6597 2.26917 17.8255 4.22179 19.7781C6.17441 21.7308 9.34024 21.7308 11.2929 19.7781L13.4142 17.6568C13.8047 17.2663 13.8047 16.6331 13.4142 16.2426C13.0237 15.8521 12.3905 15.8521 12 16.2426L9.87864 18.3639C8.70707 19.5355 6.80758 19.5355 5.636 18.3639ZM10.5858 6.34311C10.1952 6.73363 10.1952 7.3668 10.5858 7.75732C10.9763 8.14785 11.6094 8.14785 12 7.75732L14.1213 5.636C15.2929 4.46443 17.1924 4.46443 18.3639 5.636C19.5355 6.80758 19.5355 8.70707 18.3639 9.87864L16.2426 12C15.8521 12.3905 15.8521 13.0237 16.2426 13.4142C16.6331 13.8047 17.2663 13.8047 17.6568 13.4142L19.7781 11.2929C21.7308 9.34024 21.7308 6.17441 19.7781 4.22179C17.8255 2.26917 14.6597 2.26917 12.7071 4.22179L10.5858 6.34311ZM7.75732 14.8284C7.3668 15.2189 7.3668 15.8521 7.75732 16.2426C8.14785 16.6331 8.78101 16.6331 9.17154 16.2426L12 13.4142L17.2929 18.7071C17.6834 19.0976 18.3166 19.0976 18.7071 18.7071C19.0976 18.3166 19.0976 17.6834 18.7071 17.2929L13.4142 12L16.2426 9.17154C16.6331 8.78101 16.6331 8.14785 16.2426 7.75732C15.8521 7.3668 15.2189 7.3668 14.8284 7.75732L12 10.5857L6.70711 5.29288C6.31659 4.90236 5.68342 4.90236 5.2929 5.29288C4.90237 5.68341 4.90237 6.31657 5.2929 6.7071L10.5858 12L7.75732 14.8284Z" fill="#1D2126"/>
</svg>
