<svg width="24" height="24" viewBox="0 0 24 24" fill="none" xmlns="http://www.w3.org/2000/svg">
<path fill-rule="evenodd" clip-rule="evenodd" d="M12 3C8.96243 3 6.5 5.46243 6.5 8.5C6.5 10.1522 7.22855 11.6343 8.38193 12.6425C5.58022 13.7753 4 16.3572 4 20C4 20.5523 4.44772 21 5 21C5.55228 21 6 20.5523 6 20C6 16.102 8.08406 14 12 14C15.9159 14 18 16.102 18 20C18 20.5523 18.4477 21 19 21C19.5523 21 20 20.5523 20 20C20 16.3572 18.4198 13.7753 15.6181 12.6425C16.7714 11.6343 17.5 10.1522 17.5 8.5C17.5 5.46243 15.0376 3 12 3ZM12 12C13.933 12 15.5 10.433 15.5 8.5C15.5 6.567 13.933 5 12 5C10.067 5 8.5 6.567 8.5 8.5C8.5 10.433 10.067 12 12 12Z" fill="#1D2126"/>
</svg>
