<svg width="24" height="24" viewBox="0 0 24 24" fill="none" xmlns="http://www.w3.org/2000/svg">
<path fill-rule="evenodd" clip-rule="evenodd" d="M17.0909 2H6.90909C5.30244 2 4 3.31039 4 4.92683V6.76679L4.00048 6.82006C4.0165 7.70698 4.43171 8.53995 5.13105 9.0833L8.88509 12L5.13105 14.9167C4.41773 15.4709 4 16.3265 4 17.2332V19.0732C4 20.6896 5.30244 22 6.90909 22H17.0909C18.6976 22 20 20.6896 20 19.0732V17.2332L19.9995 17.1799C19.9835 16.293 19.5683 15.46 18.869 14.9167L15.1147 12L18.8689 9.0833C19.5823 8.52909 20 7.67354 20 6.76679V4.92683C20 3.31039 18.6976 2 17.0909 2ZM6.90915 3.95129H17.091C17.6265 3.95129 18.0607 4.38809 18.0607 4.9269V6.76686C18.0607 7.06911 17.9214 7.3543 17.6837 7.53903L12.9356 11.2279C12.4329 11.6185 12.4329 12.3817 12.9356 12.7723L17.6837 16.4611C17.9214 16.6459 18.0607 16.931 18.0607 17.2333V19.0732C18.0607 19.6121 17.6265 20.0489 17.091 20.0489H6.90915C6.3736 20.0489 5.93945 19.6121 5.93945 19.0732V17.2333C5.93945 16.931 6.0787 16.6459 6.31647 16.4611L11.0644 12.7722C11.5671 12.3817 11.5671 11.6185 11.0644 11.2279L6.31647 7.53903C6.0787 7.35429 5.93945 7.06911 5.93945 6.76686V4.9269C5.93945 4.38809 6.3736 3.95129 6.90915 3.95129ZM16.8485 17.8537C16.8485 17.3148 16.4143 16.8781 15.8788 16.8781H8.1212L8.091 16.8785C7.56943 16.8946 7.15151 17.325 7.15151 17.8537C7.15151 18.3925 7.58565 18.8293 8.1212 18.8293H15.8788L15.909 18.8288C16.4306 18.8128 16.8485 18.3823 16.8485 17.8537Z" fill="#1D2126"/>
</svg>
