<svg width="24" height="24" viewBox="0 0 24 24" fill="none" xmlns="http://www.w3.org/2000/svg">
<path fill-rule="evenodd" clip-rule="evenodd" d="M19.6036 8.49996H16.2943L16.954 5.97134C17.3579 4.42292 16.4301 2.84023 14.8817 2.43629C14.8164 2.41926 14.7506 2.40452 14.6843 2.39209C13.118 2.09842 11.5985 3.06496 11.1912 4.59246L11.0809 5.05353C10.4907 7.44676 9.73469 8.49996 9 8.49996H5C3.34315 8.49996 2 9.84311 2 11.5V18.5C2 20.1568 3.34315 21.5 5 21.5H18.3308C19.7807 21.5 21.0231 20.4631 21.2825 19.0366L22.5552 12.0366C22.8516 10.4065 21.7704 8.84474 20.1402 8.54835C19.9632 8.51616 19.7836 8.49996 19.6036 8.49996ZM7.125 10.5C6.57272 10.5 6.125 10.9477 6.125 11.5V18.5C6.125 19.0522 6.57272 19.5 7.125 19.5C7.67728 19.5 8.125 19.0522 8.125 18.5V11.5C8.125 10.9477 7.67728 10.5 7.125 10.5Z" fill="#FFD630"/>
</svg>
