<svg width="24" height="24" viewBox="0 0 24 24" fill="none" xmlns="http://www.w3.org/2000/svg">
<path fill-rule="evenodd" clip-rule="evenodd" d="M22 12C22 6.47715 17.5228 2 12 2C6.47715 2 2 6.47715 2 12C2 17.5228 6.47715 22 12 22C17.5228 22 22 17.5228 22 12ZM4 12C4 7.58172 7.58172 4 12 4C16.4183 4 20 7.58172 20 12C20 16.4183 16.4183 20 12 20C7.58172 20 4 16.4183 4 12ZM15.9744 11C16.5408 11 17 11.4477 17 12C17 12.5419 16.558 12.9831 16.0063 12.9995L15.9744 13H13V15.9744C13 16.5408 12.5523 17 12 17C11.4581 17 11.0169 16.558 11.0005 16.0063L11 15.9744V13H8.02564C7.4592 13 7 12.5523 7 12C7 11.4581 7.44203 11.0169 7.99369 11.0005L8.02564 11H11V8.02564C11 7.4592 11.4477 7 12 7C12.5419 7 12.9831 7.44203 12.9995 7.99369L13 8.02564V11H15.9744Z" fill="#1D2126"/>
</svg>
