<svg width="24" height="24" viewBox="0 0 24 24" fill="none" xmlns="http://www.w3.org/2000/svg">
<path fill-rule="evenodd" clip-rule="evenodd" d="M4.99998 3C4.4477 3 3.99998 3.44772 3.99998 4C3.99998 4.55228 4.4477 5 4.99998 5H10.5625L3.52324 12.0392L3.50155 12.0616C3.13285 12.4535 3.14008 13.0703 3.52324 13.4534L3.5456 13.4751C3.93757 13.8438 4.5543 13.8366 4.93745 13.4534L11 7.39081V21C11 21.5523 11.4477 22 12 22C12.5523 22 13 21.5523 13 21V7.37387L19.0796 13.4534L19.1019 13.4751C19.4939 13.8438 20.1106 13.8366 20.4938 13.4534C20.8843 13.0629 20.8843 12.4297 20.4938 12.0392L13.4546 5H19C19.5523 5 20 4.55228 20 4C20 3.44772 19.5523 3 19 3H4.99998Z" fill="#1D2126"/>
</svg>
