<svg width="24" height="24" viewBox="0 0 24 24" fill="none" xmlns="http://www.w3.org/2000/svg">
<path fill-rule="evenodd" clip-rule="evenodd" d="M4.9453 2.66793C5.40483 2.36158 6.0257 2.48576 6.33205 2.94528L8.15695 5.68263C9.18305 5.24324 10.3131 4.99998 11.5 4.99998H12.5C13.6869 4.99998 14.8169 5.24324 15.8431 5.68263L17.6679 2.94528C17.9743 2.48576 18.5952 2.36158 19.0547 2.66793C19.4814 2.9524 19.619 3.50806 19.3911 3.95392L19.3321 4.05468L17.5793 6.68385C19.6556 8.23361 21 10.7098 21 13.5V19C21 20.6568 19.6569 22 18 22H6C4.34315 22 3 20.6568 3 19V13.5C3 10.7098 4.34438 8.23361 6.42072 6.68385L4.66795 4.05468L4.60886 3.95392C4.38105 3.50806 4.51859 2.9524 4.9453 2.66793ZM11.5 6.99998H12.5C16.0899 6.99998 19 9.91013 19 13.5V19C19 19.5523 18.5523 20 18 20H6C5.44772 20 5 19.5523 5 19V13.5C5 9.91013 7.91015 6.99998 11.5 6.99998ZM9.99327 11.8834C9.93551 11.386 9.51284 11 9 11C8.44772 11 8 11.4477 8 12V13L8.00673 13.1166C8.06449 13.6139 8.48716 14 9 14C9.55228 14 10 13.5523 10 13V12L9.99327 11.8834ZM15 11C15.5128 11 15.9355 11.386 15.9933 11.8834L16 12V13C16 13.5523 15.5523 14 15 14C14.4872 14 14.0645 13.6139 14.0067 13.1166L14 13V12C14 11.4477 14.4477 11 15 11ZM14.5 17C14.5 16.4477 14.0523 16 13.5 16H10.5L10.3834 16.0067C9.88604 16.0645 9.5 16.4871 9.5 17C9.5 17.5523 9.94772 18 10.5 18H13.5L13.6166 17.9933C14.114 17.9355 14.5 17.5128 14.5 17Z" fill="#1D2126"/>
</svg>
