<svg width="24" height="24" viewBox="0 0 24 24" fill="none" xmlns="http://www.w3.org/2000/svg">
<path fill-rule="evenodd" clip-rule="evenodd" d="M16.25 5.875C16.25 3.52779 14.3472 1.625 12 1.625C9.65279 1.625 7.75 3.52779 7.75 5.875C7.75 6.09615 7.76703 6.31458 7.80019 6.52877C7.63616 6.45121 7.46622 6.38357 7.29112 6.32668C5.05879 5.60135 2.66114 6.82302 1.93581 9.05535C1.21048 11.2877 2.43215 13.6853 4.66448 14.4107C4.68717 14.418 4.7099 14.4252 4.73265 14.4322C4.61625 14.5575 4.50666 14.6905 4.40472 14.8308C3.02506 16.7298 3.44602 19.3876 5.34495 20.7672C7.24389 22.1469 9.90171 21.7259 11.2814 19.827C11.6359 19.339 11.876 18.7929 11.9985 18.2247C12.1235 18.7935 12.3652 19.3405 12.7186 19.827C14.0983 21.7259 16.7561 22.1469 18.655 20.7672C20.554 19.3876 20.9749 16.7298 19.5953 14.8308C19.4932 14.6903 19.3836 14.5573 19.2672 14.4322C19.29 14.4252 19.3128 14.418 19.3355 14.4107C21.5678 13.6853 22.7895 11.2877 22.0642 9.05535C21.3389 6.82302 18.9412 5.60135 16.7089 6.32668C16.5336 6.38364 16.3637 6.45128 16.2 6.5288C16.233 6.31426 16.25 6.09576 16.25 5.875ZM10.2658 7.30894C10.806 7.10914 11.3903 7 12 7C12.6132 7 13.2006 7.11039 13.7435 7.31237C14.0651 6.91456 14.25 6.40721 14.25 5.875C14.25 4.63236 13.2426 3.625 12 3.625C10.7574 3.625 9.75 4.63236 9.75 5.875C9.75 6.40924 9.93653 6.91167 10.2658 7.30894ZM16.1201 9.16633C16.6751 9.97174 17 10.9479 17 12C17 12.1275 16.9952 12.2538 16.9859 12.3789C17.5109 12.6442 18.1363 12.6974 18.7175 12.5085C19.8993 12.1246 20.5461 10.8552 20.1621 9.67338C19.7781 8.49156 18.5087 7.8448 17.3269 8.2288C16.8173 8.39438 16.3961 8.72853 16.1201 9.16633ZM15.9886 15.0156C15.4726 15.697 14.786 16.2421 13.9925 16.5872C13.9894 16.6364 13.9827 16.6859 13.9721 16.7354L13.9644 16.7689C13.8053 17.4063 13.9369 18.1012 14.3367 18.6514C15.0671 19.6568 16.4742 19.8796 17.4795 19.1492C18.4848 18.4188 18.7076 17.0117 17.9772 16.0064C17.5868 15.4689 16.9918 15.1408 16.3435 15.0866L16.2935 15.083C16.1861 15.0764 16.0836 15.053 15.9886 15.0156ZM9.99149 16.5802C9.19922 16.2323 8.51444 15.6849 8.00073 15.0015C7.91663 15.0352 7.82663 15.0578 7.73239 15.0676L7.69814 15.0706C7.04274 15.1163 6.42253 15.4562 6.02275 16.0064C5.29235 17.0117 5.51521 18.4188 6.52053 19.1492C7.52584 19.8796 8.93292 19.6568 9.66333 18.6514C10.0538 18.114 10.182 17.4468 10.0333 16.8134L10.0213 16.7648C10.0054 16.7032 9.99557 16.6415 9.99149 16.5802ZM7.01322 12.3664C6.48408 12.6409 5.86528 12.6979 5.28251 12.5085C4.10069 12.1246 3.45393 10.8552 3.83792 9.67338C4.22192 8.49156 5.49127 7.8448 6.67309 8.2288C7.18053 8.39367 7.60679 8.72758 7.88571 9.15796C7.32719 9.96497 7 10.9443 7 12C7 12.1232 7.00446 12.2454 7.01322 12.3664ZM12 9C13.6569 9 15 10.3431 15 12C15 13.6569 13.6569 15 12 15C10.3431 15 9 13.6569 9 12C9 10.3431 10.3431 9 12 9Z" fill="#1D2126"/>
</svg>
