<svg width="24" height="24" viewBox="0 0 24 24" fill="none" xmlns="http://www.w3.org/2000/svg">
<path fill-rule="evenodd" clip-rule="evenodd" d="M5.125 1.5C4.57272 1.5 4.125 1.94772 4.125 2.5V19.5H3.625C3.07272 19.5 2.625 19.9477 2.625 20.5C2.625 21.0523 3.07272 21.5 3.625 21.5H5.125H6.625C7.17728 21.5 7.625 21.0523 7.625 20.5C7.625 19.9477 7.17728 19.5 6.625 19.5H6.125V15.5H20.25L20.2814 15.4995C20.989 15.4783 21.4549 14.7428 21.1624 14.0907L18.8789 9L21.1624 3.90928C21.4592 3.24765 20.9751 2.5 20.25 2.5H6.125C6.125 1.94772 5.67728 1.5 5.125 1.5ZM16.8705 8.59072L18.7052 4.5H6.25V13.5H18.7054L16.8705 9.40928C16.759 9.16076 16.7539 8.87808 16.8553 8.62645L16.8705 8.59072ZM11.742 10.6762C11.8281 10.6458 11.922 10.6458 12.0081 10.6762L12.7971 10.9545C13.0613 11.0477 13.337 10.8474 13.33 10.5673L13.3092 9.73089C13.3069 9.63962 13.3359 9.55032 13.3914 9.47782L13.8999 8.81341C14.0702 8.59092 13.9649 8.26683 13.6963 8.18692L12.8944 7.94828C12.8069 7.92224 12.731 7.86705 12.6792 7.79188L12.2044 7.10295C12.0454 6.87226 11.7046 6.87226 11.5457 7.10296L11.0709 7.79188C11.0191 7.86705 10.9431 7.92224 10.8556 7.94828L10.0537 8.18692C9.78518 8.26683 9.67988 8.59092 9.85016 8.81341L10.3587 9.47782C10.4141 9.55032 10.4432 9.63962 10.4409 9.73089L10.42 10.5673C10.4131 10.8474 10.6887 11.0477 10.953 10.9545L11.742 10.6762Z" fill="#1D2126"/>
</svg>
