<svg width="24" height="24" viewBox="0 0 24 24" fill="none" xmlns="http://www.w3.org/2000/svg">
<path fill-rule="evenodd" clip-rule="evenodd" d="M10.2852 1.33502L1.64055 5.45863C1.3304 5.60657 1.08045 5.85652 0.932501 6.16668C0.575832 6.91439 0.892838 7.80967 1.64055 8.16634L5.25002 9.8881V20L5.25068 20.0363C5.26204 20.3499 5.42019 20.6409 5.67896 20.8209C9.47853 23.4641 14.5215 23.4641 18.3211 20.8209C18.5898 20.634 18.75 20.3273 18.75 20V9.92237L21.25 8.74339V13.375C21.25 13.9273 21.6977 14.375 22.25 14.375H22.6226C22.9691 14.375 23.25 14.0941 23.25 13.7475V8.21812C23.25 7.98595 23.2071 7.7638 23.1287 7.55918C23.1487 7.52442 23.1673 7.48877 23.1845 7.45229C23.5379 6.70301 23.2169 5.80914 22.4676 5.45578L13.7135 1.32744C12.6275 0.815294 11.3689 0.818079 10.2852 1.33502ZM16.75 10.8655L13.7135 12.2975C12.6275 12.8097 11.3689 12.8069 10.2852 12.2899L7.25002 10.8421V19.4596L7.29543 19.4877C10.1843 21.2418 13.8158 21.2418 16.7046 19.4877L16.75 19.4596V10.8655ZM20.6556 6.81236L12.8604 10.4886L12.8123 10.5105C12.2805 10.7444 11.6722 10.7357 11.1463 10.4848L3.44765 6.81236L11.1463 3.14017C11.6881 2.8817 12.3175 2.8803 12.8604 3.13637L20.6556 6.81236Z" fill="#1D2126"/>
</svg>
