<svg width="24" height="24" viewBox="0 0 24 24" fill="none" xmlns="http://www.w3.org/2000/svg">
<path fill-rule="evenodd" clip-rule="evenodd" d="M22 5C22 4.44772 21.5523 4 21 4H3L2.88338 4.00673C2.38604 4.06449 2 4.48716 2 5C2 5.55228 2.44772 6 3 6H21L21.1166 5.99327C21.614 5.93551 22 5.51284 22 5ZM22 11C22 10.4477 21.5523 10 21 10H3L2.88338 10.0067C2.38604 10.0645 2 10.4872 2 11C2 11.5523 2.44772 12 3 12H21L21.1166 11.9933C21.614 11.9355 22 11.5128 22 11ZM18.7071 20.5355C18.3166 20.9261 17.6834 20.9261 17.2929 20.5355C16.9303 20.1729 16.9044 19.6011 17.2152 19.2085L17.2929 19.1213L18.4145 18H3C2.44772 18 2 17.5523 2 17C2 16.4872 2.38604 16.0645 2.88338 16.0067L3 16H18.4142L17.2929 14.8787C16.9303 14.5161 16.9044 13.9442 17.2152 13.5517L17.2929 13.4645C17.6555 13.1018 18.2274 13.0759 18.6199 13.3868L18.7071 13.4645L21.5355 16.2929C21.8982 16.6555 21.9241 17.2274 21.6132 17.6199L21.5355 17.7071L18.7071 20.5355Z" fill="#1D2126"/>
</svg>
