<svg width="24" height="24" viewBox="0 0 24 24" fill="none" xmlns="http://www.w3.org/2000/svg">
<path fill-rule="evenodd" clip-rule="evenodd" d="M20.5 6C20.5 5.44772 20.0218 5 19.4318 5H9.81818L9.69361 5.00673C9.16236 5.06449 8.75 5.48716 8.75 6C8.75 6.55228 9.22824 7 9.81818 7H19.4318L19.5564 6.99327C20.0876 6.93551 20.5 6.51284 20.5 6ZM20.5 12C20.5 11.4477 20.0243 11 19.4375 11H4.5625L4.43859 11.0067C3.91017 11.0645 3.5 11.4872 3.5 12C3.5 12.5523 3.9757 13 4.5625 13H19.4375L19.5614 12.9933C20.0898 12.9355 20.5 12.5128 20.5 12ZM19.4375 17C20.0243 17 20.5 17.4477 20.5 18C20.5 18.5128 20.0898 18.9355 19.5614 18.9933L19.4375 19H4.5625C3.9757 19 3.5 18.5523 3.5 18C3.5 17.4872 3.91017 17.0645 4.43859 17.0067L4.5625 17H19.4375ZM6.75 6C6.75 5.44772 6.26498 5 5.66667 5H4.58333L4.45699 5.00673C3.91821 5.06449 3.5 5.48716 3.5 6C3.5 6.55228 3.98502 7 4.58333 7H5.66667L5.79301 6.99327C6.33179 6.93551 6.75 6.51284 6.75 6Z" fill="#1D2126"/>
</svg>
