<svg width="24" height="24" viewBox="0 0 24 24" fill="none" xmlns="http://www.w3.org/2000/svg">
<path fill-rule="evenodd" clip-rule="evenodd" d="M5.63603 14.1214C4.46445 15.2929 4.46445 17.1924 5.63603 18.364C6.8076 19.5356 8.70709 19.5356 9.87867 18.364L12 16.2427C12.3905 15.8522 13.0237 15.8522 13.4142 16.2427C13.8047 16.6332 13.8047 17.2664 13.4142 17.6569L11.2929 19.7782C9.34026 21.7308 6.17443 21.7308 4.22181 19.7782C2.26919 17.8256 2.26919 14.6598 4.22181 12.7071L6.34313 10.5858C6.73366 10.1953 7.36682 10.1953 7.75735 10.5858C8.14787 10.9763 8.14787 11.6095 7.75735 12L5.63603 14.1214ZM10.5858 7.75739C10.1952 7.36687 10.1952 6.73371 10.5858 6.34318L12.7071 4.22186C14.6597 2.26924 17.8255 2.26924 19.7782 4.22186C21.7308 6.17448 21.7308 9.34031 19.7782 11.2929L17.6568 13.4142C17.2663 13.8048 16.6332 13.8048 16.2426 13.4142C15.8521 13.0237 15.8521 12.3906 16.2426 12L18.3639 9.87871C19.5355 8.70714 19.5355 6.80765 18.3639 5.63607C17.1924 4.4645 15.2929 4.4645 14.1213 5.63607L12 7.75739C11.6095 8.14792 10.9763 8.14792 10.5858 7.75739ZM7.75735 16.2427C7.36682 15.8522 7.36682 15.219 7.75735 14.8285L14.8284 7.75739C15.2189 7.36687 15.8521 7.36687 16.2426 7.75739C16.6332 8.14792 16.6332 8.78108 16.2426 9.17161L9.17156 16.2427C8.78104 16.6332 8.14787 16.6332 7.75735 16.2427Z" fill="#1D2126"/>
</svg>
