<svg width="24" height="24" viewBox="0 0 24 24" fill="none" xmlns="http://www.w3.org/2000/svg">
<path fill-rule="evenodd" clip-rule="evenodd" d="M19 2.875H5C3.89543 2.875 3 3.77043 3 4.875V18.5864C3 18.9136 3.08027 19.2358 3.23377 19.5247L3.25404 19.5619C3.78299 20.5095 4.97535 20.8642 5.93831 20.3526L7.99237 19.2612L11.3942 21.1268L11.4275 21.1443C11.7293 21.2954 12.0881 21.2842 12.3807 21.1127L15.5503 19.2546L18.146 20.4804C18.413 20.6065 18.7047 20.6719 19 20.6719C20.1046 20.6719 21 19.7765 21 18.6719V4.875C21 3.77043 20.1046 2.875 19 2.875ZM5 4.875H19V18.6719L15.927 17.2208L15.8923 17.2052C15.6016 17.0811 15.2683 17.1017 14.9943 17.2623L11.8585 19.1005L8.48083 17.2482C8.18545 17.0862 7.82835 17.0838 7.53084 17.2419L5 18.5864V4.875ZM12.6245 8.21885C12.6081 7.68098 12.1669 7.25 11.625 7.25C11.0727 7.25 10.625 7.69772 10.625 8.25V12.25L10.6255 12.2811C10.6419 12.819 11.0831 13.25 11.625 13.25H15.375L15.4061 13.2495C15.944 13.2331 16.375 12.7919 16.375 12.25L16.3745 12.2189C16.3581 11.681 15.9169 11.25 15.375 11.25H12.625V8.25L12.6245 8.21885Z" fill="#1D2126"/>
</svg>
