<svg width="24" height="24" viewBox="0 0 24 24" fill="none" xmlns="http://www.w3.org/2000/svg">
<path fill-rule="evenodd" clip-rule="evenodd" d="M19.6706 4.54023C20.0626 4.15118 20.6957 4.15357 21.0848 4.54557C21.4655 4.92922 21.4714 5.54389 21.1039 5.93461L21.0794 5.95977L19.3723 7.65409C20.4081 8.69229 21.3995 9.96471 22.346 11.4669C22.5513 11.7927 22.5513 12.2073 22.346 12.5331C19.3443 17.2969 15.8918 19.75 12 19.75C10.6407 19.75 9.33492 19.4507 8.08325 18.8582L4.45443 22.4598C4.06244 22.8488 3.42928 22.8464 3.04023 22.4544C2.65946 22.0708 2.65365 21.4561 3.02107 21.0654L3.04557 21.0402L6.31193 17.7984C4.65521 16.5918 3.10212 14.8314 1.65395 12.5331C1.44868 12.2073 1.44868 11.7927 1.65395 11.4669C4.65569 6.70312 8.10823 4.25 12 4.25C14.0811 4.25 16.0365 4.95145 17.8647 6.33257L19.6706 4.54023ZM16.4279 7.75852C15.034 6.76768 13.5895 6.27039 12.093 6.25061L12 6.25C9.05135 6.25 6.30401 8.09731 3.74803 11.9141L3.69088 11.9999L3.74803 12.0859C5.03435 14.0067 6.36913 15.4288 7.75365 16.3675L9.59356 14.5415C8.92009 13.9036 8.5 13.0008 8.5 12C8.5 10.067 10.067 8.5 12 8.5C13.0103 8.5 13.9207 8.9281 14.5596 9.6128L16.4279 7.75852ZM9.62156 17.3315C10.3695 17.6006 11.1312 17.7391 11.907 17.7494L12 17.75C14.9486 17.75 17.696 15.9027 20.252 12.0859L20.309 11.9999L20.252 11.9141C19.5025 10.795 18.7367 9.84518 17.9541 9.06163L15.4685 11.5285C15.4893 11.6827 15.5 11.8401 15.5 12C15.5 13.933 13.933 15.5 12 15.5C11.831 15.5 11.6649 15.488 11.5023 15.4649L9.62156 17.3315ZM11.0147 13.131L13.1384 11.0232C12.8633 10.7029 12.4554 10.5 12 10.5C11.1716 10.5 10.5 11.1716 10.5 12C10.5 12.4513 10.6993 12.856 11.0147 13.131Z" fill="#1D2126"/>
</svg>
