<svg width="24" height="24" viewBox="0 0 24 24" fill="none" xmlns="http://www.w3.org/2000/svg">
<path fill-rule="evenodd" clip-rule="evenodd" d="M12 2C6.47715 2 2 6.47715 2 12V13V15C2 16.6569 3.34315 18 5 18C6.65685 18 8 16.6569 8 15V13C8 11.3431 6.65685 10 5 10C4.73268 10 4.47352 10.035 4.22685 10.1006C5.07946 6.5992 8.23619 4 12 4C15.7638 4 18.9205 6.5992 19.7732 10.1006C19.5265 10.035 19.2673 10 19 10C17.3431 10 16 11.3431 16 13V15C16 16.6569 17.3431 18 19 18L19.0004 18C18.0882 19.2144 16.6358 20 15 20H14.9146C14.7087 19.4174 14.1531 19 13.5 19H11.5C10.6716 19 10 19.6716 10 20.5C10 21.3284 10.6716 22 11.5 22H12H13.5H15C18.866 22 22 18.866 22 15V13V12C22 6.47715 17.5228 2 12 2ZM19 12C19.5523 12 20 12.4477 20 13V15C20 15.5523 19.5523 16 19 16C18.4477 16 18 15.5523 18 15V13C18 12.4477 18.4477 12 19 12ZM4 13V15C4 15.5523 4.44772 16 5 16C5.55228 16 6 15.5523 6 15V13C6 12.4477 5.55228 12 5 12C4.44772 12 4 12.4477 4 13Z" fill="#1D2126"/>
</svg>
