<svg width="24" height="24" viewBox="0 0 24 24" fill="none" xmlns="http://www.w3.org/2000/svg">
<path fill-rule="evenodd" clip-rule="evenodd" d="M14.875 3C14.3918 3 14 3.39175 14 3.875C14 4.35825 14.3918 4.75 14.875 4.75C15.4495 4.75 16.0184 4.86316 16.5492 5.08303C17.08 5.30289 17.5623 5.62515 17.9686 6.03141C18.3748 6.43766 18.6971 6.91996 18.917 7.45076C19.1368 7.98156 19.25 8.55047 19.25 9.125C19.25 9.60825 19.6418 10 20.125 10C20.6082 10 21 9.60825 21 9.125C21 8.32065 20.8416 7.52418 20.5338 6.78106C20.226 6.03794 19.7748 5.36273 19.206 4.79397L18.5873 5.41269L19.206 4.79397C18.6373 4.22521 17.9621 3.77405 17.2189 3.46624C16.4758 3.15843 15.6793 3 14.875 3ZM10 12C10 12.5304 10.2107 13.0391 10.5858 13.4142C10.9609 13.7893 11.4696 14 12 14H18.7082C18.5094 14.6669 18.2111 15.3041 17.8203 15.889C17.0511 17.0401 15.9579 17.9373 14.6788 18.4672C13.3997 18.997 11.9922 19.1356 10.6344 18.8655C9.2765 18.5954 8.02922 17.9287 7.05026 16.9497C6.07129 15.9708 5.4046 14.7235 5.13451 13.3656C4.86441 12.0078 5.00303 10.6003 5.53285 9.32122C6.06266 8.04213 6.95987 6.94888 8.11101 6.17971C8.69594 5.78887 9.33309 5.49063 10 5.2918V12ZM20.9445 12.9979C21.0057 12.4491 20.5523 12 20 12H12V4C12 3.44772 11.5509 2.99425 11.0021 3.05549C10.6645 3.09315 10.33 3.14982 10 3.22503C8.93498 3.46778 7.91745 3.90366 6.99987 4.51677C5.51983 5.50571 4.36628 6.91131 3.68509 8.55585C3.0039 10.2004 2.82567 12.01 3.17294 13.7558C3.5202 15.5016 4.37737 17.1053 5.63604 18.364C6.89472 19.6226 8.49836 20.4798 10.2442 20.8271C11.99 21.1743 13.7996 20.9961 15.4442 20.3149C17.0887 19.6337 18.4943 18.4802 19.4832 17.0001C20.0963 16.0826 20.5322 15.065 20.775 14C20.8502 13.67 20.9069 13.3355 20.9445 12.9979Z" fill="#1D2126"/>
</svg>
