<svg width="24" height="24" viewBox="0 0 24 24" fill="none" xmlns="http://www.w3.org/2000/svg">
<path fill-rule="evenodd" clip-rule="evenodd" d="M12 1.5C9.51472 1.5 7.5 3.51472 7.5 6V11C7.5 13.4853 9.51472 15.5 12 15.5C14.4853 15.5 16.5 13.4853 16.5 11V6C16.5 3.51472 14.4853 1.5 12 1.5ZM12 3.5C13.3807 3.5 14.5 4.61929 14.5 6V11C14.5 12.3807 13.3807 13.5 12 13.5C10.6193 13.5 9.5 12.3807 9.5 11V6C9.5 4.61929 10.6193 3.5 12 3.5ZM20 11C20 15.0796 16.9463 18.446 13 18.9381V20H16C16.5523 20 17 20.4477 17 21C17 21.5128 16.614 21.9355 16.1166 21.9933L16 22H12H8C7.44772 22 7 21.5523 7 21C7 20.4872 7.38604 20.0645 7.88338 20.0067L8 20H11V18.9381C7.05369 18.446 4 15.0796 4 11C4 10.4477 4.44772 10 5 10C5.55228 10 6 10.4477 6 11C6 14.3137 8.68629 17 12 17C15.3137 17 18 14.3137 18 11C18 10.4477 18.4477 10 19 10C19.5523 10 20 10.4477 20 11Z" fill="#1D2126"/>
</svg>
