<svg width="24" height="24" viewBox="0 0 24 24" fill="none" xmlns="http://www.w3.org/2000/svg">
<path fill-rule="evenodd" clip-rule="evenodd" d="M5.28194 3.625C4.72457 3.625 4.38986 3.68964 4.03998 3.87675C3.70275 4.05711 3.43211 4.32775 3.25175 4.66498C3.07132 5.00236 3.00477 5.32564 3.00025 5.84807L3 7.99976C3 7.99984 3 7.99992 3 8V18.625C3 19.7296 3.89543 20.625 5 20.625H19C20.1046 20.625 21 19.7296 21 18.625V9C21 7.89543 20.1046 7 19 7H13.7134L12.5223 4.85609C12.33 4.50986 12.1981 4.3264 12.0001 4.14387C11.7986 3.95818 11.5665 3.82158 11.3063 3.73566C11.0628 3.65523 10.8476 3.62763 10.4855 3.62518L5.28194 3.625ZM11.4254 7L10.774 5.82738C10.7162 5.72333 10.6869 5.67281 10.6694 5.64598L10.6585 5.63025C10.6438 5.62834 10.6212 5.62697 10.5806 5.6261L10.4808 5.62508L5.24886 5.6251C5.14181 5.62578 5.06675 5.62974 5.01765 5.63542L5.01113 5.63612L5.00859 5.65999C5.00507 5.69661 5.00239 5.74508 5.00102 5.80717L5.0001 5.87386L5 7H11.4254ZM5 9V18.625H19V9H13.125H5Z" fill="#1D2126"/>
</svg>
