<svg width="24" height="24" viewBox="0 0 24 24" fill="none" xmlns="http://www.w3.org/2000/svg">
<path fill-rule="evenodd" clip-rule="evenodd" d="M11.25 3.5H12.75C13.8546 3.5 14.75 4.39543 14.75 5.5V18.625C14.75 19.7296 13.8546 20.625 12.75 20.625H11.25C10.1454 20.625 9.25 19.7296 9.25 18.625V5.5C9.25 4.39543 10.1454 3.5 11.25 3.5ZM12.75 5.5H11.25V18.625H12.75V5.5ZM4.25 7.375H5.75C6.85457 7.375 7.75 8.27043 7.75 9.375V18.625C7.75 19.7296 6.85457 20.625 5.75 20.625H4.25C3.14543 20.625 2.25 19.7296 2.25 18.625V9.375C2.25 8.27043 3.14543 7.375 4.25 7.375ZM5.75 9.375H4.25V18.625H5.75V9.375ZM19.75 10.625H18.25C17.1454 10.625 16.25 11.5204 16.25 12.625V18.625C16.25 19.7296 17.1454 20.625 18.25 20.625H19.75C20.8546 20.625 21.75 19.7296 21.75 18.625V12.625C21.75 11.5204 20.8546 10.625 19.75 10.625ZM18.25 12.625H19.75V18.625H18.25V12.625Z" fill="#1D2126"/>
</svg>
