<svg width="24" height="24" viewBox="0 0 24 24" fill="none" xmlns="http://www.w3.org/2000/svg">
<path fill-rule="evenodd" clip-rule="evenodd" d="M6 7.4375C6 4.36542 8.49042 1.875 11.5625 1.875C14.6346 1.875 17.125 4.36542 17.125 7.4375C17.125 10.5096 14.6346 13 11.5625 13C11.3693 13 11.1784 12.9902 10.9903 12.9709C10.9133 12.9899 10.8329 13 10.75 13C8.15098 13 6 15.3848 6 18.375C6 18.9273 5.55228 19.375 5 19.375C4.44772 19.375 4 18.9273 4 18.375C4 15.4068 5.60904 12.8293 7.94499 11.6632C6.75441 10.643 6 9.12833 6 7.4375ZM15.125 7.4375C15.125 5.46999 13.53 3.875 11.5625 3.875C9.59499 3.875 8 5.46999 8 7.4375C8 9.40501 9.59499 11 11.5625 11C13.53 11 15.125 9.40501 15.125 7.4375ZM21.2144 12.0502C20.8279 11.6557 20.1947 11.6492 19.8002 12.0356L14.3574 17.3673L11.4314 14.6431L11.4059 14.6201C11.001 14.2679 10.3866 14.2978 10.0181 14.6936C9.64177 15.0978 9.66437 15.7306 10.0686 16.1069L13.6936 19.4819L13.7194 19.5051C14.111 19.8455 14.7013 19.8302 15.0748 19.4644L21.1998 13.4644L21.2244 13.4394C21.5944 13.051 21.5926 12.4364 21.2144 12.0502Z" fill="#1D2126"/>
</svg>
