<svg width="24" height="24" viewBox="0 0 24 24" fill="none" xmlns="http://www.w3.org/2000/svg">
<path fill-rule="evenodd" clip-rule="evenodd" d="M6.96938 3.88363C6.71016 3.6244 6.28988 3.6244 6.03066 3.88363L4.27413 5.64015C3.87851 6.03577 3.73315 6.61723 3.89605 7.15249C5.73023 13.1791 10.302 17.986 16.2292 20.1197L17.0845 20.4277C17.7554 20.6692 18.5057 20.475 18.9752 19.9384L20.2418 18.4908C20.5102 18.1841 20.5233 17.7302 20.2731 17.4086L18.4655 15.0844C18.3192 14.8964 18.0606 14.8378 17.8476 14.9443C15.7305 16.0028 13.1737 15.5879 11.5 13.9142L10.4307 12.845C8.84968 11.2639 8.52243 8.82027 9.63178 6.87891C9.70325 6.75384 9.68216 6.59641 9.5803 6.49455L6.96938 3.88363ZM4.61644 2.46941C5.65671 1.42914 7.34333 1.42914 8.3836 2.46941L10.9945 5.08033C11.7341 5.81993 11.8872 6.96305 11.3683 7.87119C10.7064 9.02947 10.9016 10.4875 11.845 11.4308L12.9142 12.5C13.9791 13.565 15.6061 13.829 16.9532 13.1554C18.0189 12.6226 19.3126 12.916 20.0442 13.8566L21.8518 16.1807C22.6903 17.2587 22.6463 18.78 21.747 19.8078L20.4803 21.2554C19.4688 22.4115 17.8524 22.8297 16.4071 22.3094L15.5518 22.0015C9.03065 19.6539 4.00069 14.3653 1.9827 7.73481C1.60474 6.49293 1.94201 5.14384 2.85992 4.22593L4.61644 2.46941Z" fill="black"/>
</svg>
