<svg width="24" height="24" viewBox="0 0 24 24" fill="none" xmlns="http://www.w3.org/2000/svg">
<path fill-rule="evenodd" clip-rule="evenodd" d="M13.5 1.71137C12.5718 1.17547 11.4282 1.17547 10.5 1.71137L3.83972 5.55667C2.91152 6.09257 2.33972 7.08295 2.33972 8.15475V15.8453C2.33972 16.9171 2.91152 17.9075 3.83972 18.4434L10.5 22.2887C11.4282 22.8246 12.5718 22.8246 13.5 22.2887L20.1602 18.4434C21.0884 17.9075 21.6602 16.9171 21.6602 15.8453V8.15475C21.6602 7.08295 21.0884 6.09257 20.1602 5.55667L13.5 1.71137ZM11.5 3.44342C11.8094 3.26479 12.1906 3.26479 12.5 3.44342L19.1602 7.28872C19.4696 7.46736 19.6602 7.79748 19.6602 8.15475V15.8453C19.6602 16.2026 19.4696 16.5327 19.1602 16.7114L12.5 20.5567C12.1906 20.7353 11.8094 20.7353 11.5 20.5567L4.83972 16.7114C4.53032 16.5327 4.33972 16.2026 4.33972 15.8453V8.15475C4.33972 7.79748 4.53032 7.46736 4.83972 7.28872L11.5 3.44342ZM10 12C10 10.8954 10.8954 10 12 10C13.1046 10 14 10.8954 14 12C14 13.1046 13.1046 14 12 14C10.8954 14 10 13.1046 10 12ZM12 8C9.79086 8 8 9.79086 8 12C8 14.2091 9.79086 16 12 16C14.2091 16 16 14.2091 16 12C16 9.79086 14.2091 8 12 8Z" fill="#1D2126"/>
</svg>
