<svg width="16" height="16" viewBox="0 0 16 16" fill="none" xmlns="http://www.w3.org/2000/svg">
<circle cx="8" cy="8" r="7" fill="#EB3B3B"/>
<path fill-rule="evenodd" clip-rule="evenodd" d="M9.95403 5.00666C10.2103 4.75038 10.6258 4.75038 10.8821 5.00666C11.1384 5.26295 11.1384 5.67846 10.8821 5.93474L8.87074 7.94611L10.8816 9.95692C11.1378 10.2132 11.1378 10.6287 10.8816 10.885C10.6253 11.1413 10.2098 11.1413 9.95348 10.885L7.94266 8.87419L5.93236 10.8845C5.67608 11.1408 5.26056 11.1408 5.00428 10.8845C4.748 10.6282 4.748 10.2127 5.00428 9.95641L7.01459 7.94611L5.00373 5.93525C4.74745 5.67897 4.74745 5.26346 5.00373 5.00718C5.26002 4.7509 5.67553 4.7509 5.93181 5.00718L7.94266 7.01803L9.95403 5.00666Z" fill="white"/>
</svg>
