<svg width="16" height="16" viewBox="0 0 16 16" fill="none" xmlns="http://www.w3.org/2000/svg">
<path fill-rule="evenodd" clip-rule="evenodd" d="M7.99996 1.4165C8.91085 1.4165 9.65106 2.14723 9.66638 3.05446L9.66663 3.08317V3.6665H13.75C14.1181 3.6665 14.4166 3.96498 14.4166 4.33317C14.4166 4.69441 14.1293 4.98855 13.7707 4.99952L13.75 4.99984H13V12.0406C13 12.6831 12.9339 13.0254 12.7431 13.3821C12.5647 13.7156 12.2991 13.9813 11.9656 14.1596C11.6255 14.3415 11.2984 14.4101 10.7118 14.4161L10.624 14.4165H5.37588C4.73336 14.4165 4.39105 14.3504 4.03433 14.1596C3.70087 13.9813 3.43518 13.7156 3.25684 13.3821C3.06606 13.0254 2.99996 12.6831 2.99996 12.0406V4.99984H2.33329C1.9651 4.99984 1.66663 4.70136 1.66663 4.33317C1.66663 3.97193 1.95395 3.67779 2.31253 3.66682L2.33329 3.6665H6.33329V3.08317C6.33329 2.1627 7.07948 1.4165 7.99996 1.4165ZM8.33329 3.6665H7.66663V3.08317L7.66703 3.06653C7.6757 2.89017 7.82144 2.74984 7.99996 2.74984C8.18405 2.74984 8.33329 2.89908 8.33329 3.08317V3.6665ZM4.33329 5.08317L4.33334 12.0731C4.33459 12.4779 4.35973 12.6127 4.42718 12.743L4.43259 12.7533C4.48666 12.8544 4.56202 12.9298 4.66313 12.9839C4.80028 13.0572 4.93465 13.0832 5.37588 13.0832L10.6566 13.0831C11.0507 13.0819 11.1889 13.058 11.3162 12.9945L11.3368 12.9839C11.4379 12.9298 11.5133 12.8544 11.5673 12.7533C11.6407 12.6162 11.6666 12.4818 11.6666 12.0406V5.08317H4.33329ZM6.70829 6.74984C7.06954 6.74984 7.36367 7.03716 7.37464 7.39574L7.37496 7.4165V10.7498C7.37496 11.118 7.07648 11.4165 6.70829 11.4165C6.34705 11.4165 6.05291 11.1292 6.04194 10.7706L6.04163 10.7498V7.4165C6.04163 7.04831 6.3401 6.74984 6.70829 6.74984ZM10.0413 7.39574C10.0303 7.03716 9.7362 6.74984 9.37496 6.74984C9.00677 6.74984 8.70829 7.04831 8.70829 7.4165V10.7498L8.70861 10.7706C8.71958 11.1292 9.01372 11.4165 9.37496 11.4165C9.74315 11.4165 10.0416 11.118 10.0416 10.7498V7.4165L10.0413 7.39574Z" fill="#EB3B3B"/>
</svg>
