<svg width="10" height="10" viewBox="0 0 10 10" fill="none" xmlns="http://www.w3.org/2000/svg">
<path fill-rule="evenodd" clip-rule="evenodd" d="M10 5C10 7.76142 7.76142 10 5 10C2.23858 10 0 7.76142 0 5C0 2.23858 2.23858 0 5 0C7.76142 0 10 2.23858 10 5ZM2.64645 2.64645C2.82669 2.4662 3.1103 2.45234 3.30645 2.60485L3.35355 2.64645L5 4.29289L6.64645 2.64645C6.84171 2.45118 7.15829 2.45118 7.35355 2.64645C7.5338 2.82669 7.54766 3.1103 7.39515 3.30645L7.35355 3.35355L5.70711 5L7.35355 6.64645C7.54882 6.84171 7.54882 7.15829 7.35355 7.35355C7.17331 7.5338 6.8897 7.54766 6.69355 7.39515L6.64645 7.35355L5 5.70711L3.35355 7.35355C3.15829 7.54882 2.84171 7.54882 2.64645 7.35355C2.4662 7.17331 2.45234 6.8897 2.60485 6.69355L2.64645 6.64645L4.29289 5L2.64645 3.35355C2.45118 3.15829 2.45118 2.84171 2.64645 2.64645Z" fill="#B7BBBF"/>
</svg>
