<svg width="16" height="16" viewBox="0 0 16 16" fill="none" xmlns="http://www.w3.org/2000/svg">
<path fill-rule="evenodd" clip-rule="evenodd" d="M5.08333 0.0830078C4.62309 0.0830078 4.25 0.456104 4.25 0.916342V2.16643L3.53638 2.16644L3.41881 2.16743C2.55468 2.1788 2.08162 2.27988 1.58945 2.54309C1.10472 2.80233 0.719317 3.18773 0.46008 3.67246C0.180341 4.19553 0.0833282 4.6979 0.0833282 5.67039V12.4123L0.0838397 12.5314C0.0917298 13.4267 0.191996 13.9089 0.46008 14.4102C0.719317 14.8949 1.10472 15.2804 1.58945 15.5396C2.11252 15.8193 2.61489 15.9163 3.58738 15.9163H12.4126L12.5318 15.9158C13.427 15.9079 13.9093 15.8077 14.4105 15.5396C14.8953 15.2804 15.2807 14.8949 15.5399 14.4102C15.8196 13.8872 15.9167 13.3848 15.9167 12.4123V5.67039L15.9161 5.55124C15.9083 4.656 15.808 4.17373 15.5399 3.67246C15.2807 3.18773 14.8953 2.80233 14.4105 2.54309C13.8875 2.26335 13.3851 2.16634 12.4126 2.16634L11.75 2.16635V0.916341C11.75 0.456104 11.3769 0.0830078 10.9167 0.0830078C10.4564 0.0830078 10.0833 0.456103 10.0833 0.91634V2.16637L5.91666 2.16641V0.916342C5.91666 0.456104 5.54357 0.0830078 5.08333 0.0830078ZM10.0833 3.83303L5.91666 3.83308V4.24967C5.91666 4.70991 5.54357 5.08301 5.08333 5.08301C4.62309 5.08301 4.25 4.70991 4.25 4.24967V3.83309L3.53967 3.8331C2.88402 3.83569 2.64102 3.87831 2.40794 3.99589L2.37545 4.01278C2.18116 4.11668 2.03367 4.26418 1.92977 4.45846C1.79681 4.70707 1.74999 4.94951 1.74999 5.67039L1.75006 12.4577C1.75194 13.113 1.7955 13.3589 1.9129 13.5918L1.92977 13.6242C2.03367 13.8185 2.18116 13.966 2.37545 14.0699C2.62405 14.2029 2.8665 14.2497 3.58738 14.2497L12.458 14.2496C13.114 14.2477 13.3597 14.2041 13.5928 14.0864L13.6245 14.0699C13.8188 13.966 13.9663 13.8185 14.0702 13.6242C14.2032 13.3756 14.25 13.1332 14.25 12.4123L14.2499 5.62502C14.248 4.96901 14.2044 4.72327 14.0867 4.4902L14.0702 4.45846C13.9663 4.26418 13.8188 4.11668 13.6245 4.01278C13.3759 3.87983 13.1335 3.83301 12.4126 3.83301L11.75 3.83301V4.24968C11.75 4.70991 11.3769 5.08301 10.9167 5.08301C10.4564 5.08301 10.0833 4.70991 10.0833 4.24968V3.83303ZM3.83333 7.99968C3.83333 7.53944 4.20642 7.16634 4.66666 7.16634H11.3333C11.7936 7.16634 12.1667 7.53944 12.1667 7.99968C12.1667 8.45991 11.7936 8.83301 11.3333 8.83301H4.66666C4.20642 8.83301 3.83333 8.45991 3.83333 7.99968Z" fill="#4E5359"/>
</svg>
